<svg viewBox="0 0 672 142.5" xmlns="http://www.w3.org/2000/svg"><path d="m166 35.6-1.8-4.5h-8.5l-1.8 4.5h-4.5l8.6-20.2h4.1l8.6 20.2h-4.6zm-6-14.9-2.7 6.5h5.3l-2.7-6.5z" fill="#0d4c2d"/><path d="m181.6 35.6v-8.5c0-1-.2-1.8-.7-2.3s-1.1-.8-1.9-.8-1.5.3-2 .8-.7 1.3-.7 2.3v8.5h-4.3v-15.3h4.3v2.2c.2-.3.5-.6.8-.9s.6-.6 1-.8.8-.4 1.2-.5.9-.2 1.5-.2c1.7 0 2.9.5 3.8 1.5s1.4 2.4 1.4 4.2v9.9h-4.3z" fill="#0d4c2d"/><path d="m183.6 84.7c-1.1.9-2.3 1.7-3.7 2.3s-2.8 1.1-4.4 1.4-3.4.5-5.3.5c-3 0-5.7-.5-8.3-1.6-2.5-1.1-4.7-2.6-6.6-4.4-1.9-1.9-3.3-4.1-4.3-6.6s-1.6-5.3-1.6-8.2c0-3 .5-5.7 1.6-8.2 1-2.5 2.5-4.7 4.3-6.7 1.9-1.9 4.1-3.4 6.7-4.5s5.4-1.6 8.6-1.6 3.6.2 5.2.5 3 .7 4.3 1.3c1.3.5 2.5 1.2 3.5 2 1.1.8 2.1 1.6 3 2.5l-5.7 6.5c-1.6-1.4-3.2-2.5-4.8-3.4-1.6-.8-3.5-1.2-5.5-1.2s-3.3.3-4.7 1-2.7 1.6-3.7 2.7c-1 1.2-1.9 2.5-2.4 4-.6 1.5-.9 3.2-.9 4.9 0 1.9.3 3.5.9 5s1.4 2.9 2.4 4.1 2.3 2.1 3.7 2.7c1.4.7 3 1 4.8 1s4.3-.4 5.9-1.3c1.6-.8 3.2-2 4.8-3.5l5.7 5.7c-1 1.1-2.1 2.1-3.2 3z" fill="#0d4c2d"/><path d="m219.2 79c-.8 1.9-2 3.7-3.5 5.1-1.5 1.5-3.3 2.6-5.3 3.5-2 .8-4.3 1.3-6.7 1.3s-4.6-.4-6.7-1.2c-2-.8-3.8-2-5.3-3.4s-2.7-3.1-3.5-5.1c-.8-1.9-1.3-4-1.3-6.3 0-2.4.4-4.4 1.3-6.4.8-1.9 2-3.7 3.5-5.1 1.5-1.5 3.3-2.6 5.3-3.5 2-.8 4.3-1.3 6.7-1.3s4.6.4 6.7 1.2c2 .8 3.8 2 5.3 3.4s2.7 3.1 3.5 5.1c.8 1.9 1.3 4 1.3 6.3 0 2.4-.4 4.4-1.3 6.4zm-7.4-6.3c0-1.2-.2-2.2-.6-3.3-.4-1-.9-1.9-1.7-2.7-.7-.8-1.6-1.4-2.6-1.9s-2.1-.7-3.3-.7-2.4.2-3.4.7c-1 .4-1.8 1.1-2.5 1.8-.7.8-1.2 1.7-1.6 2.7s-.5 2.1-.5 3.3c0 1.3.2 2.4.6 3.4s.9 1.9 1.7 2.7c.7.8 1.6 1.4 2.6 1.9s2.1.7 3.3.7 2.4-.2 3.4-.7c1-.4 1.8-1.1 2.5-1.8.7-.8 1.2-1.7 1.6-2.7s.6-2.1.6-3.3z" fill="#0d4c2d"/><path d="m223.4 53.8v-7.8h9.3v7.8zm.2 34.4v-31h8.8v31z" fill="#0d4c2d"/><path d="m275.6 88.2v-17.3c0-2.1-.4-3.6-1.3-4.7s-2.2-1.6-3.8-1.6-3 .5-3.9 1.6-1.4 2.6-1.4 4.7v17.3h-8.8v-17.3c0-2.1-.4-3.6-1.3-4.7s-2.2-1.6-3.8-1.6-3 .5-3.9 1.6-1.4 2.6-1.4 4.7v17.3h-8.8v-31h8.8v4.4c.5-.7 1.1-1.3 1.6-1.9.6-.6 1.3-1.1 2-1.6s1.6-.8 2.5-1.1 1.9-.4 3-.4c2 0 3.8.4 5.3 1.3s2.6 2.1 3.4 3.7c1.4-1.6 2.9-2.9 4.5-3.7 1.7-.8 3.6-1.3 5.7-1.3 3.3 0 5.8 1 7.7 2.9s2.8 4.8 2.8 8.5v20.2h-8.8z" fill="#0d4c2d"/><path d="m288.5 53.8v-7.8h9.3v7.8zm.3 34.4v-31h8.8v31z" fill="#0d4c2d"/><path d="m325.9 83.3c-.6 1.3-1.4 2.3-2.5 3.1s-2.3 1.4-3.8 1.8c-1.4.4-3 .6-4.7.6s-4.4-.4-6.7-1.1c-2.3-.8-4.5-1.9-6.6-3.6l3.8-5.8c1.7 1.2 3.4 2.2 5.1 2.8s3.3.9 4.7.9 2.2-.2 2.8-.6.9-1 .9-1.7c0-.6-.2-1-.5-1.3s-.8-.6-1.4-.9-1.3-.5-2.1-.7-1.6-.5-2.4-.8c-1.1-.3-2.2-.7-3.3-1.1s-2.1-1-3-1.7-1.6-1.6-2.2-2.6-.8-2.3-.8-3.8c0-1.7.3-3.1.9-4.3s1.4-2.2 2.4-3.1c1-.8 2.2-1.5 3.6-1.9s2.8-.6 4.4-.6 4 .3 6 1 3.9 1.5 5.6 2.6l-3.4 6.1c-1.5-.9-3-1.6-4.5-2.1s-2.8-.8-3.9-.8-1.9.2-2.4.6-.8.9-.8 1.5c0 .5.2.9.5 1.2s.8.6 1.4.9 1.2.6 2 .8c.8.3 1.6.5 2.4.8 1.1.3 2.2.8 3.3 1.2 1.1.5 2.1 1.1 3 1.8s1.6 1.5 2.2 2.5.9 2.2.9 3.6c0 1.9-.3 3.3-.9 4.6z" fill="#0d4c2d"/><path d="m331.4 53.8v-7.8h9.3v7.8zm.2 34.4v-31h8.8v31z" fill="#0d4c2d"/><path d="m365.6 88.2v-17.3c0-2.1-.5-3.6-1.4-4.7s-2.2-1.6-3.9-1.6-3 .5-4 1.6-1.5 2.6-1.5 4.7v17.3h-8.8v-31h8.8v4.4c.5-.7 1.1-1.3 1.7-1.9s1.3-1.1 2-1.6 1.5-.8 2.4-1.1 1.9-.4 3-.4c3.4 0 6 1 7.8 3.1 1.8 2 2.7 4.9 2.7 8.5v20.1h-8.8z" fill="#0d4c2d"/><path d="m408.2 74.7v1.1h-21.6c.4 2 1.3 3.5 2.6 4.5s3 1.5 4.9 1.5 2.8-.3 3.9-.8c1.2-.5 2.4-1.3 3.6-2.4l5 4.5c-1.5 1.8-3.2 3.2-5.3 4.3s-4.5 1.5-7.4 1.5-4.5-.4-6.5-1.2-3.7-1.9-5.2-3.3c-1.4-1.4-2.6-3.1-3.4-5.1-.8-1.9-1.2-4.1-1.2-6.5 0-2.3.4-4.4 1.1-6.4s1.8-3.7 3.2-5.2c1.3-1.5 3-2.6 4.8-3.5 1.9-.8 3.9-1.3 6.2-1.3s4.8.5 6.7 1.4 3.5 2.2 4.7 3.7c1.3 1.6 2.2 3.4 2.8 5.4s.9 4.1.9 6.3v1.2zm-10.6-9.2c-1.1-1.2-2.6-1.8-4.5-1.8s-3.3.6-4.5 1.8-1.9 2.8-2.2 4.8h13.3c-.3-2-1-3.6-2.1-4.8zm-8-11.7 6.5-10.2 7.6 3.3-7.4 6.9z" fill="#0d4c2d"/><path d="m412.2 53.8v-7.8h9.3v7.8zm.2 34.4v-31h8.8v31z" fill="#0d4c2d"/><path d="m445 65.8c-2.9 0-5.2.9-6.9 2.7s-2.5 4.5-2.5 8.3v11.5h-8.8v-31h8.8v6.3c.9-2.1 2.1-3.8 3.6-5.1s3.6-1.9 6.3-1.7v9.2h-.5z" fill="#0d4c2d"/><path d="m501.6 86.4c-2.9 1.3-6.2 1.9-9.9 1.9s-6-.5-8.7-1.6c-2.6-1-4.8-2.5-6.7-4.3-1.9-1.9-3.3-4.1-4.4-6.6-1-2.5-1.6-5.3-1.6-8.3 0-3 .5-5.7 1.6-8.2s2.5-4.7 4.4-6.7c1.9-1.9 4.1-3.4 6.7-4.5s5.4-1.6 8.5-1.6 3.5.1 4.9.4c1.5.3 2.9.6 4.1 1.1 1.3.5 2.5 1 3.6 1.7s2.2 1.5 3.2 2.4l-5.6 6.8c-.8-.7-1.5-1.2-2.3-1.7s-1.6-.9-2.4-1.3c-.8-.3-1.7-.6-2.7-.8s-2-.3-3.2-.3-3.1.3-4.5 1-2.6 1.6-3.7 2.7-1.9 2.5-2.5 4-.9 3.2-.9 4.9c0 2 .3 3.7.9 5.2.6 1.6 1.4 2.9 2.5 4.1s2.4 2.1 3.9 2.7 3.1 1 4.9 1c3.3 0 6.1-.8 8.4-2.4v-5.8h-9v-7.7h17.6v17.6c-2.1 1.8-4.6 3.3-7.4 4.5z" fill="#0d4c2d"/><path d="m532.1 87.6v-3.4c-1.1 1.2-2.4 2.2-3.9 2.9s-3.3 1.1-5.5 1.1-2.8-.2-4.1-.6-2.4-1-3.4-1.8-1.7-1.8-2.3-3-.8-2.5-.8-4.1c0-1.8.3-3.3.9-4.5s1.5-2.3 2.6-3.1 2.4-1.4 3.9-1.8 3.2-.6 5.1-.6 3 .1 4.1.3c1.2.2 2.3.5 3.4.9v-.5c0-1.9-.6-3.3-1.7-4.2-1.1-1-2.8-1.4-5-1.4s-3.2.1-4.5.4-2.7.7-4.1 1.2l-2.2-6.7c1.7-.7 3.5-1.3 5.3-1.8s4.1-.7 6.7-.7c4.8 0 8.3 1.2 10.5 3.5 2.2 2.4 3.3 5.6 3.3 9.8v18h-8.5zm.2-12.5c-.8-.3-1.6-.6-2.6-.8-.9-.2-2-.3-3-.3-1.9 0-3.4.4-4.5 1.1s-1.6 1.8-1.6 3.2c0 1.3.4 2.2 1.3 2.9s2 1 3.5 1c2.1 0 3.8-.5 5-1.5 1.3-1 1.9-2.3 1.9-3.9v-1.6z" fill="#0d4c2d"/><path d="m574.4 74.1v1.1h-21.6c.4 2 1.3 3.5 2.6 4.5s3 1.5 4.9 1.5 2.8-.3 3.9-.8c1.2-.5 2.4-1.3 3.6-2.4l5 4.5c-1.5 1.8-3.2 3.2-5.3 4.3-2.1 1-4.5 1.5-7.4 1.5s-4.5-.4-6.5-1.2-3.7-1.9-5.2-3.3c-1.4-1.4-2.6-3.1-3.4-5.1-.8-1.9-1.2-4.1-1.2-6.5 0-2.3.4-4.4 1.1-6.4.8-2 1.8-3.7 3.2-5.2s3-2.6 4.8-3.5c1.9-.8 3.9-1.3 6.2-1.3s4.8.5 6.7 1.4 3.5 2.2 4.7 3.7c1.3 1.6 2.2 3.4 2.8 5.4s.9 4.1.9 6.3v1.2zm-10.7-9.2c-1.1-1.2-2.6-1.8-4.5-1.8s-3.3.6-4.5 1.8c-1.1 1.2-1.9 2.8-2.2 4.8h13.3c-.3-2-1-3.6-2.1-4.8z" fill="#0d4c2d"/><path d="m578.4 53.2v-7.8h9.3v7.8zm.2 34.4v-31h8.8v31z" fill="#0d4c2d"/><path d="m592.4 87.6v-42.3h8.8v42.3z" fill="#0d4c2d"/><path d="m636.9 88.1c-.7 2.1-1.8 3.8-3.2 5.1s-3.3 2.3-5.4 2.9c-2.2.6-4.7.9-7.6.9s-5-.3-7.3-.8c-2.3-.6-4.5-1.4-6.4-2.4l3-6.6c1.6.9 3.3 1.6 4.9 2.1s3.5.8 5.6.8c3 0 5.2-.7 6.7-2.1 1.4-1.4 2.2-3.5 2.2-6.3v-1.5c-1.3 1.6-2.7 2.8-4.3 3.7-1.5.9-3.5 1.3-5.8 1.3s-3.6-.3-5.2-1c-1.7-.6-3.1-1.6-4.4-2.8s-2.3-2.7-3-4.5c-.8-1.8-1.1-3.8-1.1-6.2 0-2.4.4-4.5 1.2-6.3s1.8-3.3 3.1-4.5 2.7-2.2 4.4-2.8 3.4-1 5.2-1 4.4.4 5.9 1.3 2.9 2 4.1 3.3v-4.1h8.8v24c0 2.9-.4 5.4-1.1 7.5zm-7.6-17.6c0-1-.2-2-.6-2.9s-.9-1.7-1.6-2.3-1.5-1.1-2.4-1.5c-.9-.3-1.9-.5-3-.5s-2.1.2-3 .5-1.7.8-2.4 1.5c-.7.6-1.2 1.4-1.6 2.3s-.6 1.9-.6 2.9c0 2.3.7 4 2.1 5.3s3.2 2 5.4 2 2.1-.2 3-.5 1.7-.8 2.4-1.5c.7-.6 1.2-1.4 1.6-2.3s.6-1.9.6-2.9z" fill="#0d4c2d"/><path d="m672 74.1v1.1h-21.6c.4 2 1.3 3.5 2.6 4.5s3 1.5 4.9 1.5 2.8-.3 3.9-.8c1.2-.5 2.4-1.3 3.6-2.4l5 4.5c-1.5 1.8-3.2 3.2-5.3 4.3-2.1 1-4.5 1.5-7.4 1.5s-4.5-.4-6.5-1.2-3.7-1.9-5.2-3.3c-1.4-1.4-2.6-3.1-3.4-5.1-.8-1.9-1.2-4.1-1.2-6.5 0-2.3.4-4.4 1.1-6.4.8-2 1.8-3.7 3.2-5.2s3-2.6 4.8-3.5c1.9-.8 3.9-1.3 6.2-1.3s4.8.5 6.7 1.4 3.5 2.2 4.7 3.7c1.3 1.6 2.2 3.4 2.8 5.4s.9 4.1.9 6.3v1.2zm-10.6-9.2c-1.1-1.2-2.6-1.8-4.5-1.8s-3.3.6-4.5 1.8c-1.1 1.2-1.9 2.8-2.2 4.8h13.3c-.3-2-1-3.6-2.1-4.8z" fill="#0d4c2d"/><g fill="#2b3990"><path d="m152 108.7v15h-2.6v-15z"/><path d="m156.7 123.6h-2.6v-11.3h2.6v2.5c.4-.9.9-1.5 1.5-2.1.7-.5 1.5-.7 2.5-.7v2.7h-.1c-.6 0-1.1 0-1.6.3-.5.2-.9.5-1.2.8s-.6.8-.8 1.4-.3 1.2-.3 2v4.3z"/><path d="m162.1 110.6v-2.5h2.8v2.5zm.1 13v-11.3h2.6v11.3z"/><path d="m175.1 121.8c-.2.4-.5.8-.9 1.1s-.8.5-1.3.7-1.1.2-1.6.2-1.6-.1-2.5-.4-1.6-.7-2.3-1.3l1.2-1.8c.6.5 1.2.8 1.9 1 .6.2 1.2.4 1.8.4s1-.1 1.3-.3.5-.5.5-.9c0-.3 0-.4-.2-.6-.1-.2-.3-.3-.6-.4-.2-.1-.5-.2-.8-.3-.3 0-.6-.2-1-.3s-.8-.3-1.3-.4c-.4-.2-.8-.4-1.1-.6s-.6-.6-.8-.9c-.2-.4-.3-.8-.3-1.4 0-.6.1-1 .3-1.5s.5-.8.9-1.1.8-.5 1.3-.7 1-.2 1.6-.2 1.4.1 2.2.3c.7.2 1.4.5 2 .9l-1 1.8c-.5-.3-1.1-.6-1.6-.8-.6-.2-1.1-.3-1.5-.3s-.9.1-1.2.3-.4.5-.4.8c0 .2 0 .4.2.6.1.1.3.3.6.4.2.1.5.2.8.3s.6.2 1 .3.8.3 1.2.4c.4.2.8.4 1.1.6s.6.6.8.9.3.8.3 1.3c0 .6-.1 1.2-.3 1.6z"/><path d="m179.8 123.6h-2.6v-15.6h2.6v6.1c.2-.3.4-.5.6-.8.2-.2.5-.4.8-.6s.6-.3 1-.4c.3-.1.7-.2 1.2-.2 1.3 0 2.3.4 3 1.2s1 1.8 1 3.2v7.2h-2.6v-6.4c0-.9-.2-1.6-.6-2-.4-.5-1-.7-1.8-.7s-1.4.2-1.8.7c-.5.5-.7 1.2-.7 2.1v6.4z"/><path d="m197.2 108.7h2.6v12.6h7.9v2.4h-10.5z"/><path d="m216.2 123.6v-1.4c-.4.5-.9.8-1.5 1.2s-1.3.5-2.2.5-1.1 0-1.5-.2c-.5-.1-.9-.4-1.3-.7s-.7-.7-.9-1.1-.3-.9-.3-1.5c0-.7.1-1.2.3-1.6s.5-.8 1-1.1.9-.5 1.5-.7c.6-.1 1.2-.2 1.8-.2s1.3 0 1.7.1c.5 0 .9.2 1.4.3v-.3c0-.8-.2-1.4-.7-1.8s-1.2-.6-2.1-.6-1.2 0-1.7.2c-.5.1-1 .3-1.5.5l-.7-2.1c.6-.3 1.3-.5 1.9-.7.7-.2 1.4-.3 2.4-.3 1.7 0 2.9.4 3.7 1.3.8.8 1.2 2 1.2 3.5v6.7h-2.6zm.1-4.8c-.3-.1-.7-.2-1.2-.3s-.9-.1-1.4-.1c-.8 0-1.4.2-1.9.5s-.7.8-.7 1.3c0 .6.2 1 .6 1.3s.9.4 1.5.4.8 0 1.2-.2c.4-.1.7-.3 1-.5s.5-.5.6-.7c.1-.3.2-.6.2-1v-.7z"/><path d="m223.6 123.6h-2.6v-11.3h2.6v1.8c.2-.3.4-.5.6-.8.2-.2.5-.4.8-.6s.6-.3 1-.4c.3-.1.7-.2 1.2-.2 1.3 0 2.3.4 3 1.2s1 1.8 1 3.2v7.2h-2.6v-6.4c0-.9-.2-1.6-.6-2-.4-.5-1-.7-1.8-.7s-1.4.2-1.8.7c-.5.5-.7 1.2-.7 2.1v6.4z"/><path d="m243 125.7c-1.1.9-2.6 1.4-4.5 1.4s-3.6-.4-5-1.3l1-1.9c.6.4 1.2.7 1.9.9s1.4.3 2.1.3c1.2 0 2-.3 2.7-.9.6-.6.9-1.5.9-2.6v-.9c-.5.6-1 1.1-1.6 1.5s-1.4.6-2.3.6-1.3-.1-1.9-.4c-.6-.2-1.2-.6-1.6-1-.5-.5-.9-1-1.1-1.7-.3-.7-.4-1.4-.4-2.2s.1-1.6.4-2.2c.3-.7.7-1.2 1.1-1.7.5-.5 1-.8 1.6-1s1.3-.4 1.9-.4c1 0 1.7.2 2.4.6s1.2.8 1.6 1.4v-1.7h2.6v9c0 2-.5 3.5-1.6 4.4zm-1.3-9.6c-.2-.4-.4-.7-.7-1s-.7-.5-1.1-.6-.8-.2-1.3-.2-.9 0-1.3.2c-.4.1-.7.4-1 .6s-.5.6-.7 1-.2.8-.2 1.3 0 .9.3 1.3c.2.4.4.7.7 1s.6.5 1 .6.8.2 1.3.2.9 0 1.3-.2c.4-.1.8-.4 1.1-.6.3-.3.5-.6.7-1s.3-.8.3-1.3 0-.9-.3-1.3z"/><path d="m254.3 112.3h2.6v11.3h-2.6v-1.8c-.4.5-.8 1-1.4 1.4s-1.3.6-2.1.6c-1.3 0-2.3-.4-3-1.2s-1-1.8-1-3.2v-7.2h2.6v6.4c0 .9.2 1.6.6 2 .4.5 1 .7 1.8.7s1.4-.2 1.8-.7c.5-.5.7-1.2.7-2.1v-6.4z"/><path d="m266.3 123.6v-1.4c-.4.5-.9.8-1.5 1.2s-1.3.5-2.2.5-1.1 0-1.5-.2c-.5-.1-.9-.4-1.3-.7s-.7-.7-.9-1.1-.3-.9-.3-1.5c0-.7.1-1.2.3-1.6s.5-.8 1-1.1.9-.5 1.5-.7c.6-.1 1.2-.2 1.8-.2s1.3 0 1.7.1c.5 0 .9.2 1.4.3v-.3c0-.8-.2-1.4-.7-1.8s-1.2-.6-2.1-.6-1.2 0-1.7.2c-.5.1-1 .3-1.5.5l-.7-2.1c.6-.3 1.3-.5 1.9-.7.7-.2 1.4-.3 2.4-.3 1.7 0 2.9.4 3.7 1.3.8.8 1.2 2 1.2 3.5v6.7h-2.6zm0-4.8c-.3-.1-.7-.2-1.2-.3s-.9-.1-1.4-.1c-.8 0-1.4.2-1.9.5s-.7.8-.7 1.3c0 .6.2 1 .6 1.3s.9.4 1.5.4.8 0 1.2-.2c.4-.1.7-.3 1-.5s.5-.5.6-.7c.1-.3.2-.6.2-1v-.7z"/><path d="m280.6 125.7c-1.1.9-2.6 1.4-4.5 1.4s-3.6-.4-5-1.3l1-1.9c.6.4 1.2.7 1.9.9s1.4.3 2.1.3c1.2 0 2-.3 2.7-.9.6-.6.9-1.5.9-2.6v-.9c-.5.6-1 1.1-1.6 1.5s-1.4.6-2.3.6-1.3-.1-1.9-.4c-.6-.2-1.2-.6-1.6-1-.5-.5-.9-1-1.1-1.7-.3-.7-.4-1.4-.4-2.2s.1-1.6.4-2.2c.3-.7.7-1.2 1.1-1.7.5-.5 1-.8 1.6-1s1.3-.4 1.9-.4c1 0 1.7.2 2.4.6s1.2.8 1.6 1.4v-1.7h2.6v9c0 2-.5 3.5-1.6 4.4zm-1.2-9.6c-.2-.4-.4-.7-.7-1s-.7-.5-1.1-.6-.8-.2-1.3-.2-.9 0-1.3.2c-.4.1-.7.4-1 .6s-.5.6-.7 1-.2.8-.2 1.3 0 .9.3 1.3c.2.4.4.7.7 1s.6.5 1 .6.8.2 1.3.2.9 0 1.3-.2c.4-.1.8-.4 1.1-.6.3-.3.5-.6.7-1s.3-.8.3-1.3 0-.9-.3-1.3z"/><path d="m287.7 121c.6.5 1.3.7 2.1.7s1.2-.1 1.7-.3.9-.6 1.4-1l1.5 1.3c-.5.6-1.2 1.2-1.9 1.5-.7.4-1.6.6-2.7.6s-1.6-.1-2.3-.4-1.3-.7-1.8-1.2-.9-1.1-1.2-1.8-.4-1.5-.4-2.4.1-1.6.4-2.3.7-1.3 1.1-1.9 1.1-1 1.7-1.3c.7-.3 1.4-.5 2.2-.5s1.7.2 2.4.5 1.2.8 1.7 1.3c.4.6.8 1.2 1 1.9s.3 1.5.3 2.3 0 .2 0 .3v.4h-8.3c.2.9.5 1.6 1.1 2.1zm4.6-3.8c0-.4-.1-.8-.3-1.2-.1-.4-.3-.7-.6-.9-.2-.3-.5-.5-.9-.6-.3-.2-.7-.2-1.1-.2-.8 0-1.5.3-2 .8s-.8 1.3-1 2.1h5.8z"/><path d="m316 122.3c-.4.3-.9.6-1.4.8s-1 .4-1.6.5-1.2.2-1.9.2c-1.1 0-2.1-.2-3-.6s-1.7-.9-2.4-1.6-1.2-1.5-1.6-2.4-.6-2-.6-3 .2-2.1.6-3 .9-1.8 1.6-2.5 1.5-1.3 2.4-1.7 2-.6 3.1-.6 1.3 0 1.9.2c.6.1 1.1.3 1.6.5s.9.5 1.3.7c.4.3.8.6 1.1.9l-1.7 1.9c-.6-.6-1.2-1-1.9-1.3s-1.4-.5-2.3-.5-1.4.1-2 .4-1.1.7-1.6 1.1-.8 1-1 1.7c-.2.6-.4 1.3-.4 2.1s.1 1.4.4 2.1c.2.6.6 1.2 1 1.7s1 .9 1.6 1.1 1.3.4 2 .4 1.7-.2 2.4-.5 1.3-.8 1.9-1.4l1.7 1.7c-.4.4-.8.8-1.2 1.1z"/><path d="m329.6 120.3c-.3.7-.7 1.3-1.3 1.9s-1.2 1-1.9 1.3-1.5.5-2.4.5-1.6-.2-2.4-.5-1.4-.7-1.9-1.3c-.5-.5-1-1.2-1.3-1.9s-.4-1.5-.4-2.3.2-1.6.5-2.3.7-1.3 1.3-1.9 1.2-1 1.9-1.3 1.5-.5 2.4-.5 1.7.2 2.4.5 1.4.7 1.9 1.3 1 1.2 1.3 1.9.4 1.5.4 2.3-.2 1.6-.5 2.3zm-2.4-3.7c-.2-.4-.4-.8-.7-1.2-.3-.3-.7-.6-1.1-.8s-.9-.3-1.4-.3-1 0-1.4.3c-.4.2-.8.5-1.1.8s-.5.7-.7 1.1-.2.9-.2 1.4 0 1 .3 1.4c.2.4.4.8.7 1.2.3.3.7.6 1.1.8s.9.3 1.4.3 1 0 1.4-.3c.4-.2.8-.5 1.1-.8s.5-.7.7-1.1.2-.9.2-1.4 0-1-.3-1.4z"/><path d="m342.9 112.6c.6-.4 1.4-.5 2.2-.5 1.2 0 2.2.4 2.9 1.1s1 1.8 1 3.2v7.2h-2.6v-6.4c0-.9-.2-1.6-.6-2-.4-.5-1-.7-1.7-.7s-1.3.2-1.7.7-.7 1.2-.7 2.1v6.4h-2.6v-6.4c0-.9-.2-1.6-.6-2-.4-.5-1-.7-1.7-.7s-1.3.2-1.7.7-.7 1.2-.7 2.1v6.3h-2.6v-11.3h2.6v1.7c.2-.3.4-.5.6-.7s.5-.4.7-.6.6-.3.9-.4.7-.2 1.2-.2c.8 0 1.5.2 2.1.5.6.4 1 .9 1.3 1.5.5-.6 1-1.1 1.6-1.5z"/><path d="m362.4 112.6c.6-.4 1.4-.5 2.2-.5 1.2 0 2.2.4 2.9 1.1s1 1.8 1 3.2v7.2h-2.6v-6.4c0-.9-.2-1.6-.6-2-.4-.5-1-.7-1.7-.7s-1.3.2-1.7.7-.7 1.2-.7 2.1v6.4h-2.6v-6.4c0-.9-.2-1.6-.6-2-.4-.5-1-.7-1.7-.7s-1.3.2-1.7.7-.7 1.2-.7 2.1v6.3h-2.6v-11.3h2.6v1.7c.2-.3.4-.5.6-.7s.5-.4.7-.6.6-.3.9-.4.7-.2 1.2-.2c.8 0 1.5.2 2.1.5.6.4 1 .9 1.3 1.5.5-.6 1-1.1 1.6-1.5z"/><path d="m370.9 110.6v-2.5h2.8v2.5zm.1 13v-11.3h2.6v11.3z"/><path d="m383.8 121.8c-.2.4-.5.8-.9 1.1s-.8.5-1.3.7c-.5.1-1.1.2-1.6.2s-1.6-.1-2.5-.4c-.8-.3-1.6-.7-2.3-1.3l1.2-1.8c.6.5 1.2.8 1.9 1 .6.2 1.2.4 1.8.4s1-.1 1.3-.3.5-.5.5-.9c0-.3 0-.4-.2-.6-.1-.2-.3-.3-.6-.4-.2-.1-.5-.2-.8-.3-.3 0-.6-.2-1-.3s-.8-.3-1.3-.4c-.4-.2-.8-.4-1.1-.6s-.6-.6-.8-.9c-.2-.4-.3-.8-.3-1.4 0-.6.1-1 .3-1.5s.5-.8.9-1.1.8-.5 1.3-.7 1-.2 1.6-.2 1.4.1 2.2.3c.7.2 1.4.5 2 .9l-1 1.8c-.5-.3-1.1-.6-1.6-.8-.6-.2-1.1-.3-1.5-.3s-.9.1-1.2.3-.4.5-.4.8c0 .2 0 .4.2.6.1.1.3.3.6.4.2.1.5.2.8.3s.6.2 1 .3.8.3 1.2.4c.4.2.8.4 1.1.6s.6.6.8.9.3.8.3 1.3c0 .6-.1 1.2-.3 1.6z"/><path d="m393.5 121.8c-.2.4-.5.8-.9 1.1s-.8.5-1.3.7c-.5.1-1.1.2-1.6.2s-1.6-.1-2.5-.4c-.8-.3-1.6-.7-2.3-1.3l1.2-1.8c.6.5 1.2.8 1.9 1 .6.2 1.2.4 1.8.4s1-.1 1.3-.3.5-.5.5-.9c0-.3 0-.4-.2-.6-.1-.2-.3-.3-.6-.4-.2-.1-.5-.2-.8-.3-.3 0-.6-.2-1-.3s-.8-.3-1.3-.4c-.4-.2-.8-.4-1.1-.6s-.6-.6-.8-.9c-.2-.4-.3-.8-.3-1.4 0-.6.1-1 .3-1.5s.5-.8.9-1.1.8-.5 1.3-.7 1-.2 1.6-.2 1.4.1 2.2.3c.7.2 1.4.5 2 .9l-1 1.8c-.5-.3-1.1-.6-1.6-.8-.6-.2-1.1-.3-1.5-.3s-.9.1-1.2.3-.4.5-.4.8c0 .2 0 .4.2.6.1.1.3.3.6.4.2.1.5.2.8.3s.6.2 1 .3.8.3 1.2.4c.4.2.8.4 1.1.6s.6.6.8.9.3.8.3 1.3c0 .6-.1 1.2-.3 1.6z"/><path d="m395.7 110.6v-2.5h2.8v2.5zm.1 13v-11.3h2.6v11.3z"/><path d="m411.9 120.3c-.3.7-.7 1.3-1.3 1.9s-1.2 1-1.9 1.3-1.5.5-2.4.5-1.6-.2-2.4-.5c-.7-.3-1.4-.7-1.9-1.3s-1-1.2-1.3-1.9-.4-1.5-.4-2.3.2-1.6.5-2.3.7-1.3 1.3-1.9 1.2-1 1.9-1.3 1.5-.5 2.4-.5 1.7.2 2.4.5 1.4.7 1.9 1.3 1 1.2 1.3 1.9.4 1.5.4 2.3-.2 1.6-.5 2.3zm-2.4-3.7c-.2-.4-.4-.8-.7-1.2-.3-.3-.7-.6-1.1-.8s-.9-.3-1.4-.3-1 0-1.4.3c-.4.2-.8.5-1.1.8s-.5.7-.7 1.1-.2.9-.2 1.4 0 1 .3 1.4c.2.4.4.8.7 1.2.3.3.7.6 1.1.8s.9.3 1.4.3 1 0 1.4-.3c.4-.2.8-.5 1.1-.8s.5-.7.7-1.1.2-.9.2-1.4 0-1-.3-1.4z"/><path d="m416.7 123.6h-2.6v-11.3h2.6v1.8c.2-.3.4-.5.6-.8s.5-.4.8-.6.6-.3 1-.4.7-.2 1.2-.2c1.3 0 2.3.4 3 1.2s1 1.8 1 3.2v7.2h-2.6v-6.4c0-.9-.2-1.6-.6-2s-1-.7-1.8-.7-1.4.2-1.8.7c-.5.5-.7 1.2-.7 2.1v6.4z"/><path d="m429.6 121c.6.5 1.3.7 2.1.7s1.2-.1 1.7-.3.9-.6 1.4-1l1.5 1.3c-.5.6-1.2 1.2-1.9 1.5s-1.6.6-2.7.6-1.6-.1-2.3-.4-1.3-.7-1.8-1.2-.9-1.1-1.2-1.8-.4-1.5-.4-2.4.1-1.6.4-2.3.7-1.3 1.1-1.9c.5-.5 1.1-1 1.7-1.3.7-.3 1.4-.5 2.2-.5s1.7.2 2.4.5 1.2.8 1.7 1.3c.4.6.8 1.2 1 1.9s.3 1.5.3 2.3 0 .2 0 .3v.4h-8.3c.2.9.5 1.6 1.1 2.1zm4.7-3.8c0-.4-.1-.8-.3-1.2s-.3-.7-.6-.9c-.2-.3-.5-.5-.9-.6-.3-.2-.7-.2-1.1-.2-.8 0-1.5.3-2 .8s-.8 1.3-1 2.1h5.8z"/><path d="m441.2 123.6h-2.6v-11.3h2.6v2.5c.4-.9.9-1.5 1.5-2.1.7-.5 1.5-.7 2.5-.7v2.7h-.1c-.6 0-1.1 0-1.6.3-.5.2-.9.5-1.2.8-.3.4-.6.8-.8 1.4s-.3 1.2-.3 2v4.3z"/></g><path d="m128 98.4v-54.3c0-6.1-3.2-11.7-8.5-14.7l-47-27.1c-5.3-3-11.7-3-17 0l-47 27.1c-5.3 3-8.5 8.7-8.5 14.7v54.3c0 6.1 3.2 11.7 8.5 14.7l47 27.1c5.3 3 11.7 3 17 0l47-27.1c5.3-3 8.5-8.6 8.5-14.7z" fill="#0d4c2d"/><path d="m77.7 79v18.8c0 .8-.9 1.3-1.6 1l-7.8-4.1c-.4-.2-.6-.6-.6-1 .3-5.4-.8-11.9 0-17.1s1.9-4.2 3.4-5.5.1 0 .2-.1l15.9-9.4c.3-.2.5-.6.5-.9v-26.6c-.1-.4-.3-.8-.7-.9l-22.7-12.8c-.3-.2-.7-.2-1.1 0l-22.7 12.9c-.3.2-.5.5-.5.9l-.2 4.3c0 .4-.2.7-.6.9l-7.4 4.2c-.8.4-1.7-.2-1.6-1.1.6-4.1 1.9-12.9 2.3-15.1s.3-.6.5-.8c8.4-4.6 17.7-11.9 26.4-15.6s6.7-1 10.6.9c6.5 3.3 14.4 8 20.7 11.9s7 3.9 7 8.5c0 10.2-.2 21.8-.2 32s-13.6 9.9-19.4 13.9c-.3.2-.5.5-.5.9z" fill="#fff"/><path d="m50.2 79-16.2-9.4c-.7-.4-.7-1.4 0-1.9l7.4-4.7c.4-.2.8-.2 1.2 0 4.5 2.9 10.7 5.3 14.8 8.5s2.7 3.7 3 5.7 0 .1 0 .2l.2 18.5c0 .4.2.7.5.9l23 13.2c.3.2.8.2 1.1 0l22.5-13.2c.3-.2.5-.5.5-.9l.2-26.1c0-.4-.2-.7-.5-.9l-3.6-2.3c-.3-.2-.5-.6-.5-.9v-8.5c.1-.9 1.2-1.4 1.9-.8 3.3 2.6 10.2 8.2 11.9 9.6s.4.5.4.8c-.2 9.6 1.4 21.3.3 30.6s-2.5 6.3-6.1 8.7c-6.1 4-14.2 8.4-20.6 11.9s-6.9 4.1-10.9 1.8c-8.8-5.1-18.7-11.1-27.5-16.2s-1.8-16.7-2.3-23.8c0-.4-.2-.7-.5-.8z" fill="#fff"/><path d="m64.6 55.1 16.3-9.2c.7-.4 1.6 0 1.6.9l.3 8.8c0 .4-.2.8-.6 1-4.8 2.4-10 6.5-14.8 8.5-1.8.7-4.6.4-6.4-.3s-.1 0-.2 0l-16-9.2c-.3-.2-.7-.2-1.1 0l-23.1 13.2c-.3.2-.5.6-.5.9v26.1c0 .4.2.7.5.9l22.4 13.4c.3.2.7.2 1.1 0l3.8-1.9c.3-.2.7-.2 1.1 0l7.3 4.4c.8.5.7 1.6-.2 1.9-3.9 1.5-12.2 4.7-14.3 5.4s-.6 0-.9 0c-8.2-5-19.1-9.6-26.5-15.3s-4.2-5.4-4.4-9.7c-.4-7.3 0-16.5.2-23.8s0-8.1 4-10.3c8.9-5 19.1-10.5 27.9-15.5s15.3 6.9 21.7 10 .7.1 1 0z" fill="#fff"/></svg>