<svg version="1.2" xmlns="http://www.w3.org/2000/svg" viewBox="0 0 1498 171" width="1498" height="171"><style>.a{fill:#020e1d}.b{fill:#e31d2c}</style><path class="a" d="m134.7 0.7c-3.5 4.1-8.6 6.6-12.6 10.2-49.3 43.4-46.4 120.1 5.8 159.6 0.2 0.8-0.9 0.6-1.4 0.5-13.8-2.4-45.2-19.9-57.9-27.8-24.6-15.3-48.8-34.8-68.1-56.2 36.8-38.9 82.8-70.3 134.2-86.3z"/><path class="a" d="m250.6 171.1c51.3-39.7 55.5-117 5.8-160.2l-13.1-10.2c51.6 15.7 97.8 47.6 134.8 86.3 0.6 3.8-41.3 37.6-47.4 42.1-24.3 17.7-51.4 32.8-80.1 42z"/><path class="a" d="m238.3 85.9c0 27.2-22 49.3-49.3 49.3-27.2 0-49.3-22.1-49.3-49.3 0-27.2 22.1-49.3 49.3-49.3 27.3 0 49.3 22.1 49.3 49.3z"/><path class="b" d="m189.3 135c-27.3 0-49.4-22.1-49.4-49.3 0-27.3 22.1-49.4 49.4-49.4 27.2 0 49.3 22.1 49.3 49.4 0 27.2-22.1 49.3-49.3 49.3z"/><path class="b" d="m437.2 1.7v8.9h7.3v43.2h-7.3v8.4h45.9v-18.3h-9.6v9.3h-17.9v-42.6h7.4v-8.9z"/><path fill-rule="evenodd" class="b" d="m511.2 17.7c12.5 0 19.3 9.1 19.3 20.6 0 1.3-0.2 3.7-0.2 3.7h-30.1c0.7 8 6.5 12.1 13 12.1 7.1 0 12.6-4.6 12.6-4.6l4.2 7.6c0 0-6.6 6.1-17.5 6.1-14.4 0-23.4-10.4-23.4-22.8 0-13.3 9-22.7 22.1-22.7zm8.2 17.9c-0.2-6-3.9-9.5-8.5-9.5-5.5 0-9.4 3.8-10.5 9.5z"/><path fill-rule="evenodd" class="b" d="m557.1 71.2c6.6 0 12.3-2.9 12.3-10.9v-2.7c0-1.1 0.1-2.3 0.1-2.3h-0.1c-2.6 3.8-6.3 6-12.1 6-12.6 0-19.5-10-19.5-22 0-11.9 6.7-21.6 19.2-21.6 5.2 0 11.1 2 13.5 6.6h0.1c0 0-0.1-0.6-0.1-1.5 0-2.3 1.5-4.1 4.9-4.1h10.8v8.1h-4.1c-1.1 0-1.9 0.6-1.9 1.7v31c0 14.9-11.6 20.5-22.9 20.5-5.5 0-11.3-1.5-15.5-3.7l3.3-8c0 0 5.4 2.9 12 2.9zm12.5-31.8c0-9.9-4.9-12.5-10.7-12.5-6.6 0-10.2 4.8-10.2 12.1 0 7.6 3.9 13.2 10.9 13.2 5.1 0 10-3 10-12.8z"/><path fill-rule="evenodd" class="b" d="m616.6 35.3h2.7v-1.4c0-5.6-3.5-7.5-8-7.5-6.5 0-12.3 4.2-12.3 4.2l-4-7.5c0 0 6.7-5.4 17.2-5.4 11.7 0 17.9 6 17.9 17.1v17.4c0 1.3 0.7 1.9 1.9 1.9h3.9v8.1h-10.2c-4 0-5.6-2.2-5.6-4.6v-0.5c0-1.4 0.3-2.3 0.3-2.3h-0.2c0 0-3.6 8.4-13.7 8.4-7.4 0-14.4-4.4-14.4-13.2 0-13.3 17.5-14.7 24.5-14.7zm-7.3 19.8c5.9 0 10.1-6.3 10.1-11.8v-1.4h-1.8c-4.3 0-14.6 0.7-14.6 7.2 0 3.3 2.3 6 6.3 6z"/><path class="b" d="m644.8 9.8h-6.7v-8.1h17.5v46c0 3.9 0.8 5.9 4.4 5.9 1.2 0 2 0 2 0v8.6c0 0-1.7 0.3-3.9 0.3-6.9 0-13.3-2.3-13.3-14.1z"/><path class="b" d="m702.1 42.7v4.5c0 3.9 4.9 6.2 10.6 6.2 6.2 0 10.5-2.6 10.5-7.5 0-6.1-6.9-8.1-13.9-10.8-8.1-3.1-16-6.8-16-17.6 0-12.2 9.9-16.8 20.3-16.8 9.5 0 19.1 3.6 19.1 10.6v7.9h-10.1v-4.1c0-3-4.5-4.6-9-4.6-5 0-9 2-9 6.6 0 5.5 5.6 7.5 11.9 9.9 9 3.2 18 6.8 18 18.1 0 12.4-10.4 18.1-21.8 18.1-10 0-20.8-4.5-20.8-13.6v-6.9z"/><path fill-rule="evenodd" class="b" d="m764.5 17.7c12.5 0 19.4 9.1 19.4 20.6 0 1.3-0.3 3.7-0.3 3.7h-30.1c0.7 8 6.5 12.1 13.1 12.1 7 0 12.6-4.6 12.6-4.6l4.1 7.6c0 0-6.6 6.1-17.5 6.1-14.4 0-23.3-10.4-23.3-22.8 0-13.3 9-22.7 22-22.7zm8.2 17.9c-0.2-6-3.8-9.5-8.4-9.5-5.6 0-9.5 3.8-10.5 9.5z"/><path class="b" d="m791.9 54.1h6.3v-25.4c0-1.2-0.7-1.9-1.9-1.9h-4.9v-8.1h11.4c3.8 0 5.8 1.6 5.8 5.3v2.6c0 1.6-0.2 2.7-0.2 2.7h0.2c1.9-6.2 7.1-11.2 13.8-11.2 1 0 1.9 0.2 1.9 0.2v10.6c0 0-1.1-0.1-2.6-0.1-8.8 0-12.7 7.6-12.7 15.8v9.5h6.2v8.1h-23.3z"/><path class="b" d="m827.6 18.7h20.9v8.1h-4.8l7.4 21.5c0.9 2.2 1.2 4.8 1.2 4.8h0.2c0 0 0.3-2.6 1-4.8l7.6-21.5h-4.9v-8.1h20.8v8.1h-5.2l-13.2 35.4h-12.5l-13.2-35.4h-5.3z"/><path class="b" d="m882.3 18.7v8.1h6.8v27.3h-6.3v8.1h23.3v-8.1h-6.2v-35.4zm6.6-7.4h10.9v-9.6h-10.9z"/><path class="b" d="m935.8 17.7c7.3 0 17.8 2.7 17.8 10.4v6h-9.4v-2.9c0-2.9-4.4-4.3-8-4.3-8 0-12.8 5.4-12.8 13.4 0 8.9 6.2 13.8 13.6 13.8 6.2 0 11.2-3.4 13.6-5.3l3.8 7.7c-3 2.8-9.7 6.7-18 6.7-12.7 0-23.9-8.6-23.9-22.7 0-12.9 9.9-22.8 23.3-22.8z"/><path fill-rule="evenodd" class="b" d="m983.1 17.7c12.5 0 19.3 9.1 19.3 20.6 0 1.3-0.2 3.7-0.2 3.7h-30.1c0.7 8 6.5 12.1 13 12.1 7.1 0 12.6-4.6 12.6-4.6l4.2 7.6c0 0-6.6 6.1-17.5 6.1-14.4 0-23.4-10.4-23.4-22.8 0-13.3 9.1-22.7 22.1-22.7zm8.2 17.9c-0.2-6-3.9-9.5-8.5-9.5-5.5 0-9.4 3.8-10.4 9.5z"/><path class="b" d="m1009.5 47.7h9.2v2.5c0 3 4 4.6 8.5 4.6 4.4 0 7.4-1.6 7.4-4.5 0-3.6-4.1-4.6-9.8-6.7-6.4-2.2-13.8-5.2-13.8-13.5 0-9.2 9.2-12.4 17.2-12.4 6.3 0 15.6 2.5 15.6 9v5.6h-9.3v-2.5c0-2.2-2.5-3.6-6.3-3.6-3.4 0-6.3 1.2-6.3 3.9 0 3.6 4.2 5.1 9.1 6.5 6.6 2.1 14.4 4.9 14.4 13.4 0 8.8-8.3 13.2-18.3 13.2-7.9 0-17.6-3.4-17.6-10.5z"/><path fill-rule="evenodd" class="b" d="m1106.6 0.7c17.9 0 31.4 13.5 31.4 30.8 0 17.8-13.5 31.7-31.4 31.7-17.9 0-31.3-13.9-31.3-31.7 0-17.3 13.4-30.8 31.3-30.8zm0 52.7c10.9 0 19.8-9.5 19.8-21.9 0-11.9-8.9-21-19.8-21-10.9 0-19.8 9.1-19.8 21 0 12.4 8.9 21.9 19.8 21.9z"/><path class="b" d="m1143.3 18.7h20.9v8.1h-4.9l7.5 21.5c0.9 2.2 1.1 4.8 1.1 4.8h0.3c0 0 0.3-2.6 1-4.8l7.6-21.5h-4.9v-8.1h20.8v8.1h-5.2l-13.3 35.4h-12.4l-13.2-35.4h-5.3z"/><path fill-rule="evenodd" class="b" d="m1219.6 17.7c12.5 0 19.3 9.1 19.3 20.6 0 1.3-0.3 3.7-0.3 3.7h-30c0.6 8 6.4 12.1 13 12.1 7.1 0 12.6-4.6 12.6-4.6l4.2 7.6c0 0-6.7 6.1-17.6 6.1-14.4 0-23.3-10.4-23.3-22.8 0-13.3 9-22.7 22.1-22.7zm8.1 17.9c-0.1-6-3.8-9.5-8.4-9.5-5.5 0-9.5 3.8-10.5 9.5z"/><path class="b" d="m1246.9 54.1h6.3v-25.4c0-1.2-0.7-1.9-1.9-1.9h-4.8v-8.1h11.3c3.8 0 5.8 1.6 5.8 5.3v2.6c0 1.6-0.2 2.7-0.2 2.7h0.2c2-6.2 7.2-11.2 13.8-11.2 1 0 2 0.2 2 0.2v10.6c0 0-1.2-0.1-2.7-0.1-8.8 0-12.7 7.6-12.7 15.8v9.5h6.2v8.1h-23.3z"/><path class="b" d="m1284.8 47.7h9.2v2.5c0 3 4 4.6 8.5 4.6 4.4 0 7.4-1.6 7.4-4.5 0-3.6-4.1-4.6-9.8-6.7-6.4-2.2-13.8-5.2-13.8-13.5 0-9.2 9.2-12.4 17.2-12.4 6.3 0 15.6 2.5 15.6 9v5.6h-9.3v-2.5c0-2.2-2.5-3.6-6.3-3.6-3.4 0-6.3 1.2-6.3 3.9 0 3.6 4.2 5.1 9.1 6.5 6.6 2.1 14.4 4.9 14.4 13.4 0 8.8-8.3 13.2-18.3 13.2-7.9 0-17.6-3.4-17.6-10.5z"/><path class="b" d="m1328.2 18.7v8.1h6.8v27.3h-6.3v8.1h23.3v-8.1h-6.2v-35.4zm6.6-7.4h10.9v-9.6h-10.9z"/><path fill-rule="evenodd" class="b" d="m1377.6 71.2c6.7 0 12.3-2.9 12.3-10.9v-2.7c0-1.1 0.2-2.3 0.2-2.3h-0.2c-2.5 3.8-6.3 6-12.1 6-12.5 0-19.5-10-19.5-22 0-11.9 6.7-21.6 19.3-21.6 5.2 0 11 2 13.4 6.6h0.2c0 0-0.2-0.6-0.2-1.5 0-2.3 1.6-4.1 5-4.1h10.8v8.1h-4.2c-1.1 0-1.9 0.6-1.9 1.7v31c0 14.9-11.5 20.5-22.9 20.5-5.4 0-11.2-1.5-15.5-3.7l3.3-8c0 0 5.4 2.9 12 2.9zm12.6-31.8c0-9.9-5-12.5-10.8-12.5-6.5 0-10.2 4.8-10.2 12.1 0 7.6 3.9 13.2 10.9 13.2 5.1 0 10.1-3 10.1-12.8z"/><path class="b" d="m1412.4 54.1h6.3v-44.3h-6.7v-8.1h17.5v21.1c0 2.1-0.2 3.7-0.2 3.7h0.1c2.2-4.2 7.5-8.8 15-8.8 9.7 0 15.2 5 15.2 16.5v19.9h6.3v8.1h-17.1v-25.8c0-5.2-1.4-8.8-6.8-8.8-7.7 0-12.5 6.6-12.5 14.6v11.9h6.2v8.1h-23.3z"/><path class="b" d="m1476.5 26.8h-6.7v-8.1h7v-11.8h10.5v11.8h9.9v8.1h-9.9v18.3c0 7.4 5.6 8.5 8.7 8.5 1.2 0 1.9-0.1 1.9-0.1v8.8c0 0-1.3 0.3-3.3 0.3-6.1 0-18.1-1.8-18.1-16.4z"/><path class="b" d="m467.7 108.6c7.4 0 23.6 2.5 23.6 12.1v8.1h-10.1v-4.6c0-4.6-8-6.1-13-6.1-11.6 0-20.1 8.2-20.1 21 0 13.6 8.8 22.4 20.7 22.4 3.7 0 13.2-1.1 13.2-5.9v-4.7h10.1v8.3c0 9-15.6 11.9-23.9 11.9-18.3 0-31.6-13.9-31.6-31.5 0-17.9 13.6-31 31.1-31z"/><path fill-rule="evenodd" class="b" d="m524.1 125.6c13.2 0 23.9 9.5 23.9 22.7 0 13.4-10.7 22.8-23.9 22.8-13.3 0-23.9-9.4-23.9-22.8 0-13.2 10.6-22.7 23.9-22.7zm0 36.3c7 0 12.9-5.5 12.9-13.6 0-8-5.9-13.5-12.9-13.5-7 0-12.9 5.5-12.9 13.5 0 8.1 5.9 13.6 12.9 13.6z"/><path class="b" d="m555.7 162h6.3v-25.5c0-1.2-0.6-1.8-1.8-1.8h-4.9v-8.1h11.3c3.9 0 5.7 1.8 5.7 4.9v1.9c0 1-0.1 1.9-0.1 1.9h0.1c2.3-4.4 7.7-9.7 14.9-9.7 6 0 10.4 2.8 12.1 9.5h0.1c2.4-5.2 8.2-9.5 15.1-9.5 8.8 0 14 5.1 14 16.5v19.9h6.3v8.1h-17.1v-25.9c0-5-1-8.7-6-8.7-7.4 0-11.1 7.4-11.1 15.4v11.1h6.3v8.1h-17v-25.9c0-4.7-0.8-8.7-5.9-8.7-7.7 0-11.1 8.1-11.1 15.9v10.6h6.2v8.1h-23.4z"/><path class="b" d="m641.6 162h6.3v-25.5c0-1.2-0.7-1.8-1.9-1.8h-4.8v-8.1h11.3c3.8 0 5.7 1.8 5.7 4.9v1.9c0 1-0.2 1.9-0.2 1.9h0.2c2.2-4.4 7.7-9.7 14.8-9.7 6.1 0 10.4 2.8 12.1 9.5h0.2c2.4-5.2 8.2-9.5 15.1-9.5 8.7 0 13.9 5.1 13.9 16.5v19.9h6.3v8.1h-17.1v-25.9c0-5-0.9-8.7-5.9-8.7-7.5 0-11.1 7.4-11.1 15.4v11.1h6.3v8.1h-17v-25.9c0-4.7-0.8-8.7-5.9-8.7-7.7 0-11.2 8.1-11.2 15.9v10.6h6.2v8.1h-23.3z"/><path class="b" d="m727 126.6v8.1h6.8v27.3h-6.3v8.1h23.3v-8.1h-6.2v-35.4zm6.6-7.4h10.9v-9.6h-10.9z"/><path class="b" d="m757.3 155.6h9.2v2.5c0 3 4 4.6 8.5 4.6 4.3 0 7.4-1.6 7.4-4.5 0-3.6-4.1-4.6-9.9-6.7-6.4-2.2-13.7-5.2-13.7-13.5 0-9.2 9.2-12.4 17.1-12.4 6.3 0 15.7 2.5 15.7 9v5.6h-9.3v-2.5c0-2.2-2.5-3.6-6.4-3.6-3.4 0-6.3 1.2-6.3 3.9 0 3.6 4.3 5.1 9.1 6.5 6.7 2.1 14.5 4.9 14.5 13.4 0 8.8-8.3 13.2-18.3 13.2-7.9 0-17.6-3.4-17.6-10.5z"/><path class="b" d="m800.2 155.6h9.2v2.5c0 3 4 4.6 8.5 4.6 4.4 0 7.4-1.6 7.4-4.5 0-3.6-4.1-4.6-9.8-6.7-6.4-2.2-13.8-5.2-13.8-13.5 0-9.2 9.2-12.4 17.2-12.4 6.3 0 15.6 2.5 15.6 9v5.6h-9.3v-2.5c0-2.2-2.5-3.6-6.3-3.6-3.4 0-6.3 1.2-6.3 3.9 0 3.6 4.2 5.1 9.1 6.5 6.6 2.1 14.5 4.9 14.5 13.4 0 8.8-8.4 13.2-18.4 13.2-7.9 0-17.6-3.4-17.6-10.5z"/><path class="b" d="m843.6 126.6v8.1h6.8v27.3h-6.3v8.1h23.3v-8.1h-6.2v-35.4zm6.6-7.4h10.9v-9.6h-10.9z"/><path fill-rule="evenodd" class="b" d="m897.7 125.6c13.2 0 23.9 9.5 23.9 22.7 0 13.4-10.7 22.8-23.9 22.8-13.3 0-23.9-9.4-23.9-22.8 0-13.2 10.6-22.7 23.9-22.7zm0 36.3c7 0 12.9-5.5 12.9-13.6 0-8-5.9-13.5-12.9-13.5-7 0-12.9 5.5-12.9 13.5 0 8.1 5.9 13.6 12.9 13.6z"/><path class="b" d="m929.3 162h6.3v-25.4c0-1.2-0.6-1.9-1.8-1.9h-4.9v-8.1h11.4c3.9 0 5.6 1.8 5.6 4.9v1.9c0 1-0.1 1.9-0.1 1.9h0.1c0.6-1.4 5.2-9.7 16.1-9.7 9.2 0 14.5 5 14.5 16.5v19.9h6.3v8.1h-17v-25.8c0-5.2-1.5-8.8-6.9-8.8-7.8 0-12.4 7.5-12.4 15.1v11.4h6.2v8.1h-23.4z"/><path fill-rule="evenodd" class="b" d="m1010.8 125.6c12.5 0 19.3 9.1 19.3 20.6 0 1.3-0.2 3.7-0.2 3.7h-30.1c0.7 8 6.5 12.1 13 12.1 7.1 0 12.6-4.6 12.6-4.6l4.2 7.6c0 0-6.6 6.1-17.5 6.1-14.4 0-23.4-10.4-23.4-22.8 0-13.3 9-22.7 22.1-22.7zm8.2 17.9c-0.2-6-3.9-9.6-8.5-9.6-5.5 0-9.4 3.9-10.5 9.6z"/><path class="b" d="m1038.1 162h6.3v-25.4c0-1.2-0.7-1.9-1.9-1.9h-4.8v-8.1h11.3c3.9 0 5.8 1.6 5.8 5.3v2.6c0 1.6-0.2 2.7-0.2 2.7h0.2c2-6.2 7.2-11.2 13.8-11.2 1 0 2 0.2 2 0.2v10.6c0 0-1.1-0.1-2.7-0.1-8.7 0-12.7 7.6-12.7 15.8v9.5h6.3v8.1h-23.4z"/><path class="b" d="m1099.5 109.6v8.4h7.3v43.7h-7.3v8.4h26.4v-8.4h-8v-16.3h19.7v-9h-19.7v-17.4h15.3v6.3h9.5v-15.7z"/><path fill-rule="evenodd" class="b" d="m1171.3 125.6c13.2 0 23.9 9.5 23.9 22.7 0 13.4-10.7 22.8-23.9 22.8-13.3 0-23.9-9.4-23.9-22.8 0-13.2 10.6-22.7 23.9-22.7zm0 36.3c7 0 12.9-5.5 12.9-13.6 0-8-5.9-13.5-12.9-13.5-7 0-12.9 5.5-12.9 13.5 0 8.1 5.9 13.6 12.9 13.6z"/><path class="b" d="m1202.9 162h6.3v-25.4c0-1.2-0.6-1.9-1.8-1.9h-4.9v-8.1h11.3c3.9 0 5.8 1.6 5.8 5.3v2.6c0 1.6-0.1 2.7-0.1 2.7h0.1c2-6.2 7.2-11.2 13.8-11.2 1.1 0 2 0.2 2 0.2v10.6c0 0-1.1-0.1-2.7-0.1-8.7 0-12.6 7.6-12.6 15.8v9.5h6.2v8.1h-23.4z"/><path class="b" d="m1264.4 161.7h7.2v-43.7h-7.2v-8.4h18.4l25.4 38.9c1.2 2 2.2 5.1 2.2 5.1h0.3c0 0-0.4-3.5-0.3-5.7v-29.9h-7.5v-8.4h25.9v8.4h-7.3v52.1h-11.1l-25.5-38.8c-1.2-2-2.2-5.1-2.2-5.1h-0.4c0 0 0.5 3.4 0.5 5.6v29.9h7.4v8.4h-25.8z"/><path class="b" d="m1337.4 109.6v8.4h7.3v43.7h-7.3v8.4h25.8v-8.4h-7.4v-43.7h7.4v-8.4z"/></svg>