<svg version="1.2" xmlns="http://www.w3.org/2000/svg" viewBox="0 0 1500 439" width="1500" height="439"><style>.a{fill:#020e1d}.b{fill:#e31d2c}</style><path class="a" d="m189.9 1.9c-5 5.8-12.2 9.3-17.9 14.4-69.4 61.2-65.3 169.2 8.3 224.9 0.2 1.1-1.3 0.9-2.1 0.7-19.4-3.4-63.6-28.1-81.5-39.2-34.6-21.6-68.7-49-96-79.3 51.9-54.8 116.7-98.9 189.2-121.5z"/><path class="a" d="m353.1 242c72.3-55.9 78.3-164.8 8.2-225.7l-18.5-14.4c72.8 22.2 137.8 67.1 189.9 121.6 0.9 5.3-58.2 53-66.7 59.3-34.2 24.9-72.4 46.3-112.9 59.2z"/><path class="a" d="m611 207.9h28.3v-168.7h-28.3v-34.9h100.4v34.9h-28.6v166.3h69.9v-36.6h37.2v71.5h-178.9z"/><path class="a" d="m853.8 164.3v17.6c0 15.3 19.3 24.3 41.5 24.3 24 0 41-10.3 41-29.3 0-23.9-27-31.6-54.3-42.2-31.6-12-62.5-26.3-62.5-68.5 0-47.6 38.6-65.9 79.2-65.9 37.2 0 74.8 14.3 74.8 41.6v30.9h-39.6v-15.9c0-12-17.6-18.3-35.2-18.3-19.3 0-35.3 7.9-35.3 25.9 0 21.6 22 29.3 46.6 38.6 35.2 12.6 70.5 26.6 70.5 70.8 0 48.3-40.6 70.5-85.2 70.5-39.2 0-81.1-17.6-81.1-53.2v-26.9z"/><path fill-rule="evenodd" class="a" d="m1132.5 0.3c69.8 0 122.3 52.9 122.3 120.4 0 69.5-52.5 123.7-122.3 123.7-69.9 0-122.4-54.2-122.4-123.7 0-67.5 52.5-120.4 122.4-120.4zm0 205.9c42.5 0 77.4-36.9 77.4-85.5 0-46.5-34.9-82.1-77.4-82.1-42.6 0-77.5 35.6-77.5 82.1 0 48.6 34.9 85.5 77.5 85.5z"/><path class="a" d="m1404.8 0.3c28.6 0 92.1 10 92.1 47.2v32h-39.5v-18.3c0-17.6-31.3-23.6-50.6-23.6-45.6 0-78.8 31.9-78.8 81.8 0 53.2 34.6 87.8 81.1 87.8 14.3 0 51.3-4.7 51.3-23.3v-18.3h39.5v32.3c0 35.2-60.8 46.5-93.4 46.5-71.5 0-123.4-54.2-123.4-123 0-69.9 53.2-121.1 121.7-121.1z"/><path class="b" d="m335.8 122c0 38.3-31.1 69.4-69.5 69.4-38.3 0-69.4-31.1-69.4-69.4 0-38.4 31.1-69.5 69.4-69.5 38.4 0 69.5 31.1 69.5 69.5z"/><path class="b" d="m613.3 341.3h6v-36h-6v-7.4h21.4v7.4h-6.1v35.5h14.9v-7.8h8v15.3h-38.2z"/><path fill-rule="evenodd" class="b" d="m674.9 311.2c10.5 0 16.1 7.6 16.1 17.2 0 1.1-0.2 3.1-0.2 3.1h-25c0.5 6.6 5.4 10 10.8 10 5.9 0 10.5-3.8 10.5-3.8l3.5 6.4c0 0-5.5 5-14.6 5-12 0-19.5-8.6-19.5-18.9 0-11.2 7.6-19 18.4-19zm6.8 14.9c-0.1-4.9-3.2-7.9-7-7.9-4.6 0-7.9 3.2-8.7 7.9z"/><path fill-rule="evenodd" class="b" d="m713.2 355.8c5.5 0 10.2-2.4 10.2-9.1v-2.2c0-0.9 0.1-2 0.1-2h-0.1c-2.1 3.2-5.3 5.1-10.1 5.1-10.4 0-16.2-8.4-16.2-18.3 0-10 5.6-18.1 16-18.1 4.3 0 9.2 1.7 11.2 5.5h0.2c0 0-0.2-0.5-0.2-1.2 0-1.9 1.3-3.4 4.1-3.4h9.1v6.7h-3.5c-0.9 0-1.6 0.5-1.6 1.4v25.9c0 12.4-9.6 17.1-19.1 17.1-4.5 0-9.4-1.3-12.9-3.1l2.8-6.7c0 0 4.4 2.4 10 2.4zm10.4-26.5c0-8.2-4.1-10.4-8.9-10.4-5.5 0-8.6 4-8.6 10.1 0 6.3 3.3 11 9.1 11 4.3 0 8.4-2.5 8.4-10.7z"/><path fill-rule="evenodd" class="b" d="m762.7 325.9h2.3v-1.2c0-4.6-2.9-6.2-6.7-6.2-5.4 0-10.2 3.5-10.2 3.5l-3.3-6.3c0 0 5.6-4.5 14.3-4.5 9.7 0 14.9 5.1 14.9 14.3v14.5c0 1 0.6 1.5 1.6 1.5h3.2v6.8h-8.5c-3.3 0-4.6-1.8-4.6-3.8v-0.5c0-1.1 0.2-1.8 0.2-1.8h-0.1c0 0-3.1 6.9-11.4 6.9-6.2 0-12-3.6-12-11 0-11 14.5-12.2 20.3-12.2zm-6 16.5c4.9 0 8.4-5.3 8.4-9.8v-1.2h-1.5c-3.6 0-12.2 0.6-12.2 6 0 2.7 2 5 5.3 5z"/><path class="b" d="m786.3 304.6h-5.6v-6.7h14.5v38.3c0 3.3 0.7 5 3.7 5 1 0 1.7-0.1 1.7-0.1v7.3c0 0-1.5 0.2-3.2 0.2-5.8 0-11.1-1.9-11.1-11.8z"/><path class="b" d="m834 332v3.8c0 3.3 4.1 5.2 8.9 5.2 5.1 0 8.7-2.2 8.7-6.3 0-5.1-5.7-6.7-11.6-9-6.7-2.5-13.3-5.6-13.3-14.6 0-10.2 8.2-14.1 16.9-14.1 7.9 0 16 3.1 16 8.9v6.6h-8.5v-3.4c0-2.6-3.8-3.9-7.5-3.9-4.1 0-7.5 1.7-7.5 5.5 0 4.6 4.6 6.3 9.9 8.3 7.5 2.7 15 5.6 15 15.1 0 10.3-8.6 15-18.1 15-8.4 0-17.4-3.7-17.4-11.3v-5.8z"/><path fill-rule="evenodd" class="b" d="m886 311.2c10.5 0 16.1 7.6 16.1 17.2 0 1.1-0.2 3.1-0.2 3.1h-25c0.5 6.6 5.4 10 10.8 10 5.9 0 10.5-3.8 10.5-3.8l3.5 6.4c0 0-5.5 5-14.6 5-12 0-19.5-8.6-19.5-18.9 0-11.2 7.6-19 18.4-19zm6.8 14.9c-0.1-4.9-3.2-7.9-7-7.9-4.6 0-7.9 3.2-8.7 7.9z"/><path class="b" d="m908.8 341.5h5.3v-21.1c0-1-0.6-1.6-1.6-1.6h-4v-6.7h9.4c3.2 0 4.8 1.3 4.8 4.4v2.1c0 1.4-0.1 2.3-0.1 2.3h0.1c1.7-5.2 6-9.3 11.5-9.3 0.9 0 1.7 0.1 1.7 0.1v8.9c0 0-1-0.1-2.2-0.1-7.4 0-10.6 6.3-10.6 13.2v7.8h5.2v6.8h-19.5z"/><path class="b" d="m938.6 312.1h17.4v6.7h-4l6.2 17.9c0.7 1.9 0.9 4 0.9 4h0.3c0 0 0.2-2.1 0.8-4l6.3-17.9h-4.1v-6.7h17.4v6.7h-4.3l-11.1 29.5h-10.4l-11-29.5h-4.4z"/><path class="b" d="m989.7 297.9h9.1v8h-9.1zm-5.1 43.7h5.2v-22.8h-5.6v-6.7h14.6v29.5h5.2v6.7h-19.4z"/><path class="b" d="m1028.8 311.2c6 0 14.8 2.3 14.8 8.7v5h-7.8v-2.5c0-2.4-3.7-3.5-6.7-3.5-6.6 0-10.7 4.5-10.7 11.1 0 7.5 5.2 11.5 11.4 11.5 5.1 0 9.3-2.8 11.3-4.4l3.1 6.4c-2.4 2.4-8 5.6-14.9 5.6-10.6 0-20-7.1-20-18.8 0-10.8 8.3-19.1 19.5-19.1z"/><path fill-rule="evenodd" class="b" d="m1068.2 311.2c10.4 0 16.1 7.6 16.1 17.2 0 1.1-0.2 3.1-0.2 3.1h-25.1c0.6 6.6 5.4 10 10.9 10 5.9 0 10.5-3.8 10.5-3.8l3.5 6.4c0 0-5.6 5-14.7 5-12 0-19.4-8.6-19.4-18.9 0-11.2 7.5-19 18.4-19zm6.8 14.9c-0.2-4.9-3.2-7.9-7-7.9-4.7 0-7.9 3.2-8.8 7.9z"/><path class="b" d="m1090.2 336.2h7.6v2.1c0 2.5 3.4 3.8 7.1 3.8 3.7 0 6.2-1.3 6.2-3.7 0-3-3.4-3.8-8.2-5.6-5.3-1.8-11.5-4.3-11.5-11.2 0-7.7 7.7-10.4 14.3-10.4 5.3 0 13.1 2.1 13.1 7.6v4.6h-7.8v-2.1c0-1.8-2.1-3-5.3-3-2.8 0-5.2 1-5.2 3.3 0 3 3.5 4.2 7.6 5.4 5.5 1.8 12 4 12 11.1 0 7.3-6.9 11-15.2 11-6.6 0-14.7-2.8-14.7-8.7z"/><path fill-rule="evenodd" class="b" d="m1171.1 297c14.9 0 26.1 11.3 26.1 25.7 0 14.9-11.2 26.4-26.1 26.4-14.9 0-26.1-11.5-26.1-26.4 0-14.4 11.2-25.7 26.1-25.7zm0 44c9.1 0 16.5-7.9 16.5-18.3 0-9.9-7.4-17.5-16.5-17.5-9.1 0-16.5 7.6-16.5 17.5 0 10.4 7.4 18.3 16.5 18.3z"/><path class="b" d="m1201.7 312.1h17.4v6.7h-4.1l6.3 17.9c0.7 1.9 0.9 4 0.9 4h0.2c0 0 0.2-2.1 0.9-4l6.3-17.9h-4.1v-6.7h17.4v6.7h-4.4l-11 29.5h-10.4l-11-29.5h-4.4z"/><path fill-rule="evenodd" class="b" d="m1265.2 311.2c10.4 0 16.1 7.6 16.1 17.2 0 1.1-0.2 3.1-0.2 3.1h-25c0.5 6.6 5.4 10 10.8 10 5.9 0 10.5-3.8 10.5-3.8l3.5 6.4c0 0-5.5 5-14.6 5-12 0-19.5-8.6-19.5-18.9 0-11.2 7.6-19 18.4-19zm6.8 14.9c-0.1-4.9-3.2-7.9-7-7.9-4.6 0-7.9 3.2-8.7 7.9z"/><path class="b" d="m1288 341.5h5.3v-21.1c0-1-0.6-1.6-1.6-1.6h-4v-6.7h9.4c3.2 0 4.8 1.3 4.8 4.4v2.1c0 1.4-0.1 2.3-0.1 2.3h0.1c1.7-5.2 6-9.3 11.5-9.3 0.9 0 1.6 0.1 1.6 0.1v8.9c0 0-0.9-0.1-2.1-0.1-7.4 0-10.6 6.3-10.6 13.2v7.8h5.2v6.8h-19.5z"/><path class="b" d="m1319.6 336.2h7.7v2.1c0 2.5 3.3 3.8 7.1 3.8 3.6 0 6.1-1.3 6.1-3.7 0-3-3.4-3.8-8.2-5.6-5.3-1.8-11.4-4.3-11.4-11.2 0-7.7 7.6-10.4 14.2-10.4 5.3 0 13.1 2.1 13.1 7.6v4.6h-7.7v-2.1c0-1.8-2.2-3-5.4-3-2.8 0-5.2 1-5.2 3.3 0 3 3.5 4.2 7.6 5.4 5.5 1.8 12 4 12 11.1 0 7.3-6.9 11-15.2 11-6.6 0-14.7-2.8-14.7-8.7z"/><path class="b" d="m1361.3 297.9h9.1v8h-9.1zm-5.1 43.7h5.2v-22.8h-5.6v-6.7h14.6v29.5h5.2v6.7h-19.4z"/><path fill-rule="evenodd" class="b" d="m1397 355.8c5.5 0 10.2-2.4 10.2-9.1v-2.2c0-0.9 0.1-2 0.1-2h-0.1c-2.1 3.2-5.3 5.1-10.1 5.1-10.4 0-16.3-8.4-16.3-18.3 0-10 5.7-18.1 16.1-18.1 4.3 0 9.2 1.7 11.2 5.5h0.1c0 0-0.1-0.5-0.1-1.2 0-1.9 1.3-3.4 4.1-3.4h9v6.7h-3.4c-1 0-1.6 0.5-1.6 1.4v25.9c0 12.4-9.7 17.1-19.1 17.1-4.5 0-9.4-1.3-12.9-3.1l2.7-6.7c0 0 4.5 2.4 10.1 2.4zm10.4-26.5c0-8.2-4.1-10.4-9-10.4-5.4 0-8.5 4-8.5 10.1 0 6.3 3.3 11 9.1 11 4.3 0 8.4-2.5 8.4-10.7z"/><path class="b" d="m1425.9 341.5h5.3v-36.9h-5.6v-6.7h14.6v17.6c0 1.8-0.2 3-0.2 3h0.1c1.8-3.4 6.3-7.3 12.5-7.3 8 0 12.7 4.2 12.7 13.8v16.5h5.2v6.8h-14.3v-21.5c0-4.4-1.1-7.3-5.6-7.3-6.4 0-10.4 5.5-10.4 12.2v9.8h5.2v6.8h-19.5z"/><path class="b" d="m1479.3 318.8h-5.5v-6.7h5.8v-9.9h8.7v9.9h8.2v6.7h-8.2v15.3c0 6.2 4.7 7 7.3 7 0.9 0 1.6-0.1 1.6-0.1v7.4c0 0-1.1 0.2-2.8 0.2-5.1 0-15.1-1.5-15.1-13.6z"/><path class="b" d="m638.7 386.9c6.1 0 19.7 2.2 19.7 10.1v6.8h-8.5v-3.9c0-3.7-6.6-5-10.8-5-9.7 0-16.8 6.8-16.8 17.5 0 11.3 7.4 18.7 17.3 18.7 3.1 0 11-1 11-5v-3.9h8.4v6.9c0 7.5-13 9.9-19.9 9.9-15.3 0-26.4-11.5-26.4-26.2 0-14.9 11.4-25.9 26-25.9z"/><path fill-rule="evenodd" class="b" d="m685.6 401.1c11.1 0 20 7.9 20 19 0 11.1-8.9 18.9-19.9 18.9-11.1 0-19.9-7.8-19.9-18.9 0-11.1 8.8-19 19.8-19zm0.1 30.3c5.8 0 10.7-4.6 10.7-11.3 0-6.7-4.9-11.3-10.7-11.3-5.9 0-10.8 4.6-10.8 11.3 0 6.7 4.9 11.3 10.8 11.3z"/><path class="b" d="m712 431.5h5.3v-21.3c0-1-0.6-1.5-1.6-1.5h-4v-6.7h9.4c3.2 0 4.8 1.5 4.8 4v1.7c0 0.8-0.2 1.5-0.2 1.5h0.2c1.8-3.7 6.4-8.1 12.3-8.1 5.1 0 8.7 2.4 10.1 7.9h0.2c1.9-4.2 6.8-7.9 12.5-7.9 7.3 0 11.7 4.3 11.7 13.8v16.6h5.2v6.7h-14.3v-21.6c0-4.1-0.7-7.2-4.9-7.2-6.2 0-9.2 6.2-9.2 12.8v9.3h5.2v6.7h-14.2v-21.6c0-3.9-0.6-7.2-4.9-7.2-6.4 0-9.3 6.7-9.3 13.3v8.8h5.2v6.7h-19.5z"/><path class="b" d="m783.6 431.5h5.2v-21.3c0-1-0.5-1.5-1.5-1.5h-4.1v-6.7h9.5c3.2 0 4.7 1.5 4.7 4v1.7c0 0.8-0.1 1.5-0.1 1.5h0.1c1.9-3.7 6.4-8.1 12.4-8.1 5 0 8.6 2.4 10.1 7.9h0.1c2-4.2 6.8-7.9 12.6-7.9 7.3 0 11.6 4.3 11.6 13.8v16.6h5.3v6.7h-14.3v-21.6c0-4.1-0.8-7.2-5-7.2-6.2 0-9.2 6.2-9.2 12.8v9.3h5.3v6.7h-14.2v-21.6c0-3.9-0.7-7.2-4.9-7.2-6.4 0-9.3 6.7-9.3 13.3v8.8h5.1v6.7h-19.4z"/><path class="b" d="m854.8 402v6.7h5.6v22.8h-5.2v6.7h19.4v-6.7h-5.2v-29.5zm5.5-6.2h9.1v-8h-9.1z"/><path class="b" d="m880 426.1h7.7v2.2c0 2.4 3.3 3.7 7.1 3.7 3.6 0 6.1-1.3 6.1-3.7 0-3-3.4-3.8-8.2-5.6-5.3-1.8-11.4-4.3-11.4-11.2 0-7.7 7.6-10.4 14.2-10.4 5.3 0 13.1 2.1 13.1 7.6v4.6h-7.7v-2.1c0-1.8-2.2-3-5.4-3-2.8 0-5.2 1-5.2 3.3 0 3 3.5 4.2 7.6 5.4 5.5 1.8 12 4 12 11.1 0 7.4-6.9 11-15.2 11-6.6 0-14.7-2.8-14.7-8.7z"/><path class="b" d="m915.8 426.1h7.6v2.2c0 2.4 3.4 3.7 7.1 3.7 3.6 0 6.2-1.3 6.2-3.7 0-3-3.4-3.8-8.2-5.6-5.4-1.8-11.5-4.3-11.5-11.2 0-7.7 7.7-10.4 14.3-10.4 5.3 0 13.1 2.1 13.1 7.6v4.6h-7.8v-2.1c0-1.8-2.1-3-5.3-3-2.8 0-5.2 1-5.2 3.3 0 3 3.5 4.2 7.5 5.4 5.6 1.8 12.1 4 12.1 11.1 0 7.4-6.9 11-15.2 11-6.6 0-14.7-2.8-14.7-8.7z"/><path class="b" d="m952 402v6.7h5.6v22.8h-5.3v6.7h19.5v-6.7h-5.2v-29.5zm5.5-6.2h9.1v-8h-9.1z"/><path fill-rule="evenodd" class="b" d="m997 401.1c11 0 19.9 7.9 19.9 19 0 11.1-8.9 18.9-19.9 18.9-11 0-19.9-7.8-19.9-18.9 0-11.1 8.9-19 19.9-19zm0 30.3c5.9 0 10.8-4.6 10.8-11.3 0-6.7-4.9-11.3-10.8-11.3-5.9 0-10.8 4.6-10.8 11.3 0 6.7 4.9 11.3 10.8 11.3z"/><path class="b" d="m1023.4 431.5h5.2v-21.2c0-1-0.5-1.6-1.5-1.6h-4.1v-6.7h9.5c3.2 0 4.7 1.5 4.7 4v1.7c0 0.8-0.1 1.5-0.1 1.5h0.1c0.4-1.1 4.3-8.1 13.4-8.1 7.7 0 12.1 4.2 12.1 13.8v16.6h5.2v6.7h-14.2v-21.4c0-4.4-1.1-7.4-5.7-7.4-6.5 0-10.4 6.2-10.4 12.5v9.6h5.2v6.7h-19.4z"/><path fill-rule="evenodd" class="b" d="m1091.2 401.1c10.5 0 16.1 7.6 16.1 17.2 0 1.1-0.2 3.1-0.2 3.1h-25c0.5 6.6 5.4 10.1 10.8 10.1 5.9 0 10.5-3.9 10.5-3.9l3.5 6.4c0 0-5.5 5-14.6 5-12 0-19.4-8.6-19.4-18.9 0-11.1 7.5-19 18.3-19zm6.8 14.9c-0.1-4.9-3.1-7.9-7-7.9-4.6 0-7.9 3.2-8.7 7.9z"/><path class="b" d="m1114 431.5h5.3v-21.2c0-1-0.6-1.6-1.6-1.6h-4v-6.7h9.4c3.2 0 4.8 1.3 4.8 4.4v2.1c0 1.4-0.1 2.3-0.1 2.3h0.1c1.7-5.2 6-9.3 11.5-9.3 0.9 0 1.7 0.1 1.7 0.1v8.9c0 0-1-0.1-2.2-0.1-7.3 0-10.6 6.4-10.6 13.2v7.9h5.2v6.7h-19.5z"/><path class="b" d="m1165.2 387.8v7h6v36.4h-6v7h22v-7h-6.7v-13.6h16.4v-7.4h-16.4v-14.5h12.7v5.2h8v-13.1z"/><path fill-rule="evenodd" class="b" d="m1225 401.1c11 0 19.9 7.9 19.9 19 0 11.1-8.9 18.9-19.9 18.9-11 0-19.9-7.8-19.9-18.9 0-11.1 8.9-19 19.9-19zm0 30.3c5.9 0 10.8-4.6 10.8-11.3 0-6.7-4.9-11.3-10.8-11.3-5.9 0-10.8 4.6-10.8 11.3 0 6.7 4.9 11.3 10.8 11.3z"/><path class="b" d="m1251.4 431.5h5.2v-21.2c0-1-0.5-1.6-1.5-1.6h-4.1v-6.7h9.5c3.2 0 4.8 1.3 4.8 4.4v2.1c0 1.4-0.2 2.3-0.2 2.3h0.2c1.6-5.2 5.9-9.3 11.5-9.3 0.8 0 1.6 0.1 1.6 0.1v8.9c0 0-0.9-0.1-2.2-0.1-7.3 0-10.6 6.4-10.6 13.2v7.9h5.2v6.7h-19.4z"/><path class="b" d="m1302.6 431.2h6v-36.4h-6v-7h15.3l21.2 32.4c1 1.7 1.9 4.3 1.9 4.3h0.2c0 0-0.4-2.9-0.3-4.8v-24.9h-6.3v-7h21.6v7h-6v43.4h-9.3l-21.2-32.3c-1-1.7-1.9-4.3-1.9-4.3h-0.3c0 0 0.5 2.9 0.4 4.7v24.9h6.2v7h-21.5z"/><path class="b" d="m1363.5 387.8v7h6v36.4h-6v7h21.4v-7h-6.1v-36.4h6.1v-7z"/></svg>