<svg version="1.2" xmlns="http://www.w3.org/2000/svg" viewBox="0 0 1513 171" width="1513" height="171"><style>.a{fill:#020e1d}.b{fill:#e31d2c}</style><path class="a" d="m134.7 0.7c-3.5 4.1-8.6 6.6-12.6 10.2-49.3 43.4-46.4 120.1 5.8 159.6 0.2 0.8-0.9 0.6-1.4 0.5-13.8-2.4-45.2-19.9-57.9-27.8-24.6-15.3-48.8-34.8-68.1-56.2 36.8-38.9 82.8-70.3 134.2-86.3z"/><path class="a" d="m250.6 171.1c51.3-39.7 55.5-117 5.8-160.2l-13.1-10.2c51.6 15.7 97.8 47.6 134.8 86.3 0.6 3.8-41.3 37.6-47.4 42.1-24.3 17.7-51.4 32.8-80.1 42z"/><path class="b" d="m238.3 85.9c0 27.2-22 49.3-49.3 49.3-27.2 0-49.3-22.1-49.3-49.3 0-27.2 22.1-49.3 49.3-49.3 27.3 0 49.3 22.1 49.3 49.3z"/><path class="b" d="m437.5 55.7h7.5v-44.7h-7.5v-9.3h26.6v9.3h-7.6v44h18.5v-9.7h9.9v19h-47.4z"/><path fill-rule="evenodd" class="b" d="m513 18.3c13 0 20 9.4 20 21.3 0 1.3-0.2 3.8-0.2 3.8h-31.1c0.7 8.3 6.7 12.5 13.4 12.5 7.3 0 13.1-4.7 13.1-4.7l4.3 7.9c0 0-6.9 6.2-18.2 6.2-14.8 0-24.1-10.7-24.1-23.5 0-13.8 9.3-23.5 22.8-23.5zm8.5 18.5c-0.2-6.2-4-9.9-8.7-9.9-5.8 0-9.8 4-10.9 9.9z"/><path fill-rule="evenodd" class="b" d="m559.5 73.6c6.9 0 12.7-3 12.7-11.3v-2.8c0-1 0.2-2.4 0.2-2.4h-0.2c-2.6 4-6.5 6.3-12.5 6.3-12.9 0-20.2-10.4-20.2-22.7 0-12.4 7-22.4 20-22.4 5.3 0 11.4 2 13.9 6.8h0.2c0 0-0.2-0.6-0.2-1.5 0-2.4 1.6-4.3 5.1-4.3h11.2v8.4h-4.3c-1.2 0-2 0.6-2 1.8v32.1c0 15.4-12 21.2-23.7 21.2-5.6 0-11.6-1.6-16-3.9l3.4-8.3c0 0 5.6 3 12.4 3zm13-32.8c0-10.3-5.1-13-11.1-13-6.8 0-10.6 4.9-10.6 12.5 0 7.9 4.1 13.7 11.3 13.7 5.3 0 10.4-3.1 10.4-13.2z"/><path fill-rule="evenodd" class="b" d="m620.1 36.5h2.8v-1.5c0-5.7-3.6-7.7-8.3-7.7-6.7 0-12.7 4.3-12.7 4.3l-4.1-7.8c0 0 6.9-5.5 17.8-5.5 12.1 0 18.5 6.2 18.5 17.7v18c0 1.3 0.7 1.9 1.9 1.9h4.1v8.4h-10.6c-4.1 0-5.7-2.2-5.7-4.8v-0.5c0-1.4 0.2-2.3 0.2-2.3h-0.1c0 0-3.8 8.6-14.2 8.6-7.7 0-14.9-4.4-14.9-13.6 0-13.8 18.1-15.2 25.3-15.2zm-7.5 20.5c6.1 0 10.4-6.5 10.4-12.2v-1.5h-1.9c-4.4 0-15 0.7-15 7.5 0 3.4 2.3 6.2 6.5 6.2z"/><path class="b" d="m648.4 10.1h-7v-8.4h18.1v47.6c0 4.1 0.8 6.2 4.6 6.2 1.2 0 2.1-0.1 2.1-0.1v9c0 0-1.9 0.2-4.1 0.2-7.1 0-13.7-2.3-13.7-14.6z"/><path class="b" d="m705.6 44.1v4.7c0 4 5.2 6.4 11.1 6.4 6.3 0 10.8-2.7 10.8-7.7 0-6.4-7.1-8.4-14.4-11.2-8.3-3.2-16.5-7-16.5-18.2 0-12.6 10.2-17.4 20.9-17.4 9.9 0 19.9 3.8 19.9 11v8.2h-10.5v-4.3c0-3.1-4.7-4.8-9.4-4.8-5.1 0-9.3 2.1-9.3 6.9 0 5.7 5.8 7.7 12.3 10.2 9.4 3.3 18.7 7 18.7 18.8 0 12.7-10.7 18.6-22.5 18.6-10.4 0-21.5-4.6-21.5-14.1v-7.1z"/><path fill-rule="evenodd" class="b" d="m769.3 18.3c12.9 0 20 9.4 20 21.3 0 1.3-0.3 3.8-0.3 3.8h-31.1c0.7 8.3 6.7 12.5 13.5 12.5 7.3 0 13-4.7 13-4.7l4.3 7.9c0 0-6.8 6.2-18.1 6.2-14.9 0-24.2-10.7-24.2-23.5 0-13.8 9.4-23.5 22.9-23.5zm8.4 18.5c-0.2-6.2-3.9-9.9-8.7-9.9-5.7 0-9.8 4-10.8 9.9z"/><path class="b" d="m796.6 55.9h6.5v-26.2c0-1.3-0.7-2-1.9-2h-5.1v-8.4h11.8c3.9 0 5.9 1.7 5.9 5.5v2.7c0 1.6-0.1 2.8-0.1 2.8h0.1c2.1-6.5 7.4-11.6 14.3-11.6 1.1 0 2 0.2 2 0.2v11c0 0-1.1-0.2-2.7-0.2-9.1 0-13.1 8-13.1 16.4v9.8h6.4v8.4h-24.1z"/><path class="b" d="m832.6 19.3h21.6v8.4h-5l7.7 22.2c0.9 2.3 1.2 5 1.2 5h0.2c0 0 0.3-2.7 1.1-5l7.8-22.2h-5.1v-8.4h21.6v8.4h-5.4l-13.7 36.6h-12.9l-13.6-36.6h-5.5z"/><path class="b" d="m888.7 55.9h6.5v-28.2h-7v-8.4h18.2v36.6h6.4v8.4h-24.1zm6.4-54.2h11.3v10h-11.3z"/><path class="b" d="m942.6 18.3c7.5 0 18.4 2.8 18.4 10.7v6.2h-9.7v-3c0-3-4.6-4.4-8.4-4.4-8.2 0-13.2 5.6-13.2 13.8 0 9.3 6.4 14.3 14.1 14.3 6.4 0 11.6-3.5 14-5.4l4 7.9c-3.1 2.9-10.1 6.9-18.6 6.9-13.1 0-24.8-8.9-24.8-23.4 0-13.4 10.3-23.6 24.2-23.6z"/><path fill-rule="evenodd" class="b" d="m990.5 18.3c13 0 20 9.4 20 21.3 0 1.3-0.2 3.8-0.2 3.8h-31.2c0.8 8.3 6.7 12.5 13.5 12.5 7.3 0 13.1-4.7 13.1-4.7l4.3 7.9c0 0-6.9 6.2-18.2 6.2-14.9 0-24.1-10.7-24.1-23.5 0-13.8 9.3-23.5 22.8-23.5zm8.5 18.5c-0.2-6.2-4-9.9-8.7-9.9-5.8 0-9.8 4-10.9 9.9z"/><path class="b" d="m1016.9 49.3h9.5v2.7c0 3 4.1 4.6 8.8 4.6 4.5 0 7.7-1.6 7.7-4.6 0-3.7-4.3-4.7-10.3-6.9-6.6-2.3-14.1-5.4-14.1-13.9 0-9.6 9.5-12.9 17.7-12.9 6.5 0 16.2 2.5 16.2 9.3v5.8h-9.6v-2.6c0-2.3-2.7-3.7-6.6-3.7-3.6 0-6.6 1.2-6.6 4.1 0 3.7 4.4 5.2 9.5 6.7 6.8 2.2 14.9 5 14.9 13.8 0 9.1-8.6 13.6-18.9 13.6-8.2 0-18.2-3.5-18.2-10.8z"/><path fill-rule="evenodd" class="b" d="m1115.4 0.7c18.5 0 32.4 14 32.4 31.9 0 18.4-13.9 32.7-32.4 32.7-18.5 0-32.5-14.3-32.5-32.7 0-17.9 14-31.9 32.5-31.9zm0 54.5c11.3 0 20.5-9.8 20.5-22.6 0-12.4-9.2-21.8-20.5-21.8-11.3 0-20.6 9.4-20.6 21.8 0 12.8 9.3 22.6 20.6 22.6z"/><path class="b" d="m1152.4 19.3h21.6v8.4h-5.1l7.8 22.2c0.9 2.3 1.1 5 1.1 5h0.3c0 0 0.3-2.7 1.1-5l7.8-22.2h-5.1v-8.4h21.6v8.4h-5.4l-13.7 36.6h-12.9l-13.7-36.6h-5.4z"/><path fill-rule="evenodd" class="b" d="m1230.3 18.3c12.9 0 20 9.4 20 21.3 0 1.3-0.3 3.8-0.3 3.8h-31.1c0.7 8.3 6.7 12.5 13.5 12.5 7.3 0 13-4.7 13-4.7l4.4 7.9c0 0-6.9 6.2-18.2 6.2-14.9 0-24.1-10.7-24.1-23.5 0-13.8 9.3-23.5 22.8-23.5zm8.4 18.5c-0.1-6.2-3.9-9.9-8.7-9.9-5.7 0-9.8 4-10.8 9.9z"/><path class="b" d="m1257.6 55.9h6.5v-26.2c0-1.3-0.7-2-1.9-2h-5v-8.4h11.7c3.9 0 6 1.7 6 5.5v2.7c0 1.6-0.2 2.8-0.2 2.8h0.2c2-6.5 7.4-11.6 14.2-11.6 1.1 0 2.1 0.2 2.1 0.2v11c0 0-1.2-0.2-2.8-0.2-9 0-13.1 8-13.1 16.4v9.8h6.4v8.4h-24.1z"/><path class="b" d="m1295.8 49.3h9.6v2.7c0 3 4.1 4.6 8.8 4.6 4.5 0 7.6-1.6 7.6-4.6 0-3.7-4.2-4.7-10.2-6.9-6.6-2.3-14.2-5.4-14.2-13.9 0-9.6 9.5-12.9 17.7-12.9 6.6 0 16.2 2.5 16.2 9.3v5.8h-9.6v-2.6c0-2.3-2.6-3.7-6.6-3.7-3.5 0-6.5 1.2-6.5 4.1 0 3.7 4.4 5.2 9.4 6.7 6.9 2.2 15 5 15 13.8 0 9.1-8.6 13.6-18.9 13.6-8.2 0-18.3-3.5-18.3-10.8z"/><path class="b" d="m1340.2 55.9h6.6v-28.2h-7v-8.4h18.2v36.6h6.4v8.4h-24.2zm6.5-54.2h11.3v10h-11.3z"/><path fill-rule="evenodd" class="b" d="m1389.9 73.6c6.9 0 12.7-3 12.7-11.3v-2.8c0-1 0.2-2.4 0.2-2.4h-0.2c-2.6 4-6.5 6.3-12.5 6.3-12.9 0-20.2-10.4-20.2-22.7 0-12.4 7-22.4 20-22.4 5.3 0 11.4 2 13.9 6.8h0.2c0 0-0.2-0.6-0.2-1.5 0-2.4 1.6-4.3 5.1-4.3h11.2v8.4h-4.3c-1.2 0-2 0.6-2 1.8v32.1c0 15.4-12 21.2-23.7 21.2-5.6 0-11.6-1.6-16-3.9l3.4-8.3c0 0 5.6 3 12.4 3zm13-32.8c0-10.3-5.1-13-11.1-13-6.8 0-10.6 4.9-10.6 12.5 0 7.9 4.1 13.7 11.3 13.7 5.3 0 10.4-3.1 10.4-13.2z"/><path class="b" d="m1424.9 55.9h6.5v-45.8h-6.9v-8.4h18.1v21.9c0 2.2-0.2 3.8-0.2 3.8h0.1c2.3-4.4 7.8-9.1 15.6-9.1 9.9 0 15.6 5.2 15.6 17.1v20.5h6.6v8.4h-17.8v-26.6c0-5.5-1.4-9.2-7-9.2-7.9 0-12.9 6.9-12.9 15.2v12.2h6.5v8.4h-24.2z"/><path class="b" d="m1490.2 27.7h-6.9v-8.4h7.3v-12.2h10.8v12.2h10.2v8.4h-10.2v19c0 7.6 5.8 8.7 9 8.7 1.2 0 2-0.1 2-0.1v9.2c0 0-1.4 0.2-3.4 0.2-6.4 0-18.8-1.8-18.8-16.9z"/><path class="b" d="m469.1 106.4c7.5 0 24.4 2.7 24.4 12.5v8.5h-10.5v-4.9c0-4.6-8.3-6.2-13.4-6.2-12.1 0-20.9 8.4-20.9 21.7 0 14.1 9.2 23.2 21.5 23.2 3.8 0 13.6-1.2 13.6-6.2v-4.8h10.5v8.5c0 9.4-16.2 12.4-24.8 12.4-19 0-32.7-14.4-32.7-32.6 0-18.5 14.1-32.1 32.3-32.1z"/><path fill-rule="evenodd" class="b" d="m526.3 124c13.8 0 24.8 9.8 24.8 23.6 0 13.8-11 23.5-24.7 23.5-13.7 0-24.7-9.7-24.7-23.5 0-13.8 11-23.6 24.6-23.6zm0.1 37.6c7.2 0 13.3-5.7 13.3-14 0-8.3-6.1-14.1-13.3-14.1-7.3 0-13.4 5.8-13.4 14.1 0 8.3 6.1 14 13.4 14z"/><path class="b" d="m558.1 161.7h6.6v-26.4c0-1.2-0.7-1.8-2-1.8h-5v-8.4h11.7c4 0 5.9 1.8 5.9 5v2c0 1-0.2 2-0.2 2h0.2c2.3-4.6 7.9-10.1 15.4-10.1 6.2 0 10.7 2.9 12.5 9.8h0.1c2.5-5.3 8.5-9.8 15.6-9.8 9.1 0 14.5 5.3 14.5 17.1v20.6h6.5v8.3h-17.7v-26.8c0-5.1-1-8.9-6.2-8.9-7.6 0-11.4 7.6-11.4 15.9v11.5h6.5v8.3h-17.6v-26.8c0-4.8-0.8-8.9-6.1-8.9-7.9 0-11.6 8.3-11.6 16.4v11h6.5v8.3h-24.2z"/><path class="b" d="m646 161.7h6.5v-26.4c0-1.2-0.7-1.8-1.9-1.8h-5.1v-8.4h11.8c3.9 0 5.9 1.8 5.9 5v2c0 1-0.2 2-0.2 2h0.2c2.3-4.6 7.9-10.1 15.3-10.1 6.3 0 10.8 2.9 12.5 9.8h0.2c2.5-5.3 8.4-9.8 15.6-9.8 9.1 0 14.4 5.3 14.4 17.1v20.6h6.6v8.3h-17.8v-26.8c0-5.1-0.9-8.9-6.1-8.9-7.7 0-11.5 7.6-11.5 15.9v11.5h6.5v8.3h-17.6v-26.8c0-4.8-0.8-8.9-6.1-8.9-7.9 0-11.5 8.3-11.5 16.4v11h6.4v8.3h-24.1z"/><path class="b" d="m733.8 161.7h6.6v-28.2h-7v-8.4h18.1v36.6h6.5v8.3h-24.2zm6.5-54.2h11.2v10h-11.2z"/><path class="b" d="m763.7 155h9.5v2.7c0 3.1 4.2 4.7 8.8 4.7 4.5 0 7.7-1.6 7.7-4.6 0-3.8-4.2-4.8-10.2-7-6.6-2.3-14.2-5.4-14.2-13.9 0-9.5 9.5-12.9 17.7-12.9 6.5 0 16.2 2.6 16.2 9.4v5.7h-9.6v-2.6c0-2.2-2.6-3.7-6.6-3.7-3.5 0-6.5 1.3-6.5 4.1 0 3.7 4.4 5.2 9.4 6.7 6.9 2.2 15 5 15 13.8 0 9.1-8.6 13.7-19 13.7-8.1 0-18.2-3.5-18.2-10.9z"/><path class="b" d="m807.1 155h9.6v2.7c0 3.1 4.1 4.7 8.8 4.7 4.5 0 7.6-1.6 7.6-4.6 0-3.8-4.2-4.8-10.2-7-6.6-2.3-14.2-5.4-14.2-13.9 0-9.5 9.6-12.9 17.7-12.9 6.6 0 16.3 2.6 16.3 9.4v5.7h-9.6v-2.6c0-2.2-2.7-3.7-6.7-3.7-3.5 0-6.5 1.3-6.5 4.1 0 3.7 4.4 5.2 9.5 6.7 6.8 2.2 14.9 5 14.9 13.8 0 9.1-8.6 13.7-18.9 13.7-8.2 0-18.3-3.5-18.3-10.9z"/><path class="b" d="m851.6 161.7h6.5v-28.2h-7v-8.4h18.2v36.6h6.4v8.3h-24.1zm6.4-54.2h11.3v10h-11.3z"/><path fill-rule="evenodd" class="b" d="m906 124c13.8 0 24.8 9.8 24.8 23.6 0 13.8-11 23.5-24.7 23.5-13.7 0-24.8-9.7-24.8-23.5 0-13.8 11.1-23.6 24.7-23.6zm0.1 37.6c7.2 0 13.3-5.7 13.3-14 0-8.3-6.1-14.1-13.3-14.1-7.3 0-13.4 5.8-13.4 14.1 0 8.3 6.1 14 13.4 14z"/><path class="b" d="m937.8 161.7h6.5v-26.3c0-1.2-0.7-1.9-1.9-1.9h-5v-8.4h11.8c4 0 5.8 1.8 5.8 5v2c0 1-0.2 2-0.2 2h0.2c0.5-1.4 5.3-10.1 16.6-10.1 9.6 0 15 5.2 15 17.1v20.6h6.6v8.3h-17.7v-26.6c0-5.4-1.5-9.1-7.1-9.1-8.1 0-12.9 7.7-12.9 15.5v11.9h6.5v8.3h-24.2z"/><path fill-rule="evenodd" class="b" d="m1021.1 124c12.9 0 20 9.5 20 21.4 0 1.3-0.3 3.7-0.3 3.7h-31.1c0.7 8.3 6.7 12.6 13.5 12.6 7.3 0 13-4.8 13-4.8l4.4 7.9c0 0-6.9 6.3-18.2 6.3-14.9 0-24.1-10.8-24.1-23.5 0-13.9 9.3-23.6 22.8-23.6zm8.4 18.5c-0.1-6.1-3.9-9.8-8.7-9.8-5.7 0-9.8 3.9-10.8 9.8z"/><path class="b" d="m1048.4 161.7h6.5v-26.3c0-1.2-0.7-1.9-1.9-1.9h-5v-8.4h11.7c4 0 6 1.7 6 5.5v2.6c0 1.7-0.2 2.8-0.2 2.8h0.2c2-6.4 7.4-11.5 14.3-11.5 1 0 2 0.1 2 0.1v11.1c0 0-1.2-0.2-2.8-0.2-9 0-13.1 7.9-13.1 16.4v9.8h6.4v8.3h-24.1z"/><path class="b" d="m1109.6 161.7h6.6v-28.2h-7v-8.4h7v-2c0-14.6 11.6-16.4 17.6-16.4 2.6 0 4.6 0.3 4.6 0.3v9c0 0-1.2-0.3-3.5-0.3-2.5 0-7.5 0.6-7.5 7.1v2.3h10.1v8.4h-10.1v28.2h7.5v8.3h-25.3z"/><path fill-rule="evenodd" class="b" d="m1167.7 124c13.8 0 24.8 9.8 24.8 23.6 0 13.8-11 23.5-24.7 23.5-13.7 0-24.8-9.7-24.8-23.5 0-13.8 11.1-23.6 24.7-23.6zm0.1 37.6c7.2 0 13.3-5.7 13.3-14 0-8.3-6.1-14.1-13.3-14.1-7.3 0-13.4 5.8-13.4 14.1 0 8.3 6.1 14 13.4 14z"/><path class="b" d="m1199.5 161.7h6.5v-26.3c0-1.2-0.7-1.9-1.9-1.9h-5v-8.4h11.7c4 0 6 1.7 6 5.5v2.6c0 1.7-0.2 2.8-0.2 2.8h0.2c2-6.4 7.4-11.5 14.3-11.5 1 0 2 0.1 2 0.1v11.1c0 0-1.2-0.2-2.7-0.2-9.1 0-13.2 7.9-13.2 16.4v9.8h6.5v8.3h-24.2z"/><path class="b" d="m1261.1 161.4h7.5v-45.2h-7.5v-8.7h19l26.4 40.2c1.2 2.1 2.3 5.3 2.3 5.3h0.2c0 0-0.4-3.6-0.3-5.9v-30.9h-7.8v-8.7h26.8v8.7h-7.5v53.8h-11.5l-26.3-40.1c-1.3-2.1-2.3-5.3-2.3-5.3h-0.4c0 0 0.5 3.6 0.4 5.9v30.9h7.8v8.6h-26.8z"/><path class="b" d="m1335.7 161.4h7.5v-45.2h-7.5v-8.7h26.7v8.7h-7.6v45.2h7.6v8.6h-26.7z"/></svg>