<?xml version="1.0" encoding="UTF-8" standalone="no" ?>
<!DOCTYPE svg PUBLIC "-//W3C//DTD SVG 1.1//EN" "http://www.w3.org/Graphics/SVG/1.1/DTD/svg11.dtd">
<svg xmlns="http://www.w3.org/2000/svg" xmlns:xlink="http://www.w3.org/1999/xlink" version="1.1" width="250" height="250" viewBox="0 0 250 250" xml:space="preserve">
<desc>Created with Fabric.js 3.6.6</desc>
<defs>
</defs>
<g transform="matrix(1.26 0 0 1.26 121.5 125)"  >
<g style=""   >
		<g transform="matrix(1 0 0 1 8.16 12.3)" id="Path_1"  >
<path style="stroke: none; stroke-width: 1; stroke-dasharray: none; stroke-linecap: butt; stroke-dashoffset: 0; stroke-linejoin: miter; stroke-miterlimit: 4; fill: rgb(137,65,140); fill-rule: nonzero; opacity: 1;"  transform=" translate(-98.16, -72.3)" d="M 88 71.46 h 21 s 0 -14.79 -9.08 -14.79 C 99.93 56.67 88 55.33 88 71.46 Z m -14.34 0.82 c 0 -11.85 11 -21.46 24.5 -21.46 s 24.5 9.61 24.5 21.46 a 18.58 18.58 0 0 1 -0.72 5.19 H 96.64 S 95 92.23 117.23 85.78 a 25.9 25.9 0 0 1 -19 8 c -13.53 0 -24.5 -9.61 -24.5 -21.46 Z" stroke-linecap="round" />
</g>
		<g transform="matrix(1 0 0 1 -0.01 36.84)" id="Path_2"  >
<path style="stroke: none; stroke-width: 1; stroke-dasharray: none; stroke-linecap: butt; stroke-dashoffset: 0; stroke-linejoin: miter; stroke-miterlimit: 4; fill: rgb(255,199,0); fill-rule: nonzero; opacity: 1;"  transform=" translate(-89.99, -96.84)" d="M 175.37 91.16 c -7.58 4.83 -25.28 11.52 -34.28 14.43 c 0 0 -9.4 4.28 -32.67 7.77 C 47.62 122.47 5.61 100 0 85.3 c -0.28 -9.81 32.79 26.82 101.63 12.28 c 13.41 -2.83 35 -9.63 35 -9.63 c 50.21 -21.62 46.62 -1.09 38.73 3.21 Z" stroke-linecap="round" />
</g>
		<g transform="matrix(1 0 0 1 68.32 -6.03)" id="Path_3"  >
<path style="stroke: none; stroke-width: 1; stroke-dasharray: none; stroke-linecap: butt; stroke-dashoffset: 0; stroke-linejoin: miter; stroke-miterlimit: 4; fill: rgb(0,143,189); fill-rule: nonzero; opacity: 1;"  transform=" translate(-158.32, -53.97)" d="M 149.45 37.59 a 4.87 4.87 0 0 1 4.79 -4.93 h 8.16 a 4.87 4.87 0 0 1 4.79 4.93 V 70.36 a 4.86 4.86 0 0 1 -4.79 4.92 h -8.16 a 4.86 4.86 0 0 1 -4.79 -4.92 V 37.59 Z" stroke-linecap="round" />
</g>
		<g transform="matrix(1 0 0 1 -47.2 11.23)" id="Path_4"  >
<path style="stroke: none; stroke-width: 1; stroke-dasharray: none; stroke-linecap: butt; stroke-dashoffset: 0; stroke-linejoin: miter; stroke-miterlimit: 4; fill: rgb(112,161,21); fill-rule: nonzero; opacity: 1;"  transform=" translate(-42.8, -71.23)" d="M 42.78 81.75 v 0 Z m 0 -31.91 s 3.15 -0.44 5.4 5.21 l 6.37 16.24 l 8.1 -17 s 2.42 -6.7 8.66 -3.6 c 0 0 4.76 2.42 1.29 9.95 L 60.27 88.17 s -1.57 4.75 -5.58 4.43 a 5.81 5.81 0 0 1 -6.24 -4.38 s -1.28 -6.65 -5.67 -6.48 c -4.39 -0.17 -5.67 6.49 -5.67 6.49 a 5.8 5.8 0 0 1 -6.24 4.37 c -4 0.33 -5.59 -4.43 -5.59 -4.43 L 13 60.7 c -3.47 -7.53 1.28 -10 1.28 -10 c 6.24 -3.1 8.67 3.6 8.67 3.6 L 31 71.29 l 6.37 -16.23 c 2.26 -5.65 5.4 -5.22 5.4 -5.22 Z" stroke-linecap="round" />
</g>
		<g transform="matrix(1 0 0 1 46.87 1.37)" id="Path_5"  >
<path style="stroke: none; stroke-width: 1; stroke-dasharray: none; stroke-linecap: butt; stroke-dashoffset: 0; stroke-linejoin: miter; stroke-miterlimit: 4; fill: rgb(0,143,189); fill-rule: nonzero; opacity: 1;"  transform=" translate(-136.87, -61.37)" d="M 128 42.32 a 4.84 4.84 0 0 1 4.79 -4.92 h 8.16 a 4.86 4.86 0 0 1 4.79 4.92 V 80.4 a 4.87 4.87 0 0 1 -4.79 4.93 h -8.16 A 4.85 4.85 0 0 1 128 80.4 Z" stroke-linecap="round" />
</g>
		<g transform="matrix(1 0 0 1 55.25 -37.93)" id="Path_6"  >
<path style="stroke: none; stroke-width: 1; stroke-dasharray: none; stroke-linecap: butt; stroke-dashoffset: 0; stroke-linejoin: miter; stroke-miterlimit: 4; fill: rgb(137,65,140); fill-rule: nonzero; opacity: 1;"  transform=" translate(-145.25, -22.07)" d="M 131.48 24.53 c 0 4.92 6.87 5.21 12 5.21 c 7.17 0 15.53 -2.32 15.53 -9.26 c 0 -10.41 -27.48 -6.36 -27.48 4.05 Z" stroke-linecap="round" />
</g>
		<g transform="matrix(1 0 0 1 26.87 -35.08)" id="Path_7"  >
<path style="stroke: none; stroke-width: 1; stroke-dasharray: none; stroke-linecap: butt; stroke-dashoffset: 0; stroke-linejoin: miter; stroke-miterlimit: 4; fill: rgb(112,161,21); fill-rule: nonzero; opacity: 1;"  transform=" translate(-116.87, -24.92)" d="M 108.58 13 a 11.42 11.42 0 0 0 -2 6.94 c 0 7 6 9.72 11.9 13.13 c 2.82 1.64 5.65 5.43 8 3 c 2.58 -2.65 -2.82 -5.17 -4.91 -8.2 c -4.3 -6.31 -4.11 -14 -13 -14.89 Z" stroke-linecap="round" />
</g>
		<g transform="matrix(1 0 0 1 45.7 46.45)" id="Path_8"  >
<path style="stroke: none; stroke-width: 1; stroke-dasharray: none; stroke-linecap: butt; stroke-dashoffset: 0; stroke-linejoin: miter; stroke-miterlimit: 4; fill: rgb(112,161,21); fill-rule: nonzero; opacity: 1;"  transform=" translate(-135.7, -106.45)" d="M 130.14 105.85 v 12.94 A 27.51 27.51 0 0 1 133.8 120 c 3.52 -7.08 7.47 -10.84 7.47 -18.67 c 0 -4.82 -5.56 -5.27 -8.93 -8.43 c -1.32 4.82 -2.2 7.83 -2.2 12.95 Z" stroke-linecap="round" />
</g>
		<g transform="matrix(1 0 0 1 74.02 36.68)" id="Path_9"  >
<path style="stroke: none; stroke-width: 1; stroke-dasharray: none; stroke-linecap: butt; stroke-dashoffset: 0; stroke-linejoin: miter; stroke-miterlimit: 4; fill: rgb(112,161,21); fill-rule: nonzero; opacity: 1;"  transform=" translate(-164.02, -96.68)" d="M 167.39 94.77 c 2.25 4.56 3.45 7 5.71 11.54 a 27.56 27.56 0 0 0 -2.73 2.78 c -6.25 -4.67 -11.44 -6.17 -14.89 -13.15 c -2.13 -4.29 2.63 -7.29 4.23 -11.68 c 3.3 3.68 5.41 5.95 7.67 10.51 Z" stroke-linecap="round" />
</g>
		<g transform="matrix(1 0 0 1 80.71 -45.43)" id="Path_10"  >
<path style="stroke: none; stroke-width: 1; stroke-dasharray: none; stroke-linecap: butt; stroke-dashoffset: 0; stroke-linejoin: miter; stroke-miterlimit: 4; fill: rgb(112,161,21); fill-rule: nonzero; opacity: 1;"  transform=" translate(-170.71, -14.57)" d="M 171.39 0 a 11.09 11.09 0 0 1 4.81 5.27 c 3.07 6.19 -1.07 11.47 -4.81 17.25 C 169.6 25.3 168.75 30 165.62 29 c -3.47 -1.16 0.23 -5.93 0.75 -9.6 c 1 -7.63 -2.51 -14.36 5 -19.35 Z" stroke-linecap="round" />
</g>
</g>
</g>
</svg>