<?xml version="1.0" encoding="UTF-8"?>
<svg id="Layer_1" xmlns="http://www.w3.org/2000/svg" xmlns:xlink="http://www.w3.org/1999/xlink" version="1.1" viewBox="0 0 810.2 157">
  <!-- Generator: Adobe Illustrator 29.2.1, SVG Export Plug-In . SVG Version: 2.1.0 Build 116)  -->
  <defs>
    <style>
      .st0 {
        fill: #58595b;
      }

      .st1 {
        fill: url(#linear-gradient);
      }

      .st2 {
        fill: #ca9a2c;
      }
    </style>
    <linearGradient id="linear-gradient" x1="81.6" y1="62.3" x2="238.6" y2="62.3" gradientTransform="translate(-3.3 -77.2) rotate(30.8)" gradientUnits="userSpaceOnUse">
      <stop offset="0" stop-color="#cd9a2b"/>
      <stop offset=".2" stop-color="#fcd75d"/>
      <stop offset=".4" stop-color="#ca9a2c" stop-opacity=".3"/>
      <stop offset=".6" stop-color="#d3b672"/>
      <stop offset=".8" stop-color="#cca74f"/>
      <stop offset=".9" stop-color="#c0882c"/>
    </linearGradient>
  </defs>
  <g>
    <path class="st2" d="M168.7,33.3v33.6h-5.9v-33.6h5.9Z"/>
    <path class="st2" d="M178.1,66.9h-5.9v-25.3h5.9v4c.4-.6.9-1.2,1.4-1.7.5-.5,1.1-1,1.7-1.4.7-.4,1.4-.8,2.2-1,.8-.2,1.7-.4,2.7-.4,2.9,0,5.1.9,6.7,2.6,1.6,1.8,2.3,4.1,2.3,7.1v16.1h-5.9v-14.4c0-2-.5-3.5-1.4-4.6-.9-1.1-2.3-1.6-4-1.6s-3,.6-4.1,1.7c-1,1.1-1.6,2.6-1.6,4.6v14.3Z"/>
    <path class="st2" d="M218.7,66.9v-4.2c-.9,1.3-2.1,2.4-3.5,3.4s-3.1,1.4-5.1,1.4-3-.3-4.4-.9c-1.4-.6-2.6-1.4-3.7-2.6-1.1-1.1-2-2.5-2.6-4.2-.7-1.6-1-3.5-1-5.6s.3-4,1-5.6c.7-1.6,1.5-3,2.6-4.2,1.1-1.1,2.3-2,3.8-2.6s2.9-.9,4.4-.9,3.8.4,5.2,1.3c1.4.9,2.5,1.9,3.4,3.1v-13.6h5.9v35h-5.9ZM218.2,50.9c-.4-1-.9-1.8-1.6-2.6-.7-.7-1.5-1.3-2.3-1.7-.9-.4-1.8-.6-2.8-.6s-1.9.2-2.8.6c-.9.4-1.7.9-2.3,1.6-.7.7-1.2,1.6-1.6,2.6-.4,1-.6,2.2-.6,3.4s.2,2.4.6,3.4.9,1.9,1.6,2.6c.7.7,1.4,1.2,2.3,1.6.9.4,1.8.6,2.8.6s1.9-.2,2.8-.6c.9-.4,1.7-.9,2.3-1.7.7-.7,1.2-1.6,1.6-2.6.4-1,.6-2.1.6-3.4s-.2-2.4-.6-3.4Z"/>
    <path class="st2" d="M235.1,61.1c1.3,1.1,2.9,1.7,4.8,1.7s2.7-.3,3.7-.8c1.1-.5,2.1-1.3,3.1-2.3l3.4,3c-1.2,1.4-2.7,2.6-4.3,3.5-1.7.9-3.7,1.3-6,1.3s-3.5-.3-5.1-1c-1.6-.6-3-1.5-4.1-2.7-1.2-1.2-2.1-2.5-2.8-4.2s-1-3.4-1-5.4.3-3.5.9-5.1c.6-1.6,1.5-3,2.6-4.2,1.1-1.2,2.4-2.2,3.9-2.9,1.5-.7,3.2-1.1,5-1.1s3.8.4,5.3,1.1c1.5.7,2.8,1.7,3.8,3,1,1.2,1.8,2.7,2.3,4.4.5,1.7.8,3.4.8,5.2s0,.5,0,.8c0,.3,0,.5,0,.8h-18.6c.4,2.1,1.2,3.7,2.5,4.8ZM245.6,52.5c0-.9-.3-1.8-.6-2.6-.3-.8-.8-1.5-1.3-2.1-.5-.6-1.2-1.1-1.9-1.4-.8-.4-1.6-.5-2.6-.5-1.8,0-3.3.6-4.4,1.8s-1.9,2.8-2.1,4.8h13Z"/>
    <path class="st2" d="M278.8,59.9c-.7,1.6-1.5,3-2.6,4.2-1.1,1.1-2.4,2-3.8,2.6s-2.9.9-4.4.9-3.8-.4-5.2-1.3c-1.4-.9-2.5-1.9-3.4-3.1v11.6s-5.8,0-5.8,0v-33h5.9v4.2c.9-1.3,2.1-2.5,3.4-3.4s3.1-1.4,5.1-1.4,3,.3,4.4.9,2.7,1.4,3.8,2.6c1.1,1.1,2,2.5,2.7,4.2.7,1.6,1,3.5,1,5.6s-.3,4-1,5.6ZM273.4,50.9c-.4-1-.9-1.9-1.6-2.6-.7-.7-1.4-1.2-2.3-1.6-.9-.4-1.8-.6-2.8-.6s-1.9.2-2.8.6c-.9.4-1.7.9-2.4,1.7s-1.2,1.6-1.6,2.6c-.4,1-.6,2.1-.6,3.4s.2,2.4.6,3.4c.4,1,.9,1.8,1.6,2.6s1.5,1.3,2.4,1.7c.9.4,1.8.6,2.8.6s1.9-.2,2.8-.6,1.6-.9,2.3-1.6c.7-.7,1.2-1.6,1.6-2.6s.6-2.1.6-3.4-.2-2.4-.6-3.4Z"/>
    <path class="st2" d="M290.3,61.1c1.3,1.1,2.9,1.7,4.8,1.7s2.7-.3,3.7-.8c1.1-.5,2.1-1.3,3.1-2.3l3.4,3c-1.2,1.4-2.7,2.6-4.3,3.5-1.7.9-3.7,1.3-6,1.3s-3.5-.3-5.1-1c-1.6-.6-3-1.5-4.1-2.7-1.2-1.2-2.1-2.5-2.8-4.2s-1-3.4-1-5.4.3-3.5.9-5.1c.6-1.6,1.5-3,2.6-4.2,1.1-1.2,2.4-2.2,3.9-2.9,1.5-.7,3.2-1.1,5-1.1s3.8.4,5.3,1.1c1.5.7,2.8,1.7,3.8,3,1,1.2,1.8,2.7,2.3,4.4.5,1.7.8,3.4.8,5.2s0,.5,0,.8c0,.3,0,.5,0,.8h-18.6c.4,2.1,1.2,3.7,2.5,4.8ZM300.7,52.5c0-.9-.3-1.8-.6-2.6-.3-.8-.8-1.5-1.3-2.1-.5-.6-1.2-1.1-1.9-1.4-.8-.4-1.6-.5-2.6-.5-1.8,0-3.3.6-4.4,1.8s-1.9,2.8-2.1,4.8h13Z"/>
    <path class="st2" d="M314.6,66.9h-5.9v-25.3h5.9v4c.4-.6.9-1.2,1.4-1.7.5-.5,1.1-1,1.7-1.4.7-.4,1.4-.8,2.2-1,.8-.2,1.7-.4,2.7-.4,2.9,0,5.1.9,6.7,2.6,1.6,1.8,2.3,4.1,2.3,7.1v16.1h-5.9v-14.4c0-2-.5-3.5-1.4-4.6-.9-1.1-2.3-1.6-4-1.6s-3,.6-4.1,1.7c-1,1.1-1.6,2.6-1.6,4.6v14.3Z"/>
    <path class="st2" d="M354,66.9v-4.2c-.9,1.3-2.1,2.4-3.5,3.4-1.4.9-3.1,1.4-5.1,1.4s-3-.3-4.4-.9c-1.4-.6-2.6-1.4-3.7-2.6-1.1-1.1-2-2.5-2.6-4.2-.7-1.6-1-3.5-1-5.6s.3-4,1-5.6c.7-1.6,1.5-3,2.6-4.2,1.1-1.1,2.3-2,3.8-2.6s2.9-.9,4.4-.9,3.8.4,5.2,1.3c1.4.9,2.5,1.9,3.4,3.1v-13.6h5.9v35h-5.9ZM353.5,50.9c-.4-1-.9-1.8-1.6-2.6-.7-.7-1.5-1.3-2.3-1.7-.9-.4-1.8-.6-2.8-.6s-1.9.2-2.8.6c-.9.4-1.7.9-2.3,1.6-.7.7-1.2,1.6-1.6,2.6-.4,1-.6,2.2-.6,3.4s.2,2.4.6,3.4.9,1.9,1.6,2.6c.7.7,1.4,1.2,2.3,1.6.9.4,1.8.6,2.8.6s1.9-.2,2.8-.6c.9-.4,1.7-.9,2.3-1.7.7-.7,1.2-1.6,1.6-2.6.4-1,.6-2.1.6-3.4s-.2-2.4-.6-3.4Z"/>
    <path class="st2" d="M370.4,61.1c1.3,1.1,2.9,1.7,4.8,1.7s2.7-.3,3.7-.8c1.1-.5,2.1-1.3,3.1-2.3l3.4,3c-1.2,1.4-2.7,2.6-4.3,3.5-1.7.9-3.7,1.3-6,1.3s-3.5-.3-5.1-1c-1.6-.6-3-1.5-4.1-2.7-1.2-1.2-2.1-2.5-2.8-4.2s-1-3.4-1-5.4.3-3.5.9-5.1c.6-1.6,1.5-3,2.6-4.2,1.1-1.2,2.4-2.2,3.9-2.9,1.5-.7,3.2-1.1,5-1.1s3.8.4,5.3,1.1c1.5.7,2.8,1.7,3.8,3,1,1.2,1.8,2.7,2.3,4.4.5,1.7.8,3.4.8,5.2s0,.5,0,.8c0,.3,0,.5,0,.8h-18.6c.4,2.1,1.2,3.7,2.5,4.8ZM380.9,52.5c0-.9-.3-1.8-.6-2.6-.3-.8-.8-1.5-1.3-2.1-.5-.6-1.2-1.1-1.9-1.4-.8-.4-1.6-.5-2.6-.5-1.8,0-3.3.6-4.4,1.8s-1.9,2.8-2.1,4.8h13Z"/>
    <path class="st2" d="M394.7,66.9h-5.9v-25.3h5.9v4c.4-.6.9-1.2,1.4-1.7.5-.5,1.1-1,1.7-1.4.7-.4,1.4-.8,2.2-1s1.7-.4,2.7-.4c2.9,0,5.1.9,6.7,2.6,1.6,1.8,2.3,4.1,2.3,7.1v16.1h-5.9v-14.4c0-2-.5-3.5-1.4-4.6-.9-1.1-2.3-1.6-4-1.6s-3,.6-4.1,1.7c-1,1.1-1.6,2.6-1.6,4.6v14.3Z"/>
    <path class="st2" d="M422.1,59c0,1.1.3,1.9.8,2.4.5.5,1.3.7,2.3.7s2.4-.3,3.6-.9v4.8c-.7.4-1.5.7-2.4,1s-1.8.3-2.9.3-2-.1-2.9-.4c-.9-.3-1.7-.7-2.3-1.3s-1.2-1.3-1.5-2.3c-.4-.9-.5-2.1-.5-3.5v-13.4h-3.2v-4.9h3.2v-7h5.9v7h6.8v4.9h-6.8v12.5Z"/>
    <path class="st2" d="M482,66.9h-6.2l-3.4-8.1h-15.9l-3.5,8.1h-6l14.8-33.8h5.5l14.8,33.8ZM464.3,40.1l-5.8,13.4h11.6l-5.8-13.4Z"/>
    <path class="st2" d="M499.6,41.6h5.9v25.3h-5.9v-4c-.8,1.2-1.9,2.3-3.1,3.2-1.2.9-2.8,1.3-4.8,1.3-2.9,0-5.1-.9-6.7-2.6-1.6-1.8-2.3-4.1-2.3-7.1v-16.1h5.9v14.4c0,2,.5,3.5,1.4,4.6.9,1.1,2.3,1.6,4,1.6s3-.6,4.1-1.7c1-1.1,1.6-2.6,1.6-4.6v-14.3Z"/>
    <path class="st2" d="M516.2,59c0,1.1.3,1.9.8,2.4.5.5,1.3.7,2.3.7s2.4-.3,3.6-.9v4.8c-.7.4-1.5.7-2.4,1s-1.8.3-2.9.3-2-.1-2.9-.4c-.9-.3-1.7-.7-2.3-1.3s-1.2-1.3-1.5-2.3c-.4-.9-.5-2.1-.5-3.5v-13.4h-3.2v-4.9h3.2v-7h5.9v7h6.8v4.9h-6.8v12.5Z"/>
    <path class="st2" d="M525.3,37.7v-5.5h6.3v5.5h-6.3ZM525.5,66.9v-25.3h5.9v25.3h-5.9Z"/>
    <path class="st2" d="M552.7,62.9c-.5,1-1.1,1.8-2,2.5-.8.7-1.8,1.2-3,1.5-1.2.3-2.4.5-3.7.5s-3.7-.3-5.5-1c-1.9-.6-3.6-1.6-5.2-2.8l2.6-3.9c1.4,1,2.8,1.8,4.2,2.3,1.4.5,2.8.8,4.1.8s2.2-.2,2.9-.7c.7-.5,1-1.2,1-2h0c0-.6-.2-1-.5-1.3-.3-.4-.7-.7-1.2-.9-.5-.3-1.1-.5-1.8-.7-.7-.2-1.4-.4-2.1-.6-.9-.3-1.9-.6-2.8-1-.9-.4-1.8-.8-2.5-1.4-.8-.6-1.4-1.2-1.8-2.1s-.7-1.8-.7-3h0c0-1.3.2-2.4.7-3.3.5-1,1.1-1.8,1.9-2.4.8-.7,1.8-1.2,2.9-1.5,1.1-.4,2.3-.5,3.5-.5s3.2.3,4.8.8c1.6.5,3.1,1.2,4.5,2.1l-2.3,4.1c-1.2-.7-2.4-1.3-3.7-1.8-1.2-.4-2.4-.6-3.5-.6s-2,.2-2.6.7-.9,1.1-.9,1.8h0c0,.5.2.9.5,1.3s.7.6,1.3.9c.5.3,1.1.5,1.8.8s1.4.5,2.1.7c.9.3,1.9.6,2.8,1,.9.4,1.8.9,2.5,1.4.8.6,1.4,1.2,1.8,2,.5.8.7,1.8.7,2.9h0c0,1.4-.2,2.6-.7,3.6Z"/>
    <path class="st2" d="M580.5,42.3c1.4-.8,3-1.2,5-1.2,2.8,0,5,.8,6.5,2.5,1.6,1.7,2.4,4.1,2.4,7.2v16.2h-5.9v-14.4c0-2-.4-3.5-1.3-4.6-.9-1.1-2.2-1.6-3.8-1.6s-2.9.5-3.9,1.6c-1,1.1-1.5,2.6-1.5,4.7v14.3h-5.9v-14.4c0-2-.4-3.5-1.3-4.6-.9-1.1-2.2-1.6-3.8-1.6s-2.9.6-3.9,1.7c-1,1.1-1.5,2.7-1.5,4.6v14.2h-5.9v-25.3h5.9v3.9c.4-.6.9-1.1,1.3-1.6s1-1,1.7-1.4c.6-.4,1.3-.8,2.1-1s1.7-.4,2.6-.4c1.8,0,3.4.4,4.6,1.2s2.2,1.9,2.9,3.3c1-1.4,2.2-2.4,3.6-3.3Z"/>
    <path class="st2" d="M638,66.9l-8.3-11.7h-7.4v11.7h-5.9v-33.6h15c1.9,0,3.7.2,5.2.7,1.6.5,2.9,1.2,3.9,2.1s1.9,2,2.5,3.4c.6,1.3.9,2.8.9,4.4s-.2,2.7-.6,3.8c-.4,1.1-1,2.1-1.7,2.9-.7.8-1.5,1.6-2.5,2.2-1,.6-2.1,1-3.2,1.4l9.1,12.7h-7ZM636.1,40.1c-1.2-.9-2.9-1.4-5.2-1.4h-8.6v11.3h8.7c2.1,0,3.8-.5,5.1-1.5,1.3-1,1.9-2.4,1.9-4.1s-.6-3.3-1.8-4.2Z"/>
    <path class="st2" d="M653.3,61.1c1.3,1.1,2.9,1.7,4.8,1.7s2.7-.3,3.7-.8c1.1-.5,2.1-1.3,3.1-2.3l3.4,3c-1.2,1.4-2.7,2.6-4.3,3.5-1.7.9-3.7,1.3-6,1.3s-3.5-.3-5.1-1c-1.6-.6-3-1.5-4.1-2.7-1.2-1.2-2.1-2.5-2.8-4.2-.7-1.6-1-3.4-1-5.4s.3-3.5.9-5.1c.6-1.6,1.5-3,2.6-4.2,1.1-1.2,2.4-2.2,3.9-2.9,1.5-.7,3.2-1.1,5-1.1s3.8.4,5.3,1.1c1.5.7,2.8,1.7,3.8,3,1,1.2,1.8,2.7,2.3,4.4.5,1.7.8,3.4.8,5.2s0,.5,0,.8c0,.3,0,.5,0,.8h-18.6c.4,2.1,1.2,3.7,2.5,4.8ZM663.8,52.5c0-.9-.3-1.8-.6-2.6-.3-.8-.8-1.5-1.3-2.1-.5-.6-1.2-1.1-1.9-1.4-.8-.4-1.6-.5-2.6-.5-1.8,0-3.3.6-4.4,1.8s-1.9,2.8-2.1,4.8h13Z"/>
    <path class="st2" d="M688.1,41.6h6.1l-10.4,25.5h-5.2l-10.4-25.5h6.2l6.8,18.6,6.9-18.6Z"/>
    <path class="st2" d="M696.8,37.7v-5.5h6.3v5.5h-6.3ZM697.1,66.9v-25.3h5.9v25.3h-5.9Z"/>
    <path class="st2" d="M713.8,61.1c1.3,1.1,2.9,1.7,4.8,1.7s2.7-.3,3.7-.8c1.1-.5,2.1-1.3,3.1-2.3l3.4,3c-1.2,1.4-2.7,2.6-4.3,3.5-1.7.9-3.7,1.3-6,1.3s-3.5-.3-5.1-1c-1.6-.6-3-1.5-4.1-2.7-1.2-1.2-2.1-2.5-2.8-4.2-.7-1.6-1-3.4-1-5.4s.3-3.5.9-5.1c.6-1.6,1.5-3,2.6-4.2,1.1-1.2,2.4-2.2,3.9-2.9,1.5-.7,3.2-1.1,5-1.1s3.8.4,5.3,1.1c1.5.7,2.8,1.7,3.8,3,1,1.2,1.8,2.7,2.3,4.4.5,1.7.8,3.4.8,5.2s0,.5,0,.8c0,.3,0,.5,0,.8h-18.6c.4,2.1,1.2,3.7,2.5,4.8ZM724.3,52.5c0-.9-.3-1.8-.6-2.6-.3-.8-.8-1.5-1.3-2.1-.5-.6-1.2-1.1-1.9-1.4-.8-.4-1.6-.5-2.6-.5-1.8,0-3.3.6-4.4,1.8s-1.9,2.8-2.1,4.8h13Z"/>
    <path class="st2" d="M757.4,59l5.2-17.4h5.8l-8.3,25.5h-5.2l-5.7-17.3-5.7,17.3h-5.2l-8.2-25.5h6l5.1,17.4,5.6-17.5h4.9l5.7,17.5Z"/>
    <path class="st2" d="M776.9,61.1c1.3,1.1,2.9,1.7,4.8,1.7s2.7-.3,3.7-.8c1.1-.5,2.1-1.3,3.1-2.3l3.4,3c-1.2,1.4-2.7,2.6-4.3,3.5-1.7.9-3.7,1.3-6,1.3s-3.5-.3-5.1-1c-1.6-.6-3-1.5-4.1-2.7s-2.1-2.5-2.8-4.2c-.7-1.6-1-3.4-1-5.4s.3-3.5.9-5.1c.6-1.6,1.5-3,2.6-4.2,1.1-1.2,2.4-2.2,3.9-2.9,1.5-.7,3.2-1.1,5-1.1s3.8.4,5.3,1.1c1.5.7,2.8,1.7,3.8,3,1,1.2,1.8,2.7,2.3,4.4.5,1.7.8,3.4.8,5.2s0,.5,0,.8c0,.3,0,.5,0,.8h-18.6c.4,2.1,1.2,3.7,2.5,4.8ZM787.4,52.5c0-.9-.3-1.8-.6-2.6-.3-.8-.8-1.5-1.3-2.1-.5-.6-1.2-1.1-1.9-1.4-.8-.4-1.6-.5-2.6-.5-1.8,0-3.3.6-4.4,1.8s-1.9,2.8-2.1,4.8h13Z"/>
    <path class="st2" d="M801.3,66.9h-5.9v-25.3h5.9v5.7c.8-1.9,1.9-3.5,3.4-4.6,1.5-1.2,3.3-1.7,5.6-1.6v6.1h-.3c-1.3,0-2.4.2-3.5.6-1.1.4-2,1-2.7,1.9-.8.8-1.4,1.9-1.8,3.1-.4,1.3-.6,2.7-.6,4.4v9.6Z"/>
    <path class="st0" d="M175.6,99.4v4.8h-6.6v20.4h-5.9v-20.4h-3.2v-4.8h3.2v-1.8c0-2.8.7-4.9,2-6.3,1.4-1.4,3.3-2,5.8-2s1.9,0,2.6.2c.7.1,1.4.3,2.1.5v4.9c-.6-.2-1.1-.3-1.7-.5-.5-.1-1.1-.2-1.8-.2-2.2,0-3.4,1.3-3.4,3.8v1.4h6.7Z"/>
    <path class="st0" d="M201.6,117c-.7,1.6-1.6,3-2.8,4.2-1.2,1.2-2.6,2.2-4.3,2.9-1.7.7-3.5,1.1-5.4,1.1s-3.7-.3-5.4-1-3.1-1.6-4.3-2.8-2.1-2.6-2.8-4.2c-.7-1.6-1-3.3-1-5.1s.3-3.5,1-5.2c.7-1.6,1.6-3,2.8-4.2,1.2-1.2,2.6-2.2,4.3-2.9,1.6-.7,3.4-1.1,5.4-1.1s3.8.3,5.4,1c1.6.7,3.1,1.6,4.3,2.8,1.2,1.2,2.1,2.6,2.8,4.2.7,1.6,1,3.3,1,5.1s-.3,3.5-1,5.1ZM196.2,108.8c-.4-1-.9-1.9-1.6-2.6-.7-.8-1.5-1.3-2.4-1.8-.9-.4-2-.6-3.1-.6s-2.2.2-3.1.6c-.9.4-1.7,1-2.4,1.8-.7.7-1.2,1.6-1.5,2.6-.3,1-.5,2-.5,3.1s.2,2.2.6,3.2c.4,1,.9,1.9,1.6,2.6.7.7,1.5,1.3,2.4,1.8s2,.6,3.1.6,2.2-.2,3.2-.6c.9-.4,1.7-1,2.4-1.8.7-.7,1.2-1.6,1.5-2.6.3-1,.5-2,.5-3.1s-.2-2.2-.6-3.2Z"/>
    <path class="st0" d="M210.8,124.5h-5.9v-25.3h5.9v5.7c.8-1.9,1.9-3.5,3.4-4.6s3.3-1.7,5.6-1.6v6.1h-.3c-1.3,0-2.4.2-3.5.6-1.1.4-2,1-2.7,1.9-.8.8-1.4,1.9-1.8,3.1-.4,1.3-.6,2.7-.6,4.4v9.6Z"/>
    <path class="st0" d="M265.7,90.9h5.9v33.6h-4.9l-18.5-23.9v23.9h-5.9v-33.6h5.5l18,23.2v-23.2Z"/>
    <path class="st0" d="M300.5,117c-.7,1.6-1.6,3-2.8,4.2-1.2,1.2-2.6,2.2-4.3,2.9-1.7.7-3.5,1.1-5.4,1.1s-3.7-.3-5.4-1-3.1-1.6-4.3-2.8-2.1-2.6-2.8-4.2c-.7-1.6-1-3.3-1-5.1s.3-3.5,1-5.2c.7-1.6,1.6-3,2.8-4.2,1.2-1.2,2.6-2.2,4.3-2.9,1.6-.7,3.4-1.1,5.4-1.1s3.8.3,5.4,1c1.6.7,3.1,1.6,4.3,2.8,1.2,1.2,2.1,2.6,2.8,4.2.7,1.6,1,3.3,1,5.1s-.3,3.5-1,5.1ZM295.1,108.8c-.4-1-.9-1.9-1.6-2.6-.7-.8-1.5-1.3-2.4-1.8-.9-.4-2-.6-3.1-.6s-2.2.2-3.1.6c-.9.4-1.7,1-2.4,1.8-.7.7-1.2,1.6-1.5,2.6-.3,1-.5,2-.5,3.1s.2,2.2.6,3.2c.4,1,.9,1.9,1.6,2.6.7.7,1.5,1.3,2.4,1.8s2,.6,3.1.6,2.2-.2,3.2-.6c.9-.4,1.7-1,2.4-1.8.7-.7,1.2-1.6,1.5-2.6.3-1,.5-2,.5-3.1s-.2-2.2-.6-3.2Z"/>
    <path class="st0" d="M309.7,124.5h-5.9v-25.3h5.9v5.7c.8-1.9,1.9-3.5,3.4-4.6s3.3-1.7,5.6-1.6v6.1h-.3c-1.3,0-2.4.2-3.5.6-1.1.4-2,1-2.7,1.9-.8.8-1.4,1.9-1.8,3.1-.4,1.3-.6,2.7-.6,4.4v9.6Z"/>
    <path class="st0" d="M330.7,116.6c0,1.1.3,1.9.8,2.4.5.5,1.3.7,2.3.7s2.4-.3,3.6-.9v4.8c-.7.4-1.5.7-2.4,1-.8.2-1.8.3-2.9.3s-2-.1-2.9-.4c-.9-.3-1.7-.7-2.3-1.3-.7-.6-1.2-1.3-1.5-2.3-.4-.9-.5-2.1-.5-3.5v-13.4h-3.2v-4.9h3.2v-7h5.9v7h6.8v4.9h-6.8v12.5Z"/>
    <path class="st0" d="M346.8,124.5h-5.9v-35h5.9v13.7c.4-.6.9-1.2,1.4-1.7.5-.5,1.1-1,1.7-1.4.7-.4,1.4-.8,2.2-1,.8-.2,1.7-.4,2.7-.4,2.9,0,5.1.9,6.7,2.6,1.6,1.8,2.3,4.1,2.3,7.1v16.1h-5.9v-14.4c0-2-.5-3.5-1.4-4.6-.9-1.1-2.3-1.6-4-1.6s-3,.6-4.1,1.7c-1,1.1-1.6,2.6-1.6,4.6v14.3Z"/>
    <path class="st0" d="M374,118.7c1.3,1.1,2.9,1.7,4.8,1.7s2.7-.3,3.7-.8c1.1-.5,2.1-1.3,3.1-2.3l3.4,3c-1.2,1.4-2.7,2.6-4.3,3.5-1.7.9-3.7,1.3-6,1.3s-3.5-.3-5.1-1c-1.6-.6-3-1.5-4.1-2.7-1.2-1.2-2.1-2.5-2.8-4.2s-1-3.4-1-5.4.3-3.5.9-5.1c.6-1.6,1.5-3,2.6-4.2,1.1-1.2,2.4-2.2,3.9-2.9,1.5-.7,3.2-1.1,5-1.1s3.8.4,5.3,1.1c1.5.7,2.8,1.7,3.8,3,1,1.2,1.8,2.7,2.3,4.4.5,1.7.8,3.4.8,5.2s0,.5,0,.8c0,.3,0,.5,0,.8h-18.6c.4,2.1,1.2,3.7,2.5,4.8ZM384.5,110.1c0-.9-.3-1.8-.6-2.6-.3-.8-.8-1.5-1.3-2.1-.5-.6-1.2-1.1-1.9-1.4-.8-.4-1.6-.5-2.6-.5-1.8,0-3.3.6-4.4,1.8s-1.9,2.8-2.1,4.8h13Z"/>
    <path class="st0" d="M398.4,124.5h-5.9v-25.3h5.9v5.7c.8-1.9,1.9-3.5,3.4-4.6,1.5-1.2,3.3-1.7,5.6-1.6v6.1h-.3c-1.3,0-2.4.2-3.5.6-1.1.4-2,1-2.7,1.9-.8.8-1.4,1.9-1.8,3.1-.4,1.3-.6,2.7-.6,4.4v9.6Z"/>
    <path class="st0" d="M415.8,124.5h-5.9v-25.3h5.9v4c.4-.6.9-1.2,1.4-1.7.5-.5,1.1-1,1.7-1.4.7-.4,1.4-.8,2.2-1s1.7-.4,2.7-.4c2.9,0,5.1.9,6.7,2.6,1.6,1.8,2.3,4.1,2.3,7.1v16.1h-5.9v-14.4c0-2-.5-3.5-1.4-4.6-.9-1.1-2.3-1.6-4-1.6s-3,.6-4.1,1.7c-1,1.1-1.6,2.6-1.6,4.6v14.3Z"/>
    <path class="st0" d="M463.4,90.9v33.6h-5.9v-33.6h5.9Z"/>
    <path class="st0" d="M472.8,124.5h-5.9v-25.3h5.9v5.7c.8-1.9,1.9-3.5,3.4-4.6,1.5-1.2,3.3-1.7,5.6-1.6v6.1h-.3c-1.3,0-2.4.2-3.5.6-1.1.4-2,1-2.7,1.9-.8.8-1.4,1.9-1.8,3.1-.4,1.3-.6,2.7-.6,4.4v9.6Z"/>
    <path class="st0" d="M490.4,118.7c1.3,1.1,2.9,1.7,4.8,1.7s2.7-.3,3.7-.8c1.1-.5,2.1-1.3,3.1-2.3l3.4,3c-1.2,1.4-2.7,2.6-4.3,3.5-1.7.9-3.7,1.3-6,1.3s-3.5-.3-5.1-1-3-1.5-4.1-2.7-2.1-2.5-2.8-4.2c-.7-1.6-1-3.4-1-5.4s.3-3.5.9-5.1c.6-1.6,1.5-3,2.6-4.2,1.1-1.2,2.4-2.2,3.9-2.9,1.5-.7,3.2-1.1,5-1.1s3.8.4,5.3,1.1c1.5.7,2.8,1.7,3.8,3,1,1.2,1.8,2.7,2.3,4.4.5,1.7.8,3.4.8,5.2s0,.5,0,.8c0,.3,0,.5,0,.8h-18.6c.4,2.1,1.2,3.7,2.5,4.8ZM500.9,110.1c0-.9-.3-1.8-.6-2.6-.3-.8-.8-1.5-1.3-2.1-.5-.6-1.2-1.1-1.9-1.4-.8-.4-1.6-.5-2.6-.5-1.8,0-3.3.6-4.4,1.8s-1.9,2.8-2.1,4.8h13Z"/>
    <path class="st0" d="M509.2,124.5v-35h5.9v35h-5.9Z"/>
    <path class="st0" d="M534.5,124.5v-3.1c-.9,1-2,1.9-3.3,2.6-1.3.7-3,1.1-4.9,1.1s-2.4-.2-3.5-.5c-1.1-.3-2-.8-2.9-1.5s-1.5-1.5-2-2.4c-.5-1-.7-2.1-.7-3.4h0c0-1.5.3-2.7.8-3.7.5-1,1.2-1.9,2.1-2.5.9-.7,2-1.2,3.3-1.5,1.3-.3,2.6-.5,4.1-.5s2.8,0,3.9.3,2.1.4,3.1.8v-.6c0-1.8-.5-3.1-1.6-4-1.1-.9-2.6-1.4-4.6-1.4s-2.7.1-3.8.4c-1.1.3-2.3.7-3.4,1.2l-1.6-4.7c1.4-.6,2.8-1.2,4.3-1.5,1.5-.4,3.2-.6,5.3-.6,3.8,0,6.6.9,8.4,2.8,1.8,1.9,2.7,4.5,2.7,7.9v15h-5.8ZM534.7,113.8c-.7-.3-1.6-.5-2.6-.7s-2.1-.3-3.2-.3c-1.8,0-3.2.4-4.3,1.1-1,.7-1.5,1.7-1.5,3h0c0,1.3.5,2.2,1.4,2.9.9.6,2.1,1,3.5,1s1.8-.1,2.7-.4c.8-.3,1.5-.6,2.1-1.1.6-.5,1.1-1,1.4-1.7.3-.7.5-1.4.5-2.2v-1.6Z"/>
    <path class="st0" d="M549.4,124.5h-5.9v-25.3h5.9v4c.4-.6.9-1.2,1.4-1.7.5-.5,1.1-1,1.7-1.4.7-.4,1.4-.8,2.2-1s1.7-.4,2.7-.4c2.9,0,5.1.9,6.7,2.6,1.6,1.8,2.3,4.1,2.3,7.1v16.1h-5.9v-14.4c0-2-.5-3.5-1.4-4.6-.9-1.1-2.3-1.6-4-1.6s-3,.6-4.1,1.7c-1,1.1-1.6,2.6-1.6,4.6v14.3Z"/>
    <path class="st0" d="M588.8,124.5v-4.2c-.9,1.3-2.1,2.4-3.5,3.4s-3.1,1.4-5.1,1.4-3-.3-4.4-.9-2.7-1.4-3.7-2.6c-1.1-1.1-2-2.5-2.6-4.2-.7-1.6-1-3.5-1-5.6s.3-4,1-5.6,1.5-3,2.6-4.2c1.1-1.1,2.3-2,3.8-2.6,1.4-.6,2.9-.9,4.4-.9s3.8.4,5.2,1.3c1.4.9,2.5,1.9,3.4,3.1v-13.6h5.9v35h-5.9ZM588.3,108.5c-.4-1-.9-1.8-1.6-2.6s-1.5-1.3-2.3-1.7c-.9-.4-1.8-.6-2.8-.6s-1.9.2-2.8.6c-.9.4-1.7.9-2.3,1.6-.7.7-1.2,1.6-1.6,2.6-.4,1-.6,2.2-.6,3.4s.2,2.4.6,3.4c.4,1,.9,1.9,1.6,2.6.7.7,1.4,1.2,2.3,1.6.9.4,1.8.6,2.8.6s1.9-.2,2.8-.6c.9-.4,1.7-.9,2.3-1.7s1.2-1.6,1.6-2.6c.4-1,.6-2.1.6-3.4s-.2-2.4-.6-3.4Z"/>
  </g>
  <path class="st1" d="M134.8,157L0,76.5,137.1,0l-2.3,157ZM9.3,76.6l120.9,72.2,2-140.8L9.3,76.6ZM108.9,138.8L29.6,61.1l106.9-29.9-27.6,107.5ZM38.6,63.5l67.8,66.4,23.6-91.9-91.4,25.5ZM86.4,115.9l-25.2-63,67.2,9.7-41.9,53.3ZM68.5,58.7l19.2,48,31.9-40.6-51.1-7.3Z"/>
</svg>