<svg id="Layer_1" data-name="Layer 1" xmlns="http://www.w3.org/2000/svg" viewBox="0 0 180 120"><defs><style>.cls-1{fill:#89418c;}.cls-2{fill:#ffc700;}.cls-3{fill:#008fbd;}.cls-4{fill:#70a115;}</style></defs><title>WELL-COLOUR</title><g id="Group_1" data-name="Group 1"><path id="Path_1" data-name="Path 1" class="cls-1" d="M88,71.46h21s0-14.79-9.08-14.79C99.93,56.67,88,55.33,88,71.46Zm-14.34.82c0-11.85,11-21.46,24.5-21.46s24.5,9.61,24.5,21.46a18.58,18.58,0,0,1-.72,5.19H96.64S95,92.23,117.23,85.78a25.9,25.9,0,0,1-19,8c-13.53,0-24.5-9.61-24.5-21.46Z"/><path id="Path_2" data-name="Path 2" class="cls-2" d="M175.37,91.16c-7.58,4.83-25.28,11.52-34.28,14.43,0,0-9.4,4.28-32.67,7.77C47.62,122.47,5.61,100,0,85.3c-.28-9.81,32.79,26.82,101.63,12.28,13.41-2.83,35-9.63,35-9.63,50.21-21.62,46.62-1.09,38.73,3.21Z"/><path id="Path_3" data-name="Path 3" class="cls-3" d="M149.45,37.59a4.87,4.87,0,0,1,4.79-4.93h8.16a4.87,4.87,0,0,1,4.79,4.93V70.36a4.86,4.86,0,0,1-4.79,4.92h-8.16a4.86,4.86,0,0,1-4.79-4.92V37.59Z"/><path id="Path_4" data-name="Path 4" class="cls-4" d="M42.78,81.75v0Zm0-31.91s3.15-.44,5.4,5.21l6.37,16.24,8.1-17s2.42-6.7,8.66-3.6c0,0,4.76,2.42,1.29,9.95L60.27,88.17s-1.57,4.75-5.58,4.43a5.81,5.81,0,0,1-6.24-4.38s-1.28-6.65-5.67-6.48c-4.39-.17-5.67,6.49-5.67,6.49a5.8,5.8,0,0,1-6.24,4.37c-4,.33-5.59-4.43-5.59-4.43L13,60.7c-3.47-7.53,1.28-10,1.28-10,6.24-3.1,8.67,3.6,8.67,3.6L31,71.29l6.37-16.23c2.26-5.65,5.4-5.22,5.4-5.22Z"/><path id="Path_5" data-name="Path 5" class="cls-3" d="M128,42.32a4.84,4.84,0,0,1,4.79-4.92h8.16a4.86,4.86,0,0,1,4.79,4.92V80.4a4.87,4.87,0,0,1-4.79,4.93h-8.16A4.85,4.85,0,0,1,128,80.4Z"/><path id="Path_6" data-name="Path 6" class="cls-1" d="M131.48,24.53c0,4.92,6.87,5.21,12,5.21,7.17,0,15.53-2.32,15.53-9.26,0-10.41-27.48-6.36-27.48,4.05Z"/><path id="Path_7" data-name="Path 7" class="cls-4" d="M108.58,13a11.42,11.42,0,0,0-2,6.94c0,7,6,9.72,11.9,13.13,2.82,1.64,5.65,5.43,8,3,2.58-2.65-2.82-5.17-4.91-8.2-4.3-6.31-4.11-14-13-14.89Z"/><path id="Path_8" data-name="Path 8" class="cls-4" d="M130.14,105.85v12.94A27.51,27.51,0,0,1,133.8,120c3.52-7.08,7.47-10.84,7.47-18.67,0-4.82-5.56-5.27-8.93-8.43-1.32,4.82-2.2,7.83-2.2,12.95Z"/><path id="Path_9" data-name="Path 9" class="cls-4" d="M167.39,94.77c2.25,4.56,3.45,7,5.71,11.54a27.56,27.56,0,0,0-2.73,2.78c-6.25-4.67-11.44-6.17-14.89-13.15-2.13-4.29,2.63-7.29,4.23-11.68,3.3,3.68,5.41,5.95,7.67,10.51Z"/><path id="Path_10" data-name="Path 10" class="cls-4" d="M171.39,0a11.09,11.09,0,0,1,4.81,5.27c3.07,6.19-1.07,11.47-4.81,17.25C169.6,25.3,168.75,30,165.62,29c-3.47-1.16.23-5.93.75-9.6,1-7.63-2.51-14.36,5-19.35Z"/></g></svg>