<?xml version="1.0" encoding="UTF-8"?>
<svg id="Layer_1" xmlns="http://www.w3.org/2000/svg" version="1.1" viewBox="0 0 283.5 283.5">
  <!-- Generator: Adobe Illustrator 30.0.0, SVG Export Plug-In . SVG Version: 2.1.1 Build 123)  -->
  <defs>
    <style>
      .st0 {
        fill: #004136;
      }

      .st1 {
        fill: #002848;
      }

      .st2 {
        fill: #ffd300;
      }

      .st3 {
        fill: #fff;
      }
    </style>
  </defs>
  <g>
    <path class="st3" d="M276,142.7c-.8-5.7-2.6-11.4-3.2-17.1-.6-7.8-.6-15.5-2.8-23.1-1.7-5.9-4-11.3-6.2-17-4.3-10.2-10-20.5-16.8-29.1-3.3-4-7.1-7.5-10.5-10.9-2.4-2.4-4.6-4.7-7.2-7-4.1-3.8-9.4-7.1-14.5-10.1-7.1-4.1-13.6-8-20.3-11.7-6.6-3.9-13.9-6.4-21.4-8.2-6.7-1.3-14.1-1.9-20.7-2.7-11.8-.6-24.2-1.9-35.7.4-6.9,2-14.4,4.7-21.1,7.1-3.6,1.3-6.8,2.2-9.5,4.4-4.3,2.6-11.6,5.6-16.3,8.9-9,5.7-16.3,12.6-23.5,20.6-3.6,3.8-7,8.2-10.2,12.2-3.2,4-6.3,7.7-9,11.9-5,7.8-8.5,17-11.7,25.4-3.5,10.1-5.5,20.8-7.1,31.3-2,14.6-1.3,31.2,1.3,45.6,1,5.9,1.5,10.3,4.3,16.4,10.8,23.6,26.2,45.2,47.4,60.9,11.7,8.4,24,14.9,37.7,19.3,11.9,4.1,24.7,7,37.3,7.3,8.5.4,17.4,0,25.9-1.6,7.6-1.6,14.3-4.2,21.5-6.7,5.3-2,10.4-3.3,15.6-4.6,5.5-1.5,9.3-4,14.2-7.4,3.9-2.6,7.6-5.9,11.7-9,4.1-3.2,8.2-6.3,11.7-10,10.3-10.6,18.5-22.8,25.6-36.1,5.9-11.4,10.2-23.7,12.5-36.2,1.8-7.5,2.5-15.5,1.2-23h0ZM249.5,53.9s0,0,0,0c0,0,0,0,0,0,0,0,0,0,0,0Z"/>
    <g>
      <path class="st1" d="M271.5,140.7c.1.4.5.2.4-1l-.5-.8.2,1.8Z"/>
      <path class="st1" d="M272.2,132.7c-.4-1.4-.9-2.9-1.3-2,.6,1.3.4,1.7,1.1,3.1.1,1.2-.1,2.1-.3,1.9.1.4,0,1.8.3,2.5.2-.8.3-1.6.3-2.6,0-.9-.1-1.9-.4-2.9,0-.4.2,0,.4,0Z"/>
      <path class="st1" d="M218.4,34.3l.6.5c-.1-.1-.3-.3-.6-.5Z"/>
      <path class="st1" d="M151.4,10.1c.5,0,.8,0,.8,0-.5,0-.9,0-.8,0Z"/>
      <path class="st1" d="M139.1,9.3c.3,0,.5,0,.7,0-.3,0-.6,0-.7,0Z"/>
      <path class="st1" d="M218.4,34.3l-1.5-1.3c-.2,0,.7.7,1.5,1.3Z"/>
      <path class="st1" d="M269,117.1c0,.4.2.7.3,1,0-.3-.1-.6-.2-.9,0,0,0,0,0,0Z"/>
      <path class="st1" d="M242.1,55.4l.4.4c.2,0,.3.2.5.2l-.9-.7Z"/>
      <path class="st1" d="M256.3,75.3c-.3-.5-.7-.4-1-.5.3.2.6.5.9.9,0,0,.1-.1.1-.4Z"/>
      <path class="st1" d="M269.7,111.5l.2.7c0-.2-.1-.5-.2-.7Z"/>
      <path class="st1" d="M230,42.8c0,0,0-.2,0-.3,0,0,0,.1,0,.3Z"/>
      <path class="st1" d="M267.5,168.1s0,0,0,0c0-.1,0-.2,0,0Z"/>
      <path class="st1" d="M272.7,140.7v.4c0,0,.2,0,.3,0l-.3-.5Z"/>
      <path class="st1" d="M116.5,11.3s0,0,.1,0c.6-.2.2,0-.1,0Z"/>
      <path class="st1" d="M14.1,168.5c-.1-2.4,1.4,3.6,1,0,0,.4-1.4-3-1,0Z"/>
      <path class="st1" d="M269,116.5c0-.3-.1-.6-.2-1,0,.4.1.7.2,1Z"/>
      <path class="st1" d="M15.1,168.6h0s0-.4,0-.4c0,.2,0,.2,0,.4Z"/>
      <path class="st1" d="M68.6,31.8c.1,0,.3,0,.5-.1,0,0-.2,0-.5.1Z"/>
      <path class="st1" d="M103.8,15.5l-.9.3c.4,0,.7-.2.9-.3Z"/>
      <path class="st1" d="M53.3,44.9c-.4.3-.6.4-1,.9,0,0,.1,0,.2-.1.1-.2.4-.5.9-.8Z"/>
      <path class="st1" d="M39.1,60.4c0,0,.2-.2.3-.2.1-.2.3-.4.4-.5l-.7.8Z"/>
      <path class="st1" d="M240.4,223.4c.4-.3.7-.4.9-.5-.4,0,1.4-2.3-.9.5Z"/>
      <path class="st1" d="M269.3,117.1c-.1,0-.2-.3-.3-.6,0,.2,0,.5.1.7,0,0,.1,0,.2-.1Z"/>
      <path class="st1" d="M55,48l-2.4,2.2c.7-.6,1.6-1.4,2.4-2.2Z"/>
      <path class="st1" d="M107.4,263.7l.7.2c-.3,0-.5-.1-.7-.2Z"/>
      <path class="st1" d="M46.2,57.4c-.5.3-1,.7-1.4,1.2,0,.1-.1.3-.2.4l1.6-1.5Z"/>
      <path class="st1" d="M241.3,222.9s0,0,0,0c0,0,0,0,0,0Z"/>
      <path class="st1" d="M252.7,204.8c-1.5,2.7-.2,1.6-.3,2.3-1.9,3.2-1.3,1.2-2.2,2.1-.6,1-1,2-1.3,2.8-.4.9-.8,1.6-1.3,2.3-.2,0-.4.3-.2,0-.3.6-.7,1.2-1.1,1.9-.4.7-1,1.5-1.6,2.2-1.1,1.5-2.3,3-3,4.3-.2.1-.3.2-.4.2.5-.2.8,0,.9.2-.9,1.1-1.4,2.2-2.1,2.4.6-.6.5-.8.7-1.2l-.8,1.2c-1.3.6,1.2-1.6.9-1.9-.9,1.1-1.8,2.4-2.6,3.6-.9,1.1-1.8,2.2-2.6,2.9-.7,0,3.4-3.8,1-2l1.2-1.2,1.2-1.2c-2.3,1.4,1.4-1.5-.8-.3-.4.4-.7.8-1,1.1-.3.3-.6.6-.8.9-.5.5-.9,1-1.3,1.5-.8.9-1.6,1.9-3.2,3.4-.5.9.5,0,0,1-1,1.2-1.9,1.9-2.5,2.4-.7.5-1.2.7-1.7,1-1,.4-1.8.7-3.3,2.5-.7,1-.6,1.8-3.5,3.6l.5-1.2c-3.4,2.6-1.4,2.2-5.3,4.5.5-.7,2.6-2.1,2.1-1.8-2.7,1.3-1.5,1.5-3.3,2.8l-.7-.2c-1.9,1.2-3.8,2.7-5.9,4-2.1,1.3-4.2,2.7-6.4,3.9.2-.3.9-.8-.3-.4-2.7,1.6-5.9,3-9,4.3-1.6.6-3.2,1.1-4.7,1.7-1.5.6-3.1.9-4.6,1.4l-2.1,1.2c-.5.2-1,0-.5-.2-2.4.5,0,.3-1.1.8-1.3.4-1.8.2-1-.1-3.9,1.7-11.5,3.7-16,3.9l.8-.3c-3.5.4-3.8,1.5-7,1.5l.6-.2c-3.8.3-7.7.6-11.5.7-.9,0-1.9,0-2.8,0-.9,0-1.8,0-2.6-.1-1.7-.1-3.3-.2-4.7-.5-.6.3-2.4,0-4.2-.1-1.8-.1-3.5-.4-3.8,0-2.1-.5-2.9-.8-3.8-1-1-.3-2.1-.6-5.1-1.3-1.6-.3-2.5,0-4.5-.3v-.5c0,0-2.7-.1-2.7-.1-.4-.3-.8-.6-1.3-.9l-1.8-.4c.7.2,1.5.6,1.3.8-1.4-.3-3.1-.9-4.5-1.4-1.3-.6-2.3-1.1-2.3-1.2l-3.3-.9c-1.1-.3-2.2-.7-3.3-1.1.2-.1,1.3.2,2.2.5-3.6-.9-.4-.7-3.8-1.5.4.3-.3.2-.4.2-.7-.4-2-1.1-3.4-1.7-1.4-.7-2.9-1.3-4.2-1.9h.6c-1.1-.7-2.3-1.3-3.5-1.9-.6-.3-1.2-.6-1.8-.9-.6-.3-1.2-.7-1.8-1-1.2-.7-2.5-1.3-3.7-2.1-1.2-.8-2.4-1.5-3.6-2.3,1.7,1.2.9,1.5-.5.6l-.3-.8c-1.1-.3,1.4,1.1-.7.2-1.7-1.3-.9-1.3.2-.7l-2.2-1.4c0-.2.5,0,.8,0-1.1-.4-3.4-3-4.9-3.6v-.2c-1.2-.9-2.1-1.6-3-2.3-.9-.7-1.6-1.4-2.4-2-.8-.6-1.5-1.2-2.3-1.9-.8-.6-1.5-1.4-2.4-2.2-.4.3-1.6-1.1-2.9-1.8-1.1-1.3-2.3-2.7-3.6-4.2-1.2-1.5-2.4-3.1-3.8-4.6-2-2.1-.8-.4-1.9-1.3.2-.4-2.4-3.7-.9-2.2-1.6-1.9-2.5-3.2-3.6-4.6-.5-.7-1.1-1.4-1.8-2.3-.6-.9-1.4-1.9-2.3-3.2.2.7.6,1.4.3,1.1-.7-.9-1.3-2.3-1-2.3l.2.2c-2.1-2.9-3.9-6.6-5.4-10.2-.8-1.8-1.4-3.6-2.1-5.2-.3-.8-.7-1.6-1.1-2.3-.3-.7-.7-1.4-1-2l.2.3c-.8-1.8-1.8-3.5-2.5-5.3-.8-2.6.8,1.4.4-.5-.7-1.4-1.2-2.8-1.6-4-.4-1.3-.7-2.4-1-3.6-.6-2.3-1-4.5-1.8-6.9,0-.5,0-1.1,0-1.8,0-.7-.1-1.4-.2-2.2-.2-1.6-.6-3.4-.9-5.2-.3-1.9-.6-3.7-.8-5.5-.1-1.8-.2-3.4-.1-4.8l-.3.3c-.4-1.4,0-1.7,0-2.7-.2.2-.2,1.5-.4.7-.1-3-.3-6-.2-9,0-1.5,0-3.1.2-4.6.2-1.5.3-3.1.5-4.6.1-1.5.5-3.1.7-4.6.2-1.5.5-3.1.8-4.6.3-1.5.6-3,.9-4.5.4-1.5.8-3,1.1-4.4.5-2.2.4-2.8.3-3.7,0-.8,0-1.8,1.1-4.4v1.7c2-8.8,6.2-17.3,10.1-25.2-.2.5,0,.6-.4,1.4,1.2-1.5,3.4-6,3.2-6.2.8-1.1.4-.1,1-.7,1.2-1.4,2.1-4.2,3-4.8.2-.1-.2.5-.4.8.5-1.1,3.3-4.6,2.3-3.9,1-1.3,2-2.6,2.9-3.8.9-1.2,1.7-2.4,2.7-3.3.8-1.6,3.9-4.1,3.8-5,.4.7,4.4-3.8,5.7-5.5-.4.6,1.5-1.1,1.1-.3,1.7-1.7,3.3-3.2,2.7-3.2,2-1.1,3.5-2.7,5-4,1.5-1.3,2.7-2.5,4.1-2.8,5.4-4.6,11-8.1,16.6-11.3,0,.4-1.5,1.1-3,2-1.5.9-2.9,1.7-2.6,2,1.3-.8,2.4-1.6,3.5-2.3,1.1-.7,2.1-1.3,3.1-1.9,2-1.3,4.2-2.3,6.9-3.5,1.5-.6-.7.6-1.1,1,2.7-1.4,5.4-2.4,8.1-3.5,1.3-.5,2.7-.9,4-1.4.6-.2,1.3-.5,1.9-.7.6-.2,1.3-.4,1.9-.7,0,0-.5.3-1,.5,1-.3,2.4-.6,2.2-.9l-1,.4c-1.8,0,3.8-2.1,3.9-2.4-1.5,1.3,5.3-1,2.7.8.7-.2,1.5-.6,1.3-.7,1-.2,1.4-.1.4.4,1.8-.5,2.4-.8,3-1,.5-.2,1-.4,2.7-.7,0,.2-.7.3-1,.6,1.7-.6,3.3-1.3,6.3-1.5-.2.1.2.2-.7.3,2.5-.3,4.6-.8,6.8-1.1,1.1-.2,2.2-.3,3.4-.4,1.2-.1,2.4-.1,3.8,0-1.6.7,1.9.2,2.2.8,1-.1,2-.1,3-.2l-1.2-.3c2.6,0,4.9-.3,7.1,0-.6,0-1.3,0-1.9.1,1.6,0,3.2.1,4.9.2l-2.7-.4c2.6-.1-.2-.8,3.2-.3-.7,0,2.6.2,3.9.7h0c1.3,0,2.6,0,4.5.3.5.2-.5.6-.2.8.7-.2,2.2,0,3.7.3,1.5.2,3.1.5,4,.4-.5,0-.6.3-.5.4l1.1-.2c1.1.4,1.3.5,1.1.7,3.5.9-1-1,3.2.3-.3,0-.2,0-.9,0,4.1,1.2,8.1,2,11.8,3.5.9.9-3.3-1-2.2,0,5.5,1.6,11.3,3.5,16.3,6l-.9-.5c1.1-.4,3.5,2.2,6.1,3.2-.6-.3-1,0-.8,0,1.6,1,3.3,1.9,5.3,2.9,1,.5,2,1.1,3,1.7,1.1.6,2.3,1.2,3.5,2l-.7-.2c1.7,1.5,4.8,3.4,6.6,5.1.7.3,1.8,1.2,1.3.4.6.7,1.3,1.3,2,2,.6.6,1.3,1.3,2,1.8,1.3,1.2,2.7,2.2,4,3.4,1.3,1.1,2.6,2.2,3.8,3.4,1.2,1.2,2.3,2.5,3.2,3.8-.5-.6-1.4-1.2-1-.8,1.4,1.3,2.6,2.7,3.9,4.1,0-.6-.3-.7-.9-1.8.6.4,1.8,1.5,2.7,2.6-1.9-1.8-.4.4,0,1.4,0-.2.3,0,.3-.1,1.3,2.7.9,0,3,3.4h-.3c1,1.1,2,2.1,2.9,3.4,0,.8-1.1-1.2-1.4-1.1,1.3,1.8,3.3,3.2,4,5.2-.6-.8-1.4-1.9-2-2.6.9,2.1,1.1,2.3,1.9,3.7h0c.6,1,1.3,2.1,1.9,3.2-.1-.3-.3-.6-.4-.9,1.2.9,2,2.2,2.8,3.5.4.7.8,1.4,1.3,2.1.4.8.9,1.5,1.5,2.3-2.3-3-.6-.4-1.2-.4.3.9.9,2.3.6,2,.6.7.9,1.4,1.2,2.2.3.8.7,1.7,1.4,2.7,0,.2.8,1.8.3,1.6,1.1,2.1,0-.6.3-.5,2,3.1,2.6,8.1,4.9,12.8.8,2.1,1.3,3.3,1.9,4.5.3.6.5,1.2.8,1.9.3.7.5,1.5.8,2.5,0,1.4-.8-1-.8-1,.3,2.3.8,3.9,1.3,6-.2-.4-.2,0-.3.7.3,1.7.8,1,.9,3.3-.2-.4-.6-.8-.9-1.6.2,1,.5,2,.8,2.9.2,1,.5,2,.7,3-.2.6-.6-1.2-.8-1.9.4,2.3,1,6,1.5,6.7v-1.5c.1.9-.3.5-.4-.1-.6-2-.2-2.9,0-3l.3,1.5c.4-.8.1-2.3-.2-4-.4-1.7-1-3.5-1.2-4.9l.9,1.1-1.1-3c0-.7.3-1.2.7.3-.1-2.2-.6-1.8-.7-3.7,0-.2,0-.1.1,0l-.7-2c.2.4.4-.5.6.8-.1-1-.3-1.8-.5-2.6-.2-.7-.5-1.4-.7-2-.4-1.2-.8-2-.8-2.8v.3c-.3-1.3-.6-1.9-.7-2.2-.2-.3-.3-.3-.3-.3-.1,0-.3.3-1.2-1.4l.3-2.9-.6-.3c-.2-.5-.5-1.5-.3-1.4-1.1-1.8,0,.4-.8-.6-.3-1.3-1-3-1.6-4.4-.7-1.4-1.2-2.6-.9-3-.7-.7.8,2.4-.6,0,.2-.5-.2-1.3-.7-2.1-.5-.9-1.2-1.9-1.6-3,.7.5,1.6,2.6.8.3-.7-.5-1.2-1.5-1.6-2.7-.5-1.2-1-2.4-1.6-3.2-.3.1-.9-.8-1.6-2.1-.8-1.3-1.8-2.9-2.8-4.3.3,0-3.3-5.5-5.1-8.1h.1c-.4,0-1.1-.7-1.9-1.6-.8-.9-1.7-2-2.5-2.9.3-.2.7,0,1.7,1-.5-.6-1-1.1-1.5-1.7-.5-.3-1-.7-2-1.8h.7c-.5-.4-1-1-1.6-1.5-.6-.5-1.1-1.1-1.7-1.6-.6-.6-1.2-1.1-1.8-1.8-.6-.6-1.2-1.3-1.9-2-.4.1,1.4,2.9-1.7.3,0-.3.2-.6,1,0-.3-.2-1-.7-1.5-1.3l1.4.9c-1.2-1.3-.9-.4-1.9-1.4.2-.2-.6-.9-.3-.9.3.2.8.9,1.3,1.2-1.1-1.1-2.4-2.6-2.7-3.2,0,.2-.3.3-1.2-.4-2.3-1.9-.5-1-1.7-2.2-.7-.3-2-1.7-2.4-1.3-.7-.5-.7-.8-.9-1.1-.7-.4-2.1-1.5-3.3-2.3-1.2-.8-2-1.3-1.5-.6l.3.3c0,0-.1,0-.2-.1h0s0,0,0,0c-1.1-.6-2.2-1.4-3.2-2.1-1.1-.7-2.2-1.5-3.2-2.2-2.1-1.5-4.4-2.9-6.6-4.1h0c-1.3-.8-2.9-1.5-4.3-2.2-1.4-.7-2.7-1.3-3.8-1.6-.8-.4-1.8-1.1-1.4-1.1-2.2-.8-2.4-.9-5.4-2.3,2.2.6-.6-.5,2.3.7-2.7-1.2-3.3-1.7-6.4-2.5,1.2,0-2-1.2-3.4-1.5l1.9.9c-1.5-.5-2.8-.9-4.2-1.4l.9-.3c-1.4-.6-2.8-1-4.2-1.3-1.4-.3-2.7-.6-4-.8-2.6-.3-4.9-.8-7.1-1.7-1.7,0,3.2.8,1.7,1-2.7-.6-5.5-1.8-6.4-2-3.8-.8-3.7.2-7.7-.3.5.2.9.8-2.1.7-2.8-.3-3.4-1-1.6-1.1.7,0,1,.1,1,.2.9,0,2.1,0,1-.3l-.4.2c-.7-.1-2-.3-3-.4-1-.1-1.8-.2-1.3-.3-2.1.1-.9.3.6.4-1.8-.2-3.2-.2-4.6-.2-1.4,0-2.9,0-4.7,0,.6,0,1.1.3.6.3-2.7,0-3.3,0-3.7.2-.4.1-.5.3-2.4.5-2.1-.1.7-.7-3-.2-2.3,0-.5-.5.4-.7-.8.2-1.7.2-2.4.3-.8,0-1.5.1-2.2.2-1.4,0-2.7,0-3.6.1l1.8-.4c-1.1.2-1.9.3-2.8.5.4,0,.7.1,1.1.2-1.1,0-1.9.3-1.9,0-1,.4.9.5-1.1,1.2-1.4,0-4.2.9-4.7.6,4.4-.7-.6-.4,3.1-1.2-.7.2-1.6.3-2.6.5-.2,0,.1-.1.4-.2-4.2.5-1.8,1-6,1.9.5-.4-1.1-.3-1.8,0,1.7-.5.9.2-.6.9-2.8.6-2.9,1-4.3,1.4l1.6-.4c-.2.2-.7.4-1.3.6-.6.2-1.4.5-2.3.9-.2-.2,1.6-.7.9-.6-1.9,1.2-4.8,1-7.5,2.5-1.4.3-.3-.4-1.5-.1-3,1.6-3.5,1.1-6.7,2.8,1.1,0,1.2-.2-.9,1.1l5.2-2.7-3.2,2c1.6-.7,3.3-1.8,4.3-2.1-1.5,1-1.4.8-.5.8-2.4.5-4.2,2.2-6.9,3.1l-.3-.9c-2,.8-3.6,1.7-5.3,2.8-.8.6-1.7,1.2-2.7,1.8-1,.6-2,1.2-3.2,1.9.5-.3,1-.6,1.6-.8-.4.7-2.8,1.8-4.2,2.9,0-.3-1,.1-1.8.4.2.1-3.3,2.3-3.3,3.1-.7.4-1.5.7-2.2,1.1-3.6,2.6-3.4,3.7-6.7,6.4.7-1.1-.9,0,1.1-2-1.1.9-2.1,1.7-1.9,1.9-.4.2-1.1.9-1.8,1.7-.7.8-1.4,1.6-2,1.9-.3.5-.2.9-1.4,1.9-.2,0-.1-.1-.1-.1,0,0-1.6,1.9-.4,1.2-3.7,2.4-8.2,8.9-11,11.4-.5.6-.9,1.3-1.4,1.9-.5.7-.9,1.4-1.4,2.1-.9,1.4-1.9,2.7-2.6,3.9,0-.2-.1,0,.2-.5-2.3,3.1-.5,2.5-3.1,6-.8.8-.5.3-.2-.3.3-.6.8-1.3.3-.7-.6,0-1.2,1.2-2,2.6-.7,1.5-1.6,3.1-2.5,4.3l.3-.7c-1.3,1.9-2.2,5.1-3.8,8.4,0,0,0-.2-.1,0-.3,1.3-.9,3-1.5,4.8-.6,1.9-1.3,3.8-1.8,5.5,0-1.2.3-1.6-.3-1.1-.5,1.5.8-.2-.1,2.8-.5.9-1.5,3-1.9,3.2.3-1,.6-1.9.9-2.9-.5.6-.8,1.6-1.1,2.5-.2,1-.4,1.9-.6,2.7l-.2-.3c-1.2,4.4-.5,4.7-1.7,9.4l.3-.5c0,2.7-.8,2.1-.8,4.9l-.8.7c0,.4,0,1.1-.2,1.8,0,.7,0,1.5,0,2.4,0,1.7-.2,3.6-.3,5.2-.2-.9-.2-2.3-.1-3.8,0-1.5,0-3,.1-4.1-.3,1.7-.7,6-.5,6.9,0-.7,0-1.6.2-2.3.2,2.2.2,5,0,8.5-.6-.3-.8,1.9-.9,4.6-.2,2.7,0,5.8-.5,7.1,0,.8.1,1.6.2,2.3,0,.8.2,1.6.2,2.3.1,1.6.2,3.1.3,4.7.2,1.6.3,3.2.5,4.9.1,1.7.5,3.4.8,5.2.5-2.7.4,2.1,1.3,1.5.4,1.6.5,2.3.5,2.4l.6,5.1c0,.6-.1.2-.3-.3-.2-.5-.4-1.2-.4-1,.8,3.6,0,1.6.4,4.1.2-.6.8,1.1,1.3,3.2l-.4-3c.9,2.4,1.1,3.5,1.3,4.7.2,1.1.3,2.3,1.4,4.7l-.8-1.5c1,2.5,3.6,9.3,5.4,11.3,0,.5.1,1.2-.4.1,2.6,5.9,7.2,12.3,9.6,16.6l-.5-.3c.7,1,1.5,1.5,2.1,2.9-.1,0-.5-.3-.2.2.4.5,2.2,2.3,3,3.7l-1-.9c.8,1.3,1.7,2.4,2.5,3.4.8,1,1.6,1.8,2.4,2.7,1.6,1.6,3.2,3,5,4.9-.3.2.4,1.3,1.4,2.5.9,1.2,2.1,2.6,3,3.5h-.1c1.3,1.3,2.5,2.4,3.8,3.5,1.3,1,2.5,2,3.7,2.9,1.2.9,2.5,1.7,3.7,2.6,1.3.9,2.5,1.8,4,2.7.7.8,1.8,1.7,3.1,2.7,1.3,1,2.9,2,4.5,3,1.6,1.1,3.4,2,5,3.1,1.7,1,3.3,1.9,4.8,2.8-.9-.6.4-.4,1.5,0,1.3.9,4.1,1.4,3.6,1.9l-.5-.2c.8,1,3.8,2.3,6.2,3.2l.7-.6c1.4.9,3.1,1.7,5,2.4,1.9.6,3.8,1.3,5.8,1.8,1.9.5,3.7,1,5.3,1.4,1.6.4,2.9.8,3.7,1.2,1.6.2,3.5.5,5.1.6l-.2.4c2.2.5,3.8.8,5.6,1,.9.1,1.8.2,2.9.4.5,0,1.1.1,1.7.2.6,0,1.2,0,1.9.1l-1.1.2c3.1.2,4-.9,6.8-.8l.8.7c2.7,0,5.4.3,8.1.3,1.4,0,2.7,0,4,0,1.3-.1,2.7-.3,4-.6,0,.1-.2.3-1.1.4,2.5,0,9.8-.6,8.8-1.4.2.7,5.5-.8,8.3-1.7l-.4.5c2.3-1.1,2.3-1.3,5.6-2.2.8-.1.8.2-.3.3,2.7-.4,1.9-1,5.1-1.6l-1.1.6c2.7-.7,2.4-.8,3.8-1.6,1.6-.7,5-1.6,5.5-1.3.3-.4,1.6-1.2,3.1-1.7.3,0-.3.4-.5.5,1.1-.4,2-.7,2.9-1.1.8-.4,1.5-.8,2.2-1.2,1.4-.7,2.6-1.4,4.1-1.9.1.1.3,0,.6,0-3.3,1.6-6.1,2.7-5.8,2.6.2.4,2.9-.8,1,.7,1-.6,2.4-1.5,3.9-2.4,1.4-.9,2.9-1.8,4.3-2.4.1,0,.3,0,.4,0l-.2.2c.6-.3,1.1-.6,1.6-.9.8-.4,1.4-.7,2.1-1.1.5.1,3.1-1.5,4.3-2.3-.3-.3,1.3-1.3-.4-.6.2-.1-.2.2-1,.7-.2.1-.4.3-.5.4,0,0,0,0,0,0-.8.5-1.9,1.1-3.2,1.9.9-.8,1.9-1.6,3.4-2.2.5-.6,1-1.3,1.4-1.7,1-.3,2.4-.9,3.6-1.4,1.2-.5,2.2-1.1,2.5-1,.9-.7,1.9-1.5,2.9-2.2,1-.7,2-1.6,2.9-2.4.9-.8,1.8-1.6,2.6-2.3.7-.8,1.3-1.5,1.7-2.1.9-.9,1.3-.8,1.7-1-.5.5-1.2,1.1-1.4,1.5.9-.9,2.4-2.1,3.5-3.4,1.2-1.2,2.1-2.3,2.1-2.7,2.5-2.1-.9,1.7,2.2-1.5l-.3.6c1.7-1.4,3.1-2.8,4.3-4.3,1.2-1.5,2.2-3,3.3-4.5,1-1.5,2-3.1,3.3-4.7,1.2-1.6,2.5-3.4,4.1-5.2-.5.5-.7.8-.8.8.4-.5.9-1.1,1.3-1.7.4-.6.8-1.2,1.2-1.7.8-1.2,1.5-2.3,2.3-3.5.7-1.2,1.4-2.5,2.1-3.7.3-.6.7-1.2,1-1.9l.9-1.9c2.6-5,4.7-10.3,7.1-15.2,1.2-2.9.9-3.3,1.2-5.2l.7-.5c.2-1.1.2-2.2.4-3.3.2-1.1.5-2.1.9-3.1.3-1,.7-2,1-3,.4-1,.7-2.1,1-3.2.3-1.2.4-2.5.5-3.9l-.4.7c.2-1,.5-2.6.7-4,.2-1.3.3-2.4.5-2.2,0-.2-.2-.7,0-1.5h.3c0-.9,0-1.7,0-2.6v-2.6c.2-2,.5-1.8.7-1.9.1,0,.2-.1.4-.6.1-.4.3-1.2.3-2.7,0-2.2-.6-6.2-.8-5.4,0,.9-.2,2.2-.5,2.3v-2c-.8-.4-1.5-1.8-2.2,2.9l.4,3.3-.4,1c0-.9,0-1.9.1-2.8-.4,1.6-.1,2.6,0,3.7-.2.3-.4.7-.5,1.4l.5,3.3c-.3.4-.4-1.5-.8.6.1,1.5.8-1.4.7,1.1-.5,1.5-.7,1-.7,2.9-.2.2-.3-.2-.3-.9,0,.8,0,1.9-.2,2.9-.1,1-.2,1.9-.1,2.3-.3.8-.6,2.2-.8,3.3-.2,1.1-.5,2-.8,1.9,0,.5-.1,3-.4,4.4-.1-1.5-.4,0-.9,1.5-.5,1.6-1,3.4-1.4,3,.1,1.1-.4,2.9-1,4.8-.3,1-.6,2-1,3-.4,1-.7,1.9-.9,2.8,0-.2,0-.6.2-.9-.8,1.9-1.2,2.3-1.8,3.5.5.5-.7,3.4-1.1,5.2-1.6,2,0-1.7-.9-1.2.2,0,0,1.1-.4,2-.4.9-.7,1.8-.3,1.5-1.2,1.5-.9,1.4-1.8,2,.5.7-.7,1.7-1.1,3.3-1.7,2.2-1,.3-2.3,3-.9,1.1.2-1.3.2-1.3ZM201.8,254.9h0c.6-.3,1-.6,1.3-.7-.3.1-.7.4-1.3.7ZM196.3,257.6c.7-.3,1.5-.7,2.4-1.1.3,0,.1.3-.4.5.3-.2-1.1.3-2,.5ZM209.3,254.3c-.8.5-1.2.6-1.3.6.4-.2.9-.5,1.5-.9,0,0,0,0,0-.1,0,.1,0,.2-.2.4Z"/>
      <path class="st1" d="M210.6,252.9c.1,0,.2-.1.3-.2-.2,0-.4.1-.6.2,0,.1-.2.2-.2.3.2,0,.3-.2.5-.3Z"/>
      <path class="st1" d="M219.1,34.9h-.1c0,0,.1,0,.2.1,0,0,0,0,0-.1Z"/>
      <polygon class="st1" points="114 265.2 114 265.3 114.5 265.3 114 265.2"/>
      <path class="st1" d="M242.7,59.2c0,0,0,.2.2.4,0,0,0-.2-.2-.4Z"/>
      <path class="st1" d="M251.2,71.1l1,1.8c-.4-.8-.7-1.4-1-1.8Z"/>
      <path class="st1" d="M256.6,80.9c.1,0,.2,0,.3.1h0s-.3-.1-.3-.1Z"/>
      <path class="st1" d="M105.4,18.1c-.1,0-.3,0-.4.1-.9.4-.3.1.4-.1Z"/>
      <path class="st1" d="M157.7,12.4c-.6,0-1.1,0-1.7,0,.9.2,1.7.3,1.7,0Z"/>
      <path class="st1" d="M55.3,47.8s0,0,0,0c0,0-.2.2-.3.2l.3-.2Z"/>
      <path class="st1" d="M153.5,12.2c.9.2,1.7.2,2.5.2-.8,0-1.7-.2-2.5-.2Z"/>
      <path class="st1" d="M270.5,127v.5c0,0,.1,0,.1,0v-.6Z"/>
      <path class="st1" d="M270.6,127.6v.6c0-.3,0-.5,0-.6Z"/>
      <path class="st1" d="M270.9,129.4l-.2-1.2c0,.4,0,1,.2,1.2Z"/>
      <path class="st1" d="M268.2,112.4h-.2c0,0,.1,0,.2,0Z"/>
      <path class="st1" d="M267.2,108c.3,1,.3,2.7.7,4.1h.2c-.4-.5-.3-3.2-.9-4.1Z"/>
      <path class="st1" d="M262.9,89.5c.5,1.2.9,2.4,1.3,3.6,0-.7-.2-1.6.5,0-1.3-4.7,0,1.1-1.8-3.6Z"/>
      <path class="st1" d="M258,78.7c1,1.8.2-.1.3,0-.8-1.1-1-1.3-.3,0Z"/>
      <path class="st1" d="M196.1,21.2l.4-.3c-1.5-.6,0,.1-.4.3Z"/>
      <path class="st1" d="M180.1,17.4c.5.2.9.4,1.4.7h.8c-.7-.3-1.4-.5-2.2-.7Z"/>
      <polygon class="st1" points="171.5 12.2 172.2 12.3 169.6 11.9 171.5 12.2"/>
      <path class="st1" d="M41.1,57.2c.2,0,.5,0,.7,0,.6-.9.3-1.4-.7,0Z"/>
      <path class="st1" d="M14.7,113.2c-.4.6-.9,2.3-.8,3.4.3-1.4.7-2.7.8-3.4Z"/>
      <path class="st1" d="M97.1,264.3l-1.2-.3c.8.2,1.5.5,2.3.7-.3-.1-.7-.2-1-.4Z"/>
    </g>
    <g>
      <path class="st3" d="M178.2,279.5c-.1,0-.3,0-.4,0,.2,0,.3,0,.4,0Z"/>
      <path class="st3" d="M199.7,272.5s0,0,0,0c0,0,0,0,0,0Z"/>
      <path class="st3" d="M42.8,39.3s0,0,0-.1c0,0,0,0,0,.1Z"/>
      <path class="st3" d="M98.5,5.2s0,0,0,0c0,0,0,0,0,0Z"/>
    </g>
  </g>
  <g>
    <path class="st1" d="M51,81c1.6.9,2.8,1.9,3.9,3.1,1,1.2,1.8,2.5,2.2,4,.4,1.4.6,2.9.4,4.5-.2,1.6-.7,3.1-1.6,4.7-.9,1.5-1.9,2.8-3.1,3.8s-2.6,1.7-4,2c-1.4.4-3,.5-4.5.2-1.6-.2-3.1-.8-4.7-1.6-1.5-.9-2.8-1.9-3.9-3.1-1-1.2-1.8-2.6-2.2-4-.4-1.4-.6-2.9-.4-4.5.2-1.6.7-3.1,1.5-4.7.9-1.5,1.9-2.8,3.1-3.8,1.2-1,2.6-1.7,4-2,1.4-.4,3-.5,4.5-.2s3.1.8,4.7,1.6ZM49.3,84.2c-1.2-.7-2.4-1.1-3.6-1.3-1.2-.2-2.3-.2-3.3,0-1,.2-2,.7-2.8,1.4-.9.7-1.6,1.6-2.2,2.7-.6,1.1-1,2.2-1.1,3.3-.1,1.1,0,2.1.3,3.1.3,1,.9,2,1.7,2.8.8.9,1.8,1.7,3.1,2.4,1.2.7,2.5,1.1,3.6,1.3,1.2.2,2.3.2,3.3,0,1-.2,2-.7,2.8-1.4.9-.7,1.6-1.6,2.2-2.7.6-1.1,1-2.2,1.1-3.3s0-2.1-.3-3.1-.9-1.9-1.7-2.8-1.8-1.7-3.1-2.4Z"/>
    <path class="st1" d="M63.5,84.1l-10.2-9.9-1.4,1.1c-.2.1-.4.2-.6.3-.2,0-.4,0-.6-.2l-1-.9,1.8-1.9-.9-.9c-.7-.7-1.2-1.4-1.6-2.1-.3-.7-.5-1.4-.5-2.2s.1-1.5.4-2.2c.3-.7.8-1.4,1.4-2,.5-.5,1.1-1,1.7-1.3l1.1,1.2c0,.1.1.2.1.3,0,.1,0,.2-.1.3s-.2.2-.3.4c-.1.1-.3.3-.4.4-.3.4-.6.7-.8,1.1-.2.4-.3.8-.3,1.2,0,.4.1.8.4,1.3.2.4.6.9,1.1,1.4l.8.8,5.1-5.3-.6-.6c-.7-.7-1.3-1.5-1.7-2.3-.4-.8-.6-1.7-.6-2.6,0-.9.2-1.8.7-2.8.4-.9,1.1-1.9,2-2.8.3-.3.6-.6,1-.9.4-.3.7-.5,1-.7l1.1,1.3c.1.2.1.3,0,.5-.2.2-.4.4-.7.8-.7.7-1.2,1.4-1.6,2.1s-.5,1.3-.6,1.9c0,.6,0,1.2.4,1.8.3.6.7,1.1,1.3,1.7l.5.5,7.1-7.3,11.9,11.6-2.3,2.3-10.2-9.9-4.8,5,10.2,9.9-2.3,2.3-10.2-9.9-5.1,5.2,10.2,9.9-2.3,2.3Z"/>
    <path class="st1" d="M85.6,47.4c0,.2,0,.3,0,.4,0,.1-.1.2-.3.3-.1,0-.3.1-.6.1-.2,0-.5,0-.9,0-.3,0-.7,0-1.1.2-.4.1-.9.3-1.4.7-.7.4-1.2.9-1.5,1.5-.3.6-.5,1.2-.6,1.9,0,.7,0,1.4.3,2.1.2.8.6,1.5,1.2,2.3.5.8,1.1,1.5,1.7,2,.6.5,1.2.9,1.9,1.1s1.3.3,1.9.2c.6,0,1.3-.3,1.9-.7.6-.4,1-.8,1.3-1.2.3-.4.5-.8.6-1.1.1-.3.2-.6.3-.9,0-.3.2-.4.4-.6.2-.1.4-.2.7,0l1.4.5c0,.6-.2,1.2-.4,1.7-.2.5-.5,1-.8,1.5-.3.5-.7.9-1.2,1.3-.4.4-.9.8-1.4,1.1-.9.6-1.8,1-2.8,1.1-1,.2-1.9.1-2.9-.1-1-.2-1.9-.7-2.8-1.4-.9-.7-1.8-1.6-2.5-2.7-.7-1-1.2-2.1-1.5-3.2-.3-1.1-.4-2.1-.2-3.1.1-1,.5-2,1.1-2.9.6-.9,1.4-1.7,2.5-2.4,1-.7,2-1.1,3-1.3,1-.2,2-.2,3,0v1.5Z"/>
    <path class="st1" d="M107.3,49.5c-.2.6-.4,1.1-.8,1.7-.3.5-.7,1-1.2,1.4-.4.4-.9.8-1.5,1.2-.5.3-1.1.6-1.6.9-1.1.5-2.1.7-3.2.8-1.1,0-2.1-.1-3.1-.5s-1.9-1-2.7-1.9c-.8-.9-1.5-1.9-2.2-3.3-.5-1.1-.8-2.1-.9-3.2,0-1.1,0-2.1.3-3.1s.8-1.8,1.5-2.6,1.6-1.5,2.8-2c.9-.4,1.9-.7,2.8-.7.9,0,1.8,0,2.7.4.8.3,1.6.8,2.3,1.5.7.7,1.3,1.6,1.8,2.7.2.5.3.8.3,1s-.2.4-.5.5l-10.1,4.6c.4.9.9,1.6,1.5,2.2s1.1,1,1.7,1.3c.6.3,1.3.4,1.9.3.7,0,1.3-.2,2-.5.7-.3,1.2-.6,1.6-1s.7-.7,1-1.1c.3-.3.5-.6.7-.9.2-.3.3-.4.5-.5.2-.1.5-.1.7,0l1.3.7ZM101.6,43.4c-.3-.6-.6-1.1-1-1.5s-.8-.7-1.3-.9c-.5-.2-1-.3-1.6-.3-.6,0-1.1.2-1.7.4-1.2.6-2,1.4-2.4,2.4-.4,1-.4,2.2,0,3.6l8-3.7Z"/>
    <path class="st1" d="M122.7,30.4c1.2-.2,2.4-.2,3.4,0,1.1.2,2,.7,2.8,1.3.8.6,1.5,1.4,2.1,2.4.6,1,.9,2.1,1.2,3.4.2,1.3.2,2.5,0,3.6-.2,1.1-.6,2.1-1.1,3-.6.9-1.3,1.6-2.2,2.1-.9.6-2,1-3.2,1.2-1.2.2-2.4.2-3.4,0-1.1-.2-2-.6-2.8-1.3-.8-.6-1.5-1.4-2.1-2.4-.6-1-1-2.1-1.2-3.4-.2-1.3-.2-2.5,0-3.6.2-1.1.6-2.1,1.1-3,.6-.9,1.3-1.6,2.2-2.2s2-1,3.2-1.2ZM125.2,45c1.6-.3,2.6-1,3.2-2.2.6-1.2.7-2.7.4-4.7-.3-1.9-1-3.3-1.9-4.3-1-.9-2.2-1.3-3.8-1-1.6.3-2.7,1-3.3,2.2-.6,1.2-.7,2.8-.4,4.7.3,1.9,1,3.3,1.9,4.3,1,.9,2.2,1.2,3.8,1Z"/>
    <path class="st1" d="M137.1,45.9l-.4-14.2-1.8-.2c-.3,0-.5-.1-.6-.3-.2-.1-.3-.3-.3-.5v-1.3s2.6,0,2.6,0v-1.5c0-1,0-1.8.3-2.6.3-.8.6-1.4,1.1-2s1.1-1,1.8-1.3c.7-.3,1.5-.5,2.4-.5.8,0,1.5,0,2.1.3v1.6c0,.1,0,.3-.1.3,0,0-.2.1-.3.2-.1,0-.3,0-.5,0-.2,0-.4,0-.6,0-.5,0-.9,0-1.4.2s-.7.3-1,.6c-.3.3-.5.7-.6,1.2-.1.5-.2,1.1-.2,1.8v1.4s4.8-.1,4.8-.1v2.4c0,0-4.6.1-4.6.1l.4,14.2h-3.2Z"/>
    <path class="st1" d="M158.6,47.1l-3.5-.5,3.4-23.6,3.5.5-3.4,23.6Z"/>
    <path class="st1" d="M182.7,27.8l-6.6,23.6-1.9-.5c-.4-.1-.7-.4-.6-.8l.2-1.9c-.9.6-1.9,1.1-2.9,1.3s-2.1.2-3.2-.1c-.9-.3-1.7-.7-2.4-1.2-.7-.6-1.1-1.3-1.5-2.1s-.5-1.8-.5-2.9c0-1.1.2-2.3.6-3.7.3-1.2.8-2.3,1.4-3.2.6-.9,1.3-1.7,2.1-2.3.8-.6,1.7-1,2.7-1.2,1-.2,2-.1,3.1.2,1,.3,1.8.7,2.4,1.2s1.1,1.1,1.5,1.9l2.5-8.9,3.1.9ZM176.5,38.2c-.3-.8-.7-1.4-1.3-1.9s-1.1-.7-1.9-1c-1.4-.4-2.7-.2-3.7.6-1.1.8-1.9,2.2-2.4,4.2-.3,1-.4,1.9-.5,2.7,0,.8,0,1.4.3,2,.2.6.5,1,1,1.4.4.4,1,.6,1.6.8.9.3,1.7.3,2.5,0,.8-.2,1.5-.6,2.3-1.2l2.1-7.7Z"/>
    <path class="st1" d="M193,56.4c-.6.2-1.1.4-1.8.5-.6,0-1.2,0-1.8,0-.6,0-1.2-.2-1.8-.4-.6-.2-1.2-.4-1.7-.7-1-.5-1.9-1.1-2.7-1.9-.7-.8-1.3-1.7-1.6-2.7-.3-1-.4-2.1-.3-3.3.1-1.2.5-2.4,1.1-3.8.5-1.1,1.1-2,1.9-2.7.8-.8,1.6-1.3,2.6-1.7s1.9-.6,3-.5c1.1,0,2.2.3,3.3.8.9.4,1.7,1,2.3,1.7.6.7,1.1,1.4,1.4,2.3s.4,1.8.3,2.8c0,1-.4,2-.9,3.1-.2.4-.4.7-.6.8-.2.1-.4,0-.7,0l-10-4.7c-.4.9-.7,1.8-.7,2.6s0,1.5.1,2.1c.2.6.5,1.2,1,1.7.5.5,1,.9,1.7,1.2.6.3,1.2.5,1.8.6s1,.1,1.5,0,.8,0,1.1,0c.3,0,.5,0,.7,0,.2.1.4.3.4.5l.3,1.5ZM194,48.1c.3-.6.4-1.2.5-1.7,0-.6,0-1.1-.1-1.6-.1-.5-.4-1-.8-1.4-.4-.4-.8-.8-1.4-1.1-1.2-.6-2.4-.7-3.4-.3-1,.4-2,1.1-2.7,2.3l8,3.8Z"/>
    <path class="st1" d="M205.2,49.9c.5-.1,1-.2,1.5-.2s1,0,1.5,0c.5,0,1,.2,1.5.4.5.2,1,.5,1.5.8.8.5,1.3,1.1,1.7,1.8s.6,1.4.7,2.1c0,.7,0,1.5-.3,2.3-.3.8-.7,1.6-1.2,2.3l-6.2,8.8-2.7-1.9,6.2-8.8c.7-1,1-1.9.9-2.8s-.6-1.6-1.5-2.3c-.7-.5-1.4-.8-2.2-.9s-1.7,0-2.6.1l-7.1,10.1-2.6-1.9,9.7-13.7,1.6,1.1c.4.3.5.6.3,1l-.8,1.5Z"/>
    <path class="st1" d="M219.5,81.6l-2.3-2.3,10.2-9.9-5.9-6.1-7.1,6.9c-.5.5-.7.9-.7,1.4,0,.5.2.9.5,1.2.2.2.4.4.6.5s.4.2.6.2c.2,0,.3,0,.5.1.1,0,.2,0,.3.1,0,0,.1.2.1.2,0,0,0,.2,0,.3l-.4,1.8c-.7,0-1.4-.2-2.1-.6-.7-.3-1.3-.8-1.9-1.4-.9-1-1.4-2-1.4-3.1,0-1.1.6-2.1,1.6-3.1l7.2-7-1.4-1.4c-.1-.1-.2-.3-.2-.5,0-.2,0-.3.2-.5l.9-.9,2.2,1.7,4.1-3c.2,0,.3-.1.5-.1s.3,0,.5.2l1.1,1.2-4.1,3.9,8.2,8.4-11.9,11.5ZM235.9,66.7c-.2.2-.5.4-.7.5-.3.1-.6.2-.9.1-.3,0-.6,0-.8-.2-.3-.1-.5-.3-.7-.5s-.4-.5-.5-.7c-.1-.3-.2-.6-.1-.8s0-.6.2-.8c.1-.3.3-.5.5-.7.2-.2.5-.4.8-.5.3-.1.6-.2.9-.2.3,0,.6,0,.8.2.3.1.5.3.7.5s.4.5.5.7c.1.3.2.6.2.9s0,.6-.2.9-.3.5-.5.7Z"/>
    <path class="st1" d="M224.5,89.2c-.8-1.1-1.1-2.2-.9-3.2s.9-2,2-2.8l8.2-5.8-1.1-1.6c-.1-.2-.2-.3-.1-.5,0-.2.1-.3.3-.5l1.1-.8,1.9,2,4.5-2.3c.2,0,.3,0,.5,0,.2,0,.3.1.4.3l.9,1.3-4.6,3.3,2.8,3.9-1.9,1.4-2.8-3.9-8.1,5.7c-.5.4-.9.8-.9,1.3,0,.5,0,.9.3,1.3.2.2.4.4.5.6.2.1.4.2.5.3.2,0,.3.1.4.2.1,0,.2.1.3.2,0,0,0,.2,0,.3s0,.2,0,.3l-.7,1.7c-.7-.2-1.4-.4-2-.9s-1.2-1-1.6-1.6Z"/>
    <path class="st1" d="M249.8,99.4l-23.6,1.7c-.3,0-.5,0-.7,0-.2,0-.4-.3-.5-.6l-1.1-2.1,7.4-.3,10.9-13.4,1.3,2.5c.1.2.2.5.1.7,0,.2-.1.4-.2.5l-7,8.4c-.2.2-.4.4-.6.6s-.4.4-.6.5c.3,0,.5,0,.8-.1.3,0,.5,0,.8-.1l10.9-1c.2,0,.4,0,.6.1.2,0,.3.2.4.4l1.2,2.3Z"/>
  </g>
  <g>
    <path class="st1" d="M36.9,136.5c.9.9,1.6,1.9,2.1,3,.5,1.1.7,2.3.8,3.6,0,1-.1,1.8-.4,2.6-.3.7-.7,1.4-1.3,1.9-.5.5-1.2.9-2,1.2-.8.3-1.6.4-2.6.5l-10.7.3v-1.4c0-.3,0-.6,0-.7.1-.2.3-.3.6-.4l1.5-.4c-.4-.4-.8-.8-1.1-1.2-.3-.4-.6-.8-.8-1.3-.2-.5-.4-.9-.5-1.5-.1-.5-.2-1.1-.2-1.7,0-.7,0-1.3.2-1.9.2-.6.4-1.1.8-1.5.4-.4.8-.8,1.4-1.1.6-.3,1.2-.4,2-.4.7,0,1.3.1,1.9.5.6.3,1.2.9,1.7,1.7.5.8.9,1.8,1.3,3.1.3,1.3.6,2.9.7,4.8h1.2c1.3,0,2.2-.4,2.8-.9.6-.6.9-1.4.9-2.4,0-.7-.1-1.3-.3-1.8s-.4-.9-.6-1.2c-.2-.3-.4-.6-.6-.9-.2-.3-.3-.5-.3-.8,0-.2,0-.4.2-.6.1-.2.3-.3.4-.4l1-.6ZM30.1,146.2c0-1.3-.2-2.4-.4-3.3s-.4-1.7-.7-2.2c-.3-.6-.6-1-1-1.2-.4-.2-.8-.4-1.2-.3-.4,0-.8,0-1.1.2-.3.1-.5.3-.7.6-.2.2-.3.5-.4.9,0,.3-.1.7-.1,1,0,.5,0,1,.2,1.4s.3.8.5,1.2c.2.4.4.7.7,1,.3.3.6.6.9,1h3.3Z"/>
    <path class="st1" d="M38,156.5c.4.3.9.6,1.2.9.4.3.7.7,1,1.1.3.4.6.8.8,1.3.2.5.4,1,.5,1.6.2.9.2,1.7,0,2.5-.2.7-.5,1.4-1,2-.5.6-1.1,1-1.8,1.4-.7.4-1.6.7-2.5.8l-10.6,1.9-.6-3.2,10.6-1.9c1.2-.2,2.1-.7,2.6-1.3s.7-1.6.5-2.7c-.1-.8-.5-1.5-1-2.2-.5-.6-1.2-1.2-1.9-1.7l-12.2,2.2-.6-3.2,16.6-3,.3,1.9c0,.4,0,.8-.5.9l-1.6.5Z"/>
    <path class="st1" d="M55.4,181.5l-22.9,8.5-.7-1.8c-.2-.4,0-.8.3-1l1.7-.9c-1-.4-2-.9-2.8-1.6-.8-.7-1.4-1.6-1.8-2.7-.3-.9-.5-1.8-.4-2.6,0-.9.4-1.7.9-2.4s1.2-1.5,2.1-2.1c.9-.7,2-1.2,3.3-1.7,1.2-.4,2.3-.7,3.4-.7,1.1,0,2.2,0,3.1.4,1,.3,1.8.8,2.5,1.5s1.3,1.6,1.7,2.6c.4,1,.5,1.8.4,2.6,0,.8-.3,1.5-.7,2.3l8.6-3.2,1.1,3ZM43.3,182.5c.5-.7.7-1.4.8-2.1,0-.7,0-1.4-.3-2.1-.5-1.4-1.4-2.3-2.7-2.7-1.3-.4-2.9-.2-4.8.5-1,.4-1.8.8-2.5,1.2-.6.4-1.1.9-1.5,1.4-.3.5-.5,1-.5,1.6,0,.6,0,1.1.3,1.7.3.9.8,1.6,1.4,2.1.6.5,1.4.9,2.3,1.2l7.5-2.8Z"/>
    <path class="st1" d="M54.6,216c.1.2.2.3.1.6l-.4,2c-1.5-.1-2.9-.5-4.3-1.3-1.3-.8-2.6-1.9-3.7-3.5-1-1.4-1.7-2.8-2-4.3-.3-1.5-.4-2.9,0-4.4.3-1.4.9-2.8,1.8-4.1.9-1.3,2.1-2.5,3.5-3.6s2.9-1.8,4.5-2.2c1.5-.4,3-.5,4.5-.3,1.5.2,2.9.7,4.2,1.5,1.3.8,2.5,1.9,3.5,3.3,1,1.4,1.7,2.7,2,4.1.3,1.4.4,2.7.2,4.1h-2c-.1,0-.3,0-.4,0-.1,0-.3-.1-.4-.3-.1-.2-.2-.4-.2-.8,0-.4,0-.8,0-1.3,0-.5-.2-1.1-.4-1.8-.2-.7-.6-1.4-1.2-2.2-.7-1-1.5-1.7-2.4-2.3-.9-.6-1.9-.9-2.9-1-1-.1-2.1,0-3.3.3-1.1.3-2.3.9-3.4,1.8-1.2.9-2.1,1.8-2.8,2.8-.7,1-1.1,2-1.3,3.1-.2,1-.2,2.1,0,3.1.2,1,.7,2,1.4,2.9.4.6.8,1,1.2,1.4s.8.7,1.2,1c.4.3.8.5,1.3.7.5.2.9.3,1.5.4.1,0,.2,0,.3.1,0,0,.2.1.2.2Z"/>
    <path class="st1" d="M77.2,221.7l-11.5,12.3-1.4-1.3c-.3-.3-.4-.7-.2-1.1l1-1.4c-.5,0-1.1,0-1.6,0-.5,0-1-.1-1.5-.3-.5-.1-1-.3-1.4-.6-.5-.3-.9-.6-1.3-1-.7-.6-1.2-1.3-1.5-2-.3-.7-.4-1.4-.4-2.2s.2-1.5.6-2.2c.4-.7.9-1.5,1.5-2.1l7.3-7.8,2.4,2.2-7.3,7.8c-.8.9-1.3,1.8-1.3,2.6,0,.9.3,1.7,1.2,2.5.6.6,1.3,1,2.1,1.2.8.2,1.7.3,2.6.2l8.4-9,2.4,2.2Z"/>
    <path class="st1" d="M87.8,219.9l-14.4,19.8-2.6-1.9,14.4-19.8,2.6,1.9Z"/>
    <path class="st1" d="M82.8,246c-1.2-.7-1.9-1.6-2.1-2.6-.2-1,0-2.2.7-3.4l5.1-8.7-1.7-1c-.2,0-.3-.2-.3-.4,0-.2,0-.3.1-.5l.7-1.1,2.5,1.1,3.2-4c.1-.1.3-.2.4-.2.2,0,.3,0,.5.1l1.4.8-2.9,4.9,4.1,2.4-1.2,2-4.1-2.4-5,8.5c-.3.6-.4,1.1-.3,1.5.1.4.4.8.8,1.1.3.2.5.3.7.3.2,0,.4,0,.6,0,.2,0,.3,0,.5,0,.1,0,.2,0,.3,0,0,0,.2.1.2.2,0,0,0,.2,0,.3v1.8c-.7.1-1.4.2-2.2,0-.8-.1-1.5-.4-2.2-.8Z"/>
    <path class="st1" d="M110,239.8l-6.4,15.6-1.8-.7c-.4-.2-.6-.5-.6-.9l.4-1.7c-.5.2-1,.4-1.5.5-.5.1-1,.2-1.5.3-.5,0-1,0-1.5,0-.5,0-1-.2-1.6-.4-.9-.4-1.6-.8-2.1-1.4-.5-.6-.9-1.2-1.1-1.9-.2-.7-.3-1.5-.2-2.3s.3-1.7.7-2.5l4.1-9.9,3,1.2-4.1,9.9c-.5,1.1-.6,2.1-.3,2.9.3.8.9,1.5,2,1.9.8.3,1.6.4,2.4.3.8,0,1.6-.3,2.5-.7l4.7-11.4,3,1.2Z"/>
    <path class="st1" d="M116.3,244.8c.8-.9,1.6-1.6,2.5-2.1.9-.4,1.9-.5,2.9-.3.4,0,.7.2,1,.4.3.2.5.3.7.6l-.8,2.3c-.1.3-.4.4-.6.3-.2,0-.4-.1-.7-.3s-.6-.2-.9-.3c-.5-.1-1-.2-1.4-.1-.4,0-.8.2-1.2.4-.4.2-.7.5-1.1.8-.3.4-.7.8-1,1.2l-2.5,10.2-3.1-.8,4-16.4,1.8.4c.3,0,.6.2.7.4,0,.2.1.4.1.7l-.4,2.3Z"/>
    <path class="st1" d="M124.7,245.9c1-.8,2.1-1.3,3.3-1.7,1.1-.3,2.4-.4,3.7-.3,1,.1,1.8.4,2.5.7.7.4,1.3.9,1.7,1.5.4.6.8,1.3.9,2.1.2.8.2,1.7.1,2.6l-1.2,10.7-1.4-.2c-.3,0-.6-.1-.7-.2-.2-.1-.3-.3-.3-.6l-.2-1.5c-.5.3-.9.7-1.4.9-.4.3-.9.5-1.4.6s-1,.3-1.5.3c-.5,0-1.1,0-1.7,0-.7,0-1.3-.2-1.8-.5-.6-.2-1-.6-1.4-1-.4-.4-.7-.9-.9-1.5-.2-.6-.2-1.3-.2-2,0-.7.3-1.3.7-1.8.4-.6,1.1-1.1,1.9-1.4s2-.7,3.3-.8c1.3-.2,3-.2,4.9,0v-1.2c.3-1.3.1-2.2-.4-2.9-.5-.7-1.2-1.1-2.3-1.2-.7,0-1.3,0-1.8,0-.5.1-.9.3-1.3.5-.4.2-.7.3-1,.5-.3.1-.6.2-.8.2-.2,0-.4-.1-.5-.2-.1-.1-.3-.3-.3-.5l-.5-1.1ZM133.4,253.9c-1.3,0-2.4-.1-3.4,0-.9,0-1.7.2-2.3.4-.6.2-1,.5-1.3.8-.3.3-.5.7-.5,1.2,0,.4,0,.8,0,1.1.1.3.3.6.5.8s.5.4.8.5c.3.1.7.2,1,.2.5,0,1,0,1.4,0s.8-.2,1.2-.3.8-.3,1.1-.6c.4-.2.7-.5,1.1-.8l.4-3.3Z"/>
    <path class="st1" d="M145.3,237.2v24.5c0,0-3.3,0-3.3,0v-24.5c0,0,3.3,0,3.3,0Z"/>
    <path class="st1" d="M175.5,254.4l.6,2.8-14.4,3.1-5-23.3,14.4-3.1.6,2.8-11,2.4,1.6,7.4,8.8-1.9.6,2.7-8.8,1.9,1.6,7.6,11-2.4Z"/>
    <path class="st1" d="M195.1,249.9l-2.9,1.2c-.2,0-.4.1-.6,0-.2,0-.4-.2-.5-.3l-6.2-4.4c0,.2,0,.3,0,.5,0,.2,0,.3,0,.5l-1.4,6.5c0,.2-.1.4-.2.6,0,.2-.2.3-.4.4l-2.7,1.1,2.2-10.2-8.3-5.5,2.9-1.2c.2,0,.4-.1.6,0,.1,0,.3,0,.4.2l6,4.2c0-.2,0-.3,0-.5,0-.2,0-.4,0-.6l1.3-6c0-.4.2-.7.5-.8l2.7-1.1-2.2,9.6,8.7,6Z"/>
    <path class="st1" d="M194.7,233.8c0-.5.2-1.1.4-1.6s.4-1,.6-1.4c.3-.5.6-.9,1-1.3.4-.4.8-.7,1.3-1.1.8-.5,1.7-.8,2.5-.9.9,0,1.7,0,2.6.4s1.7.9,2.5,1.6c.8.8,1.6,1.7,2.3,2.9.7,1.1,1.1,2.1,1.4,3.2s.3,2.1.2,3.1-.4,1.9-1,2.8c-.5.9-1.3,1.6-2.2,2.2-.9.5-1.7.8-2.5.9-.8,0-1.6,0-2.4-.2l3.8,6.2-2.8,1.7-11.8-19.2,1.7-1c.4-.2.7-.2,1.1.1l1.2,1.4ZM200.1,242.4c.8.3,1.6.4,2.2.3.7,0,1.3-.3,2-.7,1.3-.8,2-1.8,2.1-3.2.1-1.3-.3-2.9-1.4-4.6-.6-.9-1.1-1.6-1.7-2.2-.6-.5-1.1-.9-1.7-1.2-.5-.2-1.1-.3-1.6-.2-.6,0-1.1.3-1.6.6-.8.5-1.4,1.1-1.8,1.8-.4.7-.6,1.6-.7,2.5l4.2,6.8Z"/>
    <path class="st1" d="M210.4,223.7c-.3-1.2-.4-2.3-.2-3.3s.7-1.8,1.5-2.5c.3-.2.6-.4.9-.6s.6-.2.9-.3l1.4,2c.1.3,0,.5-.1.7-.1,0-.3.2-.6.4-.3.2-.5.3-.8.6-.4.3-.7.7-.9,1.1-.2.4-.3.8-.4,1.2,0,.4,0,.9,0,1.4s.2,1,.4,1.5l6.8,8.1-2.5,2.1-10.8-12.9,1.4-1.2c.3-.2.5-.3.7-.3.2,0,.4.1.6.3l1.7,1.7Z"/>
    <path class="st1" d="M234.6,215.4c0,.6,0,1.2,0,1.8,0,.6-.3,1.2-.5,1.8-.2.6-.5,1.1-.9,1.7s-.7,1-1.1,1.5c-.8.9-1.7,1.5-2.6,2-1,.5-2,.7-3,.7-1,0-2.1-.2-3.2-.6-1.1-.5-2.2-1.2-3.3-2.2-.9-.8-1.6-1.7-2.1-2.6-.5-1-.8-1.9-.9-2.9,0-1,0-2,.4-3,.3-1,.9-2,1.8-2.9.7-.8,1.5-1.3,2.3-1.8.8-.4,1.7-.6,2.6-.7s1.8.1,2.8.5c.9.4,1.8,1,2.7,1.8.4.3.6.6.6.8,0,.2,0,.4-.2.6l-7.4,8.2c.8.7,1.5,1.1,2.2,1.5.7.3,1.4.5,2.1.5.7,0,1.3-.1,1.9-.4.6-.3,1.2-.7,1.7-1.3.5-.5.8-1,1.1-1.5.2-.5.4-1,.5-1.4.1-.4.2-.8.3-1.1,0-.3.1-.5.3-.7.2-.2.4-.3.6-.3h1.5ZM226.9,212.1c-.5-.4-1-.8-1.5-1-.5-.2-1.1-.3-1.6-.4-.5,0-1.1.1-1.6.3-.5.2-1,.6-1.4,1.1-.9,1-1.3,2.1-1.3,3.2,0,1.1.5,2.2,1.4,3.3l5.9-6.5Z"/>
    <path class="st1" d="M233.8,196.2c0,.2.1.3,0,.4,0,.1,0,.2-.1.4,0,.1-.3.3-.5.4-.2.1-.5.3-.8.4-.3.2-.6.4-.9.7-.3.3-.6.6-1,1.1-.3.4-.4.8-.6,1.2-.1.4-.2.7-.1,1.1,0,.3.1.6.3.9.2.3.4.5.6.7.3.2.7.3,1.1.3s.7-.2,1.1-.4c.4-.2.8-.5,1.2-.8.4-.3.9-.7,1.3-1,.4-.3.9-.7,1.4-1,.5-.3,1-.5,1.5-.7.5-.1,1-.2,1.6-.1s1.1.3,1.7.7c.7.4,1.2,1,1.6,1.6.4.6.7,1.3.8,2,.1.7,0,1.5-.2,2.3-.2.8-.6,1.7-1.2,2.5-.6,1-1.4,1.8-2.3,2.4-.9.6-1.7,1-2.6,1.2l-.6-1.3c0-.2-.1-.3-.1-.5s0-.3.2-.5c.1-.2.3-.3.6-.4.3,0,.5-.2.9-.4.3-.2.7-.4,1-.7.4-.3.7-.7,1.1-1.3.3-.5.5-.9.6-1.3.1-.4.1-.8,0-1.2,0-.4-.2-.7-.3-1-.2-.3-.4-.5-.7-.7-.4-.2-.7-.3-1.1-.3-.4,0-.8.2-1.2.4s-.8.5-1.2.8c-.4.3-.9.7-1.3,1-.4.4-.9.7-1.4,1-.5.3-1,.5-1.5.7s-1.1.2-1.6,0c-.6,0-1.1-.3-1.8-.7s-1-.8-1.3-1.4c-.3-.6-.6-1.2-.7-1.9,0-.7,0-1.4.2-2.2.2-.8.6-1.6,1.1-2.4.6-.9,1.3-1.7,2.1-2.2.8-.6,1.6-.9,2.5-1.1l.6,1.2Z"/>
    <path class="st1" d="M240.4,183.3c0,.1.1.3.2.4,0,.1,0,.2,0,.4,0,.2-.2.3-.4.4-.2.1-.4.3-.7.5-.3.2-.5.5-.8.8-.3.3-.6.7-.8,1.2-.2.4-.3.8-.4,1.2,0,.4,0,.8,0,1.1s.2.6.4.9c.2.3.4.4.7.6.4.2.7.2,1.1.1.4-.1.7-.3,1.1-.6.4-.3.7-.6,1.1-1,.4-.4.7-.8,1.1-1.2.4-.4.8-.8,1.2-1.2s.9-.7,1.4-.9c.5-.2,1-.3,1.5-.3.5,0,1.1.1,1.7.4.7.3,1.3.8,1.8,1.3s.8,1.2,1,1.9.2,1.5.1,2.3c-.1.8-.4,1.7-.8,2.7-.5,1-1.1,1.9-1.9,2.6-.8.7-1.6,1.2-2.4,1.6l-.8-1.2c-.1-.1-.2-.3-.2-.5,0-.2,0-.3.1-.5,0-.2.3-.3.5-.5.2-.1.5-.3.8-.5.3-.2.6-.5.9-.8.3-.3.6-.8.9-1.4.2-.5.4-1,.4-1.4,0-.4,0-.8,0-1.2,0-.3-.3-.6-.5-.9-.2-.3-.5-.5-.8-.6-.4-.2-.8-.2-1.2-.1-.4,0-.7.3-1.1.6-.4.3-.7.6-1.1,1-.4.4-.7.8-1.1,1.2-.4.4-.8.8-1.2,1.2-.4.4-.9.7-1.4.9-.5.2-1,.3-1.6.3-.6,0-1.2-.2-1.8-.5-.6-.3-1.1-.7-1.5-1.2-.4-.5-.7-1.1-.9-1.7-.2-.7-.2-1.4-.1-2.2s.3-1.6.8-2.5c.5-1,1.1-1.8,1.8-2.5.7-.7,1.5-1.1,2.3-1.4l.7,1.2Z"/>
    <path class="st1" d="M235.7,172.6c.3.1.5.3.7.5.2.2.4.4.5.7.1.3.2.5.2.8s0,.6-.1.9c-.1.3-.3.5-.4.7s-.4.4-.7.5c-.3.1-.5.2-.8.2s-.6,0-.9-.1c-.3-.1-.5-.3-.8-.5s-.4-.4-.5-.7c-.1-.3-.2-.5-.2-.8,0-.3,0-.6.1-.9s.3-.5.5-.8c.2-.2.4-.4.7-.5.3-.1.5-.2.8-.2.3,0,.6,0,.9.1ZM240.4,174.9l15.9,5.7-1.1,3-15.9-5.7,1.1-3Z"/>
    <path class="st1" d="M243.2,163.7c.3-1.2.7-2.3,1.3-3.2.6-.9,1.4-1.6,2.2-2.1.9-.5,1.9-.9,3-1,1.1-.1,2.3,0,3.6.2,1.3.3,2.4.7,3.4,1.3,1,.6,1.7,1.3,2.3,2.2.6.8,1,1.8,1.1,2.9s.1,2.2-.1,3.4c-.3,1.2-.7,2.3-1.3,3.2-.6.9-1.4,1.6-2.2,2.1-.9.5-1.9.9-3,1-1.1.1-2.3,0-3.6-.2s-2.4-.7-3.4-1.3c-1-.6-1.7-1.3-2.3-2.2s-1-1.8-1.2-2.9c-.2-1.1-.1-2.2.1-3.4ZM257.7,166.9c.3-1.6,0-2.8-.8-3.8-.9-1-2.3-1.7-4.2-2.1-1.9-.4-3.5-.4-4.7.2-1.2.5-2,1.6-2.3,3.1-.3,1.6,0,2.9.8,3.9.9,1,2.3,1.7,4.2,2.1,1.9.4,3.5.4,4.7-.2,1.2-.5,2-1.6,2.3-3.2Z"/>
    <path class="st1" d="M248,149.7c-.4-.4-.7-.8-1-1.2-.3-.4-.6-.8-.8-1.3-.2-.5-.4-.9-.5-1.5-.1-.5-.2-1.1-.1-1.7,0-.9.2-1.7.6-2.4.3-.7.8-1.3,1.4-1.7.6-.5,1.3-.8,2.1-1,.8-.2,1.7-.3,2.6-.3l10.7.4v3.2c-.1,0-10.8-.4-10.8-.4-1.2,0-2.2.2-2.8.7-.7.5-1.1,1.4-1.1,2.5,0,.8.1,1.6.5,2.3.4.7.9,1.4,1.5,2.1l12.3.5v3.2c-.1,0-17-.6-17-.6v-1.9c0-.5.3-.7.8-.8l1.7-.2Z"/>
  </g>
  <g>
    <path class="st2" d="M182.4,101.9s-52.8,44.3-50.1,65.4c2.7,21,36.6-12.8,42.7-27.1,6.1-14.3,11.8-35.3,7.4-38.3Z"/>
    <path class="st2" d="M181.7,98s-15.1,13.7-18.7,17.5c-3.6,3.7-19.2,20.1-24.3,28.2l-3.6,5.3s-9.6-9.8-5-30.5c4.6-20.7,32.9-37.6,36.6-39.7,3.7-2.1,16.4-10.4,18.7,2.8,1.4,7.9-3.7,16.4-3.7,16.4Z"/>
    <path class="st2" d="M106.5,83.9s-11.4,7.3-10.7,24.6c.6,17.3,8,33.2,15.1,41.2,7.1,7.9,18.5,14.9,18.5,14.9,0,0-4.5-4.3-6.4-10.6-1.7-5.8.4-15.6-7.8-34-5.6-12.6-12.2-21.3-8.5-36Z"/>
    <path class="st2" d="M117.3,71.1s-7.2,2-8,19.3c-.4,8.2,3.3,16.6,6.8,23.2,3.4,6.6,8.3,19.2,9,32.1.7,12.9,5.6,14.7,5.6,14.7,0,0,.8-4.6,3.3-9.4,0,0-5.3-5.4-7.2-15.5-1.8-10.1.9-23.1,5.4-30,4.5-6.9,11.9-13.3,11.9-13.3,0,0-12.9-25.7-26.8-21.1Z"/>
    <path class="st2" d="M140.2,80s4.2,5.7,6.3,9.8c0,0,17.5-17.1,33.3-18.6,3.3-.6,5,1.7,5,1.7,0,0-2.5-11.4-17.6-10.4-15.1,1-27,17.4-27,17.4Z"/>
    <path class="st0" d="M61.2,160c10.8,4.4,33.4,8.9,33.4,8.9,0,.2-19.9,9.4-19.5,9.9,1,1.5,18.7-8.8,25.8-8,4,.5,14.8,4.5,14.8,4.5,0,.5-16,7.9-23.4,12.3-3.4,2.1-6.9,4.7-10.5,6-.4.2-.7,1.2-.2,1.3,7.8,1.2,14.7-3.2,21.2-6.7,3.8-2.1,7.9-4.1,11.7-6.2,3.9-2.2,8.8-5.5,11.4-7.5,1.1-.8,4-1.9,4.6-4.1.5-1.8-1.2-2.6-1.8-2.8-3.2-1-9.9-7.3-14.6-11.3-4.6-4-9.2-7.8-12.7-12.4-.3-.4-.9.6-.9.6-.1,0-2-1.7-2.9-2.5-.5-.5-1.5.8-1.1,1.6,2.4,4.5,5.1,9.4,7.5,13.2,2.9,4.7,11.9,12.2,11.9,12.2,0,.1-15-5.3-21.6-10.5-4.9-3.9-14.2-12-15.1-11.8-1,.3,9.7,13.7,9.7,13.7-.1.2-18.2-3-27.5-1.8-.5,0-.8,1.3-.3,1.4Z"/>
    <g>
      <path class="st0" d="M151.8,183.3c4.4,1.5,22.7,8,22.7,7-.1-1.8-15.2-10.5-15.2-10.5.1-.6,51.1,5.1,54.7,1.9.8-.7-10.7-4.7-14.2-5.3-12.4-2.1-39.2-1.9-39.2-1.9-.1-.4,19.4-9.4,27.9-15.3,1.3-.9.9-2.5-.6-1.9-3.1,1.4-6.7,2.4-10,3.7-9.3,3.8-18.7,10.9-26.1,14.1-1.6.7-2.5,2.4-3.4,3.9-1.8,3,2,3.8,3.5,4.3Z"/>
      <path class="st0" d="M141.4,181.5c.7.1,1.4,0,2.2-.2,6.4,5.8,13.2,11.2,20,16.1,6.4,4.7,13.8,10.9,21.3,11.9.1,0,.2-.2.1-.4-2.2-3.8-5.9-6.1-8.9-8.6-8.7-7.4-27.2-20.3-27.2-21.9,0-2.2,23.9-21.2,23.5-21.8-.3-.4-5.3,1.5-7.8,3.4-5.3,3.9-10.7,8.1-15.8,11.8-2.4,1.8-5.4,2.6-7.7,4-1.8,1.2-1.7,5.1.3,5.5Z"/>
    </g>
  </g>
  <path class="st0" d="M143.3,174.9c-6.4,3.2-11.6,2.6-12.7-5.3,0-.2,0-.5,0-.7h-.7c-.3,7.7-4.6,19.5-8.2,28-.4,1-.8,2-1.3,2.9-.1.2-.2.4-.3.7-.9,2-1.7,3.7-2.3,4.9h0c-3.4,6.3-8,11.5-8,11.5,5.6,3.1,16.4,4.8,16.4,4.8l5.2-12.1c1.2-2.5,3.3-7.1,5.5-12.6,3.4-8.6,5.6-16,6.6-22.2Z"/>
</svg>