<svg version="1.2" xmlns="http://www.w3.org/2000/svg" viewBox="0 0 380 250" width="250" height="250"><style>.a{fill:#020e1d}.b{fill:#e31d2c}</style><path class="a" d="m134.7 0.7c-3.5 4.1-8.6 6.6-12.6 10.2-49.3 43.4-46.4 120.1 5.8 159.6 0.2 0.8-0.9 0.6-1.4 0.5-13.8-2.4-45.2-19.9-57.9-27.8-24.6-15.3-48.8-34.8-68.1-56.2 36.8-38.9 82.8-70.3 134.2-86.3z"/><path class="a" d="m250.6 171.1c51.3-39.7 55.5-117 5.8-160.2l-13.1-10.2c51.6 15.7 97.8 47.6 134.8 86.3 0.6 3.8-41.3 37.6-47.4 42.1-24.3 17.7-51.4 32.8-80.1 42z"/><path class="a" d="m238.3 85.9c0 27.2-22 49.3-49.3 49.3-27.2 0-49.3-22.1-49.3-49.3 0-27.2 22.1-49.3 49.3-49.3 27.3 0 49.3 22.1 49.3 49.3z"/><path class="b" d="m189.3 135c-27.3 0-49.4-22.1-49.4-49.3 0-27.3 22.1-49.4 49.4-49.4 27.2 0 49.3 22.1 49.3 49.4 0 27.2-22.1 49.3-49.3 49.3z"/></svg>
